<?xml version="1.0" encoding="UTF-8"?>
<!DOCTYPE svg PUBLIC "-//W3C//DTD SVG 1.1//EN" "http://www.w3.org/Graphics/SVG/1.1/DTD/svg11.dtd">
<!-- Creator: CorelDRAW 2018 (64 Bit) -->
<svg xmlns="http://www.w3.org/2000/svg" xml:space="preserve" width="210mm" height="297mm" version="1.1" style="shape-rendering:geometricPrecision; text-rendering:geometricPrecision; image-rendering:optimizeQuality; fill-rule:evenodd; clip-rule:evenodd"
viewBox="0 0 21000 29700"
 xmlns:xlink="http://www.w3.org/1999/xlink">
 <defs>
  <style type="text/css">
   <![CDATA[
    .str0 {stroke:#A9ABAE;stroke-width:20;stroke-miterlimit:22.9256}
    .str1 {stroke:#A9ABAE;stroke-width:20;stroke-miterlimit:22.9256}
    .fil3 {fill:#A9ABAE}
    .fil0 {fill:#D9FDD4}
    .fil1 {fill:#027BFC;fill-rule:nonzero}
    .fil4 {fill:#0A0A0A;fill-rule:nonzero}
    .fil2 {fill:#666666;fill-rule:nonzero}
   ]]>
  </style>
 </defs>
 <g id="Camada_x0020_1">
  <metadata id="CorelCorpID_0Corel-Layer"/>
  <path class="fil0 str0" d="M15476.38 15654.86c-213.9,-212.11 -284.45,-469.82 -294.3,-724.48l-0.34 -3.36 0 -403.78c0,-322.08 -263.85,-585.95 -585.94,-585.95l-8476.45 0c-314.73,0 -585.94,210.96 -585.94,539.19l0 646.45c0,322.13 263.81,585.96 585.94,585.96l8476.45 0c151.35,0 295.28,-58.57 404.49,-163.14l40.07 -38.37 45.09 32.34c94.19,67.59 246.65,151.89 350.64,173.44 82.23,17.05 72.65,-26.22 40.29,-58.3z"/>
  <g>
   <path class="fil1" d="M14320.22 15412.31c-10.75,-9.89 -11.45,-26.63 -1.56,-37.38 9.89,-10.75 26.63,-11.45 37.38,-1.56l-35.82 38.94zm76.24 70.15l-76.24 -70.15 35.82 -38.94 76.24 70.15 2.97 35.71 -38.79 3.23zm35.82 -38.94c10.75,9.89 11.45,26.63 1.56,37.38 -9.89,10.75 -26.63,11.45 -37.38,1.56l35.82 -38.94zm196.92 -213.66l-193.95 249.37 -41.76 -32.48 193.95 -249.37 41.76 32.48zm-41.76 -32.48c8.96,-11.53 25.59,-13.6 37.12,-4.64 11.53,8.96 13.6,25.59 4.64,37.12l-41.76 -32.48z"/>
  </g>
  <g>
   <path class="fil1" d="M14516.48 15461.36c-10.75,-9.89 -11.45,-26.63 -1.56,-37.38 9.89,-10.75 26.63,-11.45 37.38,-1.56l-35.82 38.94zm22.94 21.1l-22.94 -21.1 35.82 -38.94 22.94 21.1 2.97 35.71 -38.79 3.23zm35.82 -38.94c10.75,9.89 11.45,26.63 1.56,37.38 -9.89,10.75 -26.63,11.45 -37.38,1.56l35.82 -38.94zm196.92 -213.66l-193.95 249.37 -41.76 -32.48 193.95 -249.37 41.76 32.48zm-41.76 -32.48c8.96,-11.53 25.59,-13.6 37.12,-4.64 11.53,8.96 13.6,25.59 4.64,37.12l-41.76 -32.48z"/>
  </g>
  <path class="fil2" d="M13304.15 15475.36c69.09,0 108.93,-59.76 108.93,-153.47 0,-93.08 -40.05,-152.91 -108.93,-152.91 -68.81,0 -109.28,60.25 -109.28,153.12 0,93.71 40.05,153.26 109.28,153.26zm0 -32.27c-46.44,0 -72.11,-47.2 -72.11,-121.2 0,-72.32 26.31,-120.43 72.11,-120.43 45.87,0 71.75,47.69 71.75,120.64 0,73.93 -25.53,120.99 -71.75,120.99z"/>
  <path id="1" class="fil2" d="M13557.57 15475.36c62.85,0 107.67,-35.35 107.67,-85.08 0,-36.76 -25.46,-67.2 -63.9,-76.18l0 -0.84c32.27,-10.31 51.77,-35.35 51.77,-66.21 0,-45.17 -40.05,-78.07 -95.54,-78.07 -55.06,0 -95.74,33.11 -95.74,77.86 0,31.28 19.92,56.53 51.98,66.42l0 0.84c-38.23,8.77 -63.69,39.21 -63.69,76.18 0,49.52 44.75,85.08 107.45,85.08zm0 -32.27c-40.68,0 -69.86,-23.21 -69.86,-55.48 0,-32.47 29.18,-55.69 69.86,-55.69 40.9,0 69.87,23.08 69.87,55.69 0,32.27 -28.97,55.48 -69.87,55.48zm0 -143.65c-34.72,0 -58.98,-20.34 -58.98,-49.09 0,-28.97 24.26,-49.52 58.98,-49.52 34.72,0 58.99,20.34 58.99,49.52 0,28.75 -24.48,49.09 -58.99,49.09z"/>
  <path id="2" class="fil2" d="M13737.21 15472.48c13.11,0 23.43,-10.24 23.43,-23.42 0,-13.12 -10.32,-23.43 -23.43,-23.43 -13.19,0 -23.43,10.31 -23.43,23.43 0,13.18 10.24,23.42 23.43,23.42zm0 -151.22c13.11,0 23.43,-10.24 23.43,-23.43 0,-13.12 -10.32,-23.43 -23.43,-23.43 -13.19,0 -23.43,10.31 -23.43,23.43 0,13.19 10.24,23.43 23.43,23.43z"/>
  <path id="3" class="fil2" d="M13875.04 15333.6l37.18 0c42.36,0 68.66,21.54 68.66,56.47 0,31.07 -28.12,53.24 -67.4,53.24 -39.84,0 -65.16,-20.98 -68.46,-51.35l-35.49 0c2.66,49.1 42.29,83.4 104.37,83.4 58.15,0 104.58,-35.56 104.58,-86.48 0,-41.74 -28.76,-69.45 -73.58,-72.11l0 -0.84c37.04,-6.6 60.81,-33.32 60.81,-70.49 0,-44.61 -40.05,-76.46 -93.07,-76.46 -55.7,0 -93.08,32.27 -97.22,82.63l35.56 0c3.3,-31.07 25.88,-50.57 60.04,-50.57 37.6,0 57.52,19.92 57.52,49.31 0,30.02 -23.85,52.04 -57.94,52.04l-35.56 0 0 31.21z"/>
  <polygon id="4" class="fil2" points="14080.76,15470.45 14119.62,15470.45 14251.56,15208.26 14251.56,15173.89 14055.3,15173.89 14055.3,15206.79 14214.94,15206.79 14214.94,15207.63 "/>
  <path class="fil3 str1" d="M5615.21 14191.15c-71.96,87.69 -115.21,200 -115.21,331.03l0 646.45c0,322.13 263.82,585.95 585.95,585.95l8487.06 0c151.34,0 315.32,-58.56 424.53,-163.13l40.07 -38.37 45.08 32.34c94.2,67.59 226.62,151.9 330.6,173.44 68.69,14.23 73.31,-13.6 54.11,-41.86 -8.49,-0.06 -18.84,-1.25 -31.31,-3.84 -103.99,-21.55 -256.45,-105.85 -350.64,-173.44l-45.09 -32.34 -40.07 38.37c-109.21,104.57 -253.14,163.14 -404.49,163.14l-8476.45 0c-322.13,0 -585.94,-263.83 -585.94,-585.96l0 -646.45c0,-109.26 30.09,-205.52 81.8,-285.33z"/>
  <polygon class="fil4" points="6500.04,15017.58 6500.04,14544.58 6431.58,14544.58 6268.35,14939.27 6265.67,14939.27 6102.44,14544.58 6033.98,14544.58 6033.98,15017.58 6089.02,15017.58 6089.02,14653.1 6091.37,14653.1 6242.17,15014.34 6291.96,15014.34 6442.65,14653.1 6445,14653.1 6445,15017.58 "/>
  <path id="1" class="fil4" d="M6719.65 14720.33c53.7,0 89.5,40.61 90.73,97.67l-185.15 0c3.58,-56.72 40.94,-97.67 94.42,-97.67zm89.5 199.58c-9.51,32.11 -41.4,54.04 -84.58,54.04 -61.3,0 -99.68,-42.85 -99.68,-108.07l0 -3.36 244.56 0 0 -21.59c0,-103.26 -56.72,-170.16 -148.79,-170.16 -94.09,0 -154.39,71.83 -154.39,177.66 0,107.17 59.29,175.08 156.96,175.08 74.4,0 132.12,-43.97 141.97,-103.6l-56.05 0z"/>
  <path id="2" class="fil4" d="M6926.73 15017.58l57.06 0 0 -200.59c0,-57.73 35.01,-95.65 88.82,-95.65 52.47,0 78.31,30.09 78.31,85.14l0 211.1 57.06 0 0 -221.29c0,-77.3 -43.3,-125.52 -118.03,-125.52 -52.8,0 -89.16,23.61 -108.18,60.3l-1.23 0 0 -54.37 -53.81 0 0 340.88z"/>
  <path id="3" class="fil4" d="M7274.43 14770.79c0,46.54 29.54,77.3 89.5,92.74l59.96 15.44c38.38,10.18 52.47,23.27 52.47,47.55 0,30.76 -28.53,50.45 -74.73,50.45 -46.2,0 -73.05,-19.02 -79.32,-54.48l-57.05 0c5.93,60.3 58.06,101.02 132.79,101.02 79.65,0 135.7,-41.95 135.7,-101.36 0,-50.12 -24.94,-74.95 -93.75,-92.41l-52.8 -12.75c-38.71,-9.84 -56.72,-25.51 -56.72,-49.11 0,-29.87 27.52,-50.57 69.14,-50.57 41.95,0 68.58,20.36 72.49,53.14l54.37 0c-2.57,-57.72 -54.37,-99.68 -124.85,-99.68 -75.07,0 -127.2,41.62 -127.2,100.02z"/>
  <path id="4" class="fil4" d="M7705.14 14974.96c-40.94,0 -68.13,-21.26 -68.13,-53.7 0,-32.11 26.18,-52.47 72.05,-55.38l91.18 -5.59 0 27.85c0,49.11 -41.4,86.82 -95.1,86.82zm-12.75 48.55c45.87,0 89.16,-25.62 109.41,-64.55l1.34 0 0 58.62 54.04 0 0 -235.61c0,-67.9 -50.46,-111.2 -130.45,-111.2 -80.54,0 -131.11,45.31 -135.03,104.27l55.04 0c7.28,-33.45 34.8,-54.04 78.76,-54.04 47.1,0 74.74,24.84 74.74,66.46l0 28.52 -97.67 5.6c-78.76,4.58 -123.62,41.28 -123.62,99.68 0,61.3 45.53,102.25 113.44,102.25z"/>
  <path id="5" class="fil4" d="M8068.28 14970.03c-58.62,0 -96.99,-47.88 -96.99,-124.18 0,-76.41 38.37,-124.85 96.99,-124.85 59.41,0 99.01,49.79 99.01,124.85 0,75.07 -39.6,124.18 -99.01,124.18zm2.01 175.98c94.09,0 154.05,-54.03 154.05,-135.37l0 -333.94 -54.37 0 0 57.39 -1 0c-22.6,-39.71 -62.65,-63.32 -110.87,-63.32 -88.16,0 -145.1,68.25 -145.1,175.08 0,105.84 56.94,174.3 143.87,174.3 47.88,0 88.16,-24.16 109.08,-61.19l1.34 0 0 53.7c0,50.79 -35.69,84.91 -94.76,84.91 -42.51,0 -76.3,-20.7 -87.48,-51.8l-58.62 0c9.5,58.06 68.8,100.24 143.86,100.24z"/>
  <path id="6" class="fil4" d="M8435.11 14720.33c53.7,0 89.5,40.61 90.73,97.67l-185.15 0c3.58,-56.72 40.94,-97.67 94.42,-97.67zm89.5 199.58c-9.51,32.11 -41.4,54.04 -84.58,54.04 -61.3,0 -99.68,-42.85 -99.68,-108.07l0 -3.36 244.56 0 0 -21.59c0,-103.26 -56.72,-170.16 -148.79,-170.16 -94.09,0 -154.39,71.83 -154.39,177.66 0,107.17 59.29,175.08 156.96,175.08 74.4,0 132.12,-43.97 141.97,-103.6l-56.05 0z"/>
  <path id="7" class="fil4" d="M8642.19 15017.58l57.06 0 0 -213.68c0,-47.21 32.77,-82.56 77.97,-82.56 42.29,0 69.81,26.85 69.81,67.79l0 228.45 57.06 0 0 -216.7c0,-46.2 31.77,-79.54 76.96,-79.54 44.98,0 70.82,27.52 70.82,74.06l0 222.18 57.06 0 0 -235.38c0,-67.46 -43.63,-111.43 -111.09,-111.43 -47.89,0 -87.83,24.28 -106.84,64.89l-1.35 0c-14.76,-41.28 -49.11,-64.89 -95.65,-64.89 -45.98,0 -80.66,24.28 -96.77,60.3l-1.23 0 0 -54.37 -53.81 0 0 340.88z"/>
  <path id="8" class="fil4" d="M9598.83 14676.7l-57.06 0 0 200.26c0,58.06 -33.45,96.09 -88.83,96.09 -52.7,0 -78.65,-29.87 -78.65,-85.24l0 -211.11 -57.06 0 0 221.29c0,77.3 43.63,125.52 118.03,125.52 52.48,0 87.83,-22.04 108.19,-61.31l1.34 0 0 55.38 54.04 0 0 -340.88z"/>
  <path id="9" class="fil4" d="M9666.62 14770.79c0,46.54 29.54,77.3 89.5,92.74l59.96 15.44c38.38,10.18 52.47,23.27 52.47,47.55 0,30.76 -28.53,50.45 -74.73,50.45 -46.2,0 -73.05,-19.02 -79.32,-54.48l-57.05 0c5.93,60.3 58.06,101.02 132.79,101.02 79.65,0 135.7,-41.95 135.7,-101.36 0,-50.12 -24.94,-74.95 -93.75,-92.41l-52.8 -12.75c-38.71,-9.84 -56.72,-25.51 -56.72,-49.11 0,-29.87 27.52,-50.57 69.14,-50.57 41.95,0 68.58,20.36 72.49,53.14l54.37 0c-2.57,-57.72 -54.37,-99.68 -124.85,-99.68 -75.07,0 -127.2,41.62 -127.2,100.02z"/>
  <path id="10" class="fil4" d="M10264.81 14676.7l-57.06 0 0 200.26c0,58.06 -33.45,96.09 -88.83,96.09 -52.69,0 -78.64,-29.87 -78.64,-85.24l0 -211.11 -57.06 0 0 221.29c0,77.3 43.63,125.52 118.03,125.52 52.47,0 87.82,-22.04 108.18,-61.31l1.34 0 0 55.38 54.04 0 0 -340.88z"/>
  <path id="11" class="fil4" d="M10450.96 14974.96c-40.94,0 -68.13,-21.26 -68.13,-53.7 0,-32.11 26.18,-52.47 72.05,-55.38l91.18 -5.59 0 27.85c0,49.11 -41.4,86.82 -95.1,86.82zm-12.75 48.55c45.87,0 89.16,-25.62 109.41,-64.55l1.34 0 0 58.62 54.04 0 0 -235.61c0,-67.9 -50.46,-111.2 -130.45,-111.2 -80.54,0 -131.11,45.31 -135.03,104.27l55.04 0c7.28,-33.45 34.8,-54.04 78.76,-54.04 47.1,0 74.74,24.84 74.74,66.46l0 28.52 -97.67 5.6c-78.76,4.58 -123.62,41.28 -123.62,99.68 0,61.3 45.53,102.25 113.44,102.25zm56.38 -395.92l80.55 -98.34 -61.53 0 -68.91 98.34 49.89 0z"/>
  <path id="12" class="fil4" d="M10675.49 15017.58l57.06 0 0 -212.34c0,-48.21 28.86,-79.99 73.05,-79.99 13.76,0 25.95,1.57 30.54,3.25l0 -55.38c-4.59,-0.67 -13.2,-2.35 -22.93,-2.35 -40.05,0 -71.49,23.94 -82.68,61.64l-1.23 0 0 -55.71 -53.81 0 0 340.88z"/>
  <path id="13" class="fil4" d="M10885.25 15017.58l57.05 0 0 -340.88 -57.05 0 0 340.88zm28.53 -398.27c19.69,0 35.8,-16 35.8,-35.35 0,-19.69 -16.11,-35.35 -35.8,-35.35 -19.36,0 -35.36,15.66 -35.36,35.35 0,19.35 16,35.35 35.36,35.35z"/>
  <path id="14" class="fil4" d="M11160.68 15023.51c94.08,0 157.63,-67.91 157.63,-176.31 0,-108.86 -63.55,-176.43 -157.63,-176.43 -94.42,0 -157.97,67.57 -157.97,176.43 0,108.4 63.55,176.31 157.97,176.31zm0 -50.23c-60.3,0 -100.02,-45.87 -100.02,-126.08 0,-80.33 39.72,-126.2 100.02,-126.2 60.3,0 99.56,45.87 99.56,126.2 0,80.21 -39.26,126.08 -99.56,126.08z"/>
  <path id="15" class="fil4" d="M11507.37 14770.79c0,46.54 29.54,77.3 89.5,92.74l59.96 15.44c38.38,10.18 52.47,23.27 52.47,47.55 0,30.76 -28.53,50.45 -74.73,50.45 -46.2,0 -73.05,-19.02 -79.32,-54.48l-57.05 0c5.93,60.3 58.06,101.02 132.79,101.02 79.65,0 135.7,-41.95 135.7,-101.36 0,-50.12 -24.94,-74.95 -93.75,-92.41l-52.8 -12.75c-38.71,-9.84 -56.72,-25.51 -56.72,-49.11 0,-29.87 27.52,-50.57 69.14,-50.57 41.95,0 68.58,20.36 72.49,53.14l54.37 0c-2.57,-57.72 -54.37,-99.68 -124.85,-99.68 -75.07,0 -127.2,41.62 -127.2,100.02z"/>
  <path id="16" class="fil4" d="M11962.36 14720.33c53.7,0 89.5,40.61 90.73,97.67l-185.15 0c3.58,-56.72 40.94,-97.67 94.42,-97.67zm89.5 199.58c-9.51,32.11 -41.4,54.04 -84.58,54.04 -61.3,0 -99.68,-42.85 -99.68,-108.07l0 -3.36 244.56 0 0 -21.59c0,-103.26 -56.72,-170.16 -148.79,-170.16 -94.09,0 -154.39,71.83 -154.39,177.66 0,107.17 59.29,175.08 156.96,175.08 74.4,0 132.12,-43.97 141.97,-103.6l-56.05 0z"/>
  <path id="17" class="fil4" d="M12169.44 15017.58l57.06 0 0 -212.34c0,-48.21 28.86,-79.99 73.05,-79.99 13.76,0 25.95,1.57 30.54,3.25l0 -55.38c-4.59,-0.67 -13.2,-2.35 -22.93,-2.35 -40.05,0 -71.49,23.94 -82.68,61.64l-1.23 0 0 -55.71 -53.81 0 0 340.88z"/>
  <path id="18" class="fil4" d="M12482.12 14974.96c-40.94,0 -68.13,-21.26 -68.13,-53.7 0,-32.11 26.18,-52.47 72.05,-55.38l91.18 -5.59 0 27.85c0,49.11 -41.4,86.82 -95.1,86.82zm-12.75 48.55c45.87,0 89.16,-25.62 109.41,-64.55l1.34 0 0 58.62 54.04 0 0 -235.61c0,-67.9 -50.46,-111.2 -130.45,-111.2 -80.54,0 -131.11,45.31 -135.03,104.27l55.04 0c7.28,-33.45 34.8,-54.04 78.76,-54.04 47.1,0 74.74,24.84 74.74,66.46l0 28.52 -97.67 5.6c-78.76,4.58 -123.62,41.28 -123.62,99.68 0,61.3 45.53,102.25 113.44,102.25zm56.38 -395.92l80.55 -98.34 -61.53 0 -68.91 98.34 49.89 0z"/>
  <path id="19" class="fil4" d="M12754.87 15020.82c20.92,0 37.36,-16.33 37.36,-37.36 0,-20.92 -16.44,-37.37 -37.36,-37.37 -21.03,0 -37.37,16.45 -37.37,37.37 0,21.03 16.34,37.36 37.37,37.36z"/>
 </g>
</svg>
