<?xml version="1.0" encoding="UTF-8"?>
<!DOCTYPE svg PUBLIC "-//W3C//DTD SVG 1.1//EN" "http://www.w3.org/Graphics/SVG/1.1/DTD/svg11.dtd">
<!-- Creator: CorelDRAW 2018 (64 Bit) -->
<svg xmlns="http://www.w3.org/2000/svg" xml:space="preserve" width="210mm" height="297mm" version="1.1" style="shape-rendering:geometricPrecision; text-rendering:geometricPrecision; image-rendering:optimizeQuality; fill-rule:evenodd; clip-rule:evenodd"
viewBox="0 0 21000 29700"
 xmlns:xlink="http://www.w3.org/1999/xlink">
 <defs>
  <style type="text/css">
   <![CDATA[
    .str0 {stroke:#029EFF;stroke-width:35.27;stroke-miterlimit:22.9256}
    .fil0 {fill:#029EFF}
    .fil1 {fill:#FEFEFE;fill-rule:nonzero}
   ]]>
  </style>
 </defs>
 <g id="Camada_x0020_1">
  <metadata id="CorelCorpID_0Corel-Layer"/>
  <path class="fil0 str0" d="M10437.41 10982.69c-201.11,0 -364.13,-164.39 -364.13,-367.19 0,-202.8 163.02,-367.19 364.13,-367.19 201.11,0 364.12,164.39 364.12,367.19 0,202.8 -163.01,367.19 -364.12,367.19zm-20.86 -836.18l231.16 195.57 231.17 195.57 -150.93 263.57 -150.85 263.48 -283.52 -104.06 -283.6 -104.07 52.44 -299.64 52.35 -299.71 301.78 0 301.77 0 52.36 299.71 52.43 299.64 -283.59 104.07 -283.53 104.06 -150.85 -263.48 -150.92 -263.57 231.16 -195.57 231.17 -195.57z"/>
  <g>
   <path class="fil1" d="M10199.95 10699.28c-14.28,-13.24 -15.11,-35.57 -1.87,-49.85 13.24,-14.28 35.57,-15.11 49.85,-1.87l-47.98 51.72zm124.4 115.41l-124.4 -115.41 47.98 -51.72 124.4 115.41 3.94 47.4 -51.92 4.32zm51.92 -4.32l-23.6 30.6 -28.32 -26.28 51.92 -4.32zm260.72 -338.03l-260.72 338.03 -55.86 -43.08 260.72 -338.03 55.86 43.08zm-55.86 -43.08c11.89,-15.42 34.05,-18.28 49.47,-6.39 15.42,11.89 18.28,34.05 6.39,49.47l-55.86 -43.08z"/>
  </g>
 </g>
</svg>
