<?xml version="1.0" encoding="UTF-8"?>
<!DOCTYPE svg PUBLIC "-//W3C//DTD SVG 1.1//EN" "http://www.w3.org/Graphics/SVG/1.1/DTD/svg11.dtd">
<!-- Creator: CorelDRAW 2018 (64 Bit) -->
<svg xmlns="http://www.w3.org/2000/svg" xml:space="preserve" width="210mm" height="297mm" version="1.1" style="shape-rendering:geometricPrecision; text-rendering:geometricPrecision; image-rendering:optimizeQuality; fill-rule:evenodd; clip-rule:evenodd"
viewBox="0 0 21000 29700"
 xmlns:xlink="http://www.w3.org/1999/xlink">
 <defs>
  <style type="text/css">
   <![CDATA[
    .str3 {stroke:#0E0E0E;stroke-width:28.22;stroke-miterlimit:22.9256}
    .str0 {stroke:#0E0E0E;stroke-width:35.27;stroke-miterlimit:22.9256}
    .str2 {stroke:#373435;stroke-width:20;stroke-miterlimit:22.9256}
    .str4 {stroke:#029EFF;stroke-width:20;stroke-miterlimit:22.9256}
    .str1 {stroke:#0E0E0E;stroke-width:35.27;stroke-linecap:round;stroke-linejoin:round;stroke-miterlimit:22.9256}
    .fil0 {fill:none}
    .fil7 {fill:#F58634}
    .fil8 {fill:#029EFF}
    .fil1 {fill:#6F3BFA}
    .fil3 {fill:#F0F1F5}
    .fil2 {fill:#FEFEFE;fill-rule:nonzero}
    .fil4 {fill:#373435;fill-rule:nonzero}
    .fil5 {fill:#0E0E0E;fill-rule:nonzero}
    .fil6 {fill:#66686C;fill-rule:nonzero}
   ]]>
  </style>
   <clipPath id="id0">
    <path d="M8017.41 11042.54c-139.16,0 -251.96,-113.76 -251.96,-254.07 0,-140.32 112.8,-254.08 251.96,-254.08 139.14,0 251.94,113.76 251.94,254.08 0,140.31 -112.8,254.07 -251.94,254.07z"/>
   </clipPath>
    <clipPath id="id1">
     <path d="M8017.41 11042.54c-139.16,0 -251.96,-113.76 -251.96,-254.07 0,-140.32 112.8,-254.08 251.96,-254.08 139.14,0 251.94,113.76 251.94,254.08 0,140.31 -112.8,254.07 -251.94,254.07z"/>
    </clipPath>
    <clipPath id="id2">
     <path d="M8017.41 11042.54c-139.16,0 -251.96,-113.76 -251.96,-254.07 0,-140.32 112.8,-254.08 251.96,-254.08 139.14,0 251.94,113.76 251.94,254.08 0,140.31 -112.8,254.07 -251.94,254.07z"/>
    </clipPath>
 </defs>
 <g id="Camada_x0020_1">
  <metadata id="CorelCorpID_0Corel-Layer"/>
  <g>
  </g>
  <g style="clip-path:url(#id0)">
   <g>
   </g>
   <g style="clip-path:url(#id1)">
    <image id="Captura_x0020_de_x0020_Tela_x0020_2025-10-21_x0020_à_x0028_s_x0029__x0020_12.04.19.png" x="7470.58" y="-3088.09" width="7851.06" height="17159.85" xlink:href="modelo foto instagram_Images\modelo foto instagram_ImgID1.png"/>
   </g>
   <g style="clip-path:url(#id2)">
   </g>
  </g>
  <path class="fil0" d="M8017.41 11042.54c-139.16,0 -251.96,-113.76 -251.96,-254.07 0,-140.32 112.8,-254.08 251.96,-254.08 139.14,0 251.94,113.76 251.94,254.08 0,140.31 -112.8,254.07 -251.94,254.07z"/>
  <g>
   <ellipse class="fil1" cx="8014.81" cy="10786.96" rx="272.95" ry="275.24"/>
   <path class="fil2" d="M7851.64 10753.03l13.3 -5.6c2.38,5.37 5.32,9.46 8.83,12.28 3.5,2.81 8.1,4.53 13.78,5.15 5.69,0.62 11.67,-0.07 17.92,-2.06 5.55,-1.77 10.19,-4.16 13.91,-7.19 3.73,-3.04 6.15,-6.34 7.31,-9.92 1.16,-3.58 1.21,-7.09 0.14,-10.49 -1.08,-3.46 -3.02,-6.17 -5.83,-8.14 -2.82,-1.94 -6.8,-3.06 -11.96,-3.38 -3.31,-0.19 -10.4,0.08 -21.28,0.85 -10.89,0.77 -18.67,0.72 -23.4,-0.16 -6.12,-1.11 -11.1,-3.33 -14.95,-6.62 -3.87,-3.28 -6.6,-7.5 -8.2,-12.58 -1.76,-5.63 -1.82,-11.39 -0.19,-17.24 1.62,-5.89 5.05,-11.04 10.33,-15.5 5.25,-4.46 11.58,-7.87 18.99,-10.23 8.14,-2.59 15.75,-3.57 22.8,-2.89 7.05,0.65 13.07,3.02 18.03,7.12 4.97,4.07 8.59,9.34 10.89,15.76l-13.65 5.54c-2.93,-6.76 -7.12,-11.25 -12.57,-13.43 -5.45,-2.21 -12.41,-1.95 -20.86,0.74 -8.81,2.81 -14.73,6.48 -17.73,11.01 -3,4.54 -3.79,9.11 -2.35,13.7 1.24,3.98 3.7,6.8 7.35,8.48 3.62,1.66 11.76,1.99 24.43,0.91 12.68,-1.06 21.54,-1.29 26.56,-0.68 7.32,0.93 13.23,3.17 17.7,6.76 4.47,3.58 7.63,8.34 9.49,14.28 1.85,5.92 1.92,11.97 0.2,18.25 -1.71,6.29 -5.24,11.88 -10.6,16.76 -5.37,4.89 -11.96,8.59 -19.82,11.09 -9.94,3.17 -18.72,4.35 -26.34,3.57 -7.66,-0.77 -14.28,-3.49 -19.94,-8.16 -5.68,-4.64 -9.76,-10.64 -12.29,-17.98z"/>
   <path id="1" class="fil2" d="M8020.46 10738.42l-3.75 -11.95c-3.35,11.09 -10.32,18.31 -20.95,21.7 -4.68,1.49 -9.34,1.98 -13.98,1.47 -4.65,-0.53 -8.38,-1.84 -11.21,-3.95 -2.84,-2.14 -5.27,-5.05 -7.31,-8.78 -1.38,-2.52 -2.99,-6.66 -4.8,-12.45l-15.6 -49.75 13.53 -4.31 13.94 44.49c2.22,7.11 4.01,11.81 5.32,14.1 1.97,3.32 4.63,5.54 8.04,6.7 3.38,1.16 7.08,1.12 11.12,-0.17 4.05,-1.29 7.52,-3.54 10.4,-6.75 2.87,-3.21 4.49,-6.89 4.85,-10.94 0.33,-4.06 -0.56,-9.54 -2.71,-16.38l-13.47 -43 13.52 -4.31 25.2 80.41 -12.14 3.87z"/>
   <path id="2" class="fil2" d="M8102.75 10701.12c-3.67,5.91 -7.56,10.48 -11.64,13.74 -4.07,3.26 -8.77,5.72 -14.09,7.42 -8.76,2.79 -16.16,2.79 -22.23,-0.02 -6.06,-2.79 -10.14,-7.54 -12.23,-14.22 -1.23,-3.93 -1.46,-7.8 -0.71,-11.62 0.77,-3.83 2.3,-7.15 4.55,-10.03 2.27,-2.88 5.03,-5.41 8.32,-7.57 2.45,-1.54 6.26,-3.49 11.4,-5.88 10.51,-4.76 18.08,-8.9 22.66,-12.35 -0.54,-1.88 -0.88,-3.07 -1.03,-3.57 -1.73,-5.52 -4.23,-9.01 -7.51,-10.47 -4.42,-1.97 -10.04,-1.86 -16.85,0.31 -6.38,2.04 -10.74,4.67 -13.06,7.89 -2.34,3.22 -3.32,7.9 -2.98,14.1l-13.8 2.35c-0.58,-6.09 -0.05,-11.34 1.6,-15.74 1.67,-4.39 4.82,-8.35 9.44,-11.92 4.61,-3.55 10.39,-6.43 17.25,-8.62 6.81,-2.17 12.62,-3.14 17.4,-2.87 4.77,0.26 8.55,1.27 11.31,3.1 2.77,1.81 5.15,4.46 7.14,7.95 1.16,2.17 2.7,6.29 4.59,12.3l5.66 18.08c3.96,12.63 6.74,20.52 8.37,23.72 1.6,3.21 3.74,6.08 6.34,8.66l-14.13 4.5c-2.25,-2.44 -4.19,-5.51 -5.77,-9.24zm-10.54 -29.87c-4.29,3.58 -11.13,7.64 -20.53,12.16 -5.33,2.58 -8.99,4.74 -10.98,6.49 -1.99,1.74 -3.3,3.78 -3.95,6.08 -0.65,2.34 -0.62,4.69 0.13,7.06 1.12,3.6 3.43,6.19 6.92,7.71 3.49,1.53 7.87,1.47 13.12,-0.2 5.2,-1.66 9.47,-4.28 12.83,-7.87 3.34,-3.56 5.34,-7.64 6.01,-12.19 0.49,-3.54 -0.21,-8.29 -2.08,-14.26l-1.47 -4.98z"/>
   <polygon id="3" class="fil2" points="7922.58,10959.99 7887.82,10849.06 7962.04,10825.41 7966.12,10838.42 7906.5,10857.42 7917.32,10891.97 7968.95,10875.51 7973.03,10888.53 7921.4,10904.98 7937.18,10955.34 "/>
   <path id="4" class="fil2" d="M7996.3 10892.27c-4.65,-14.84 -3.99,-27.15 1.98,-36.93 4.98,-8.11 12.42,-13.75 22.28,-16.89 10.94,-3.49 21.03,-2.72 30.26,2.28 9.2,5 15.81,13.88 19.8,26.61 3.24,10.33 4.25,18.93 3.03,25.82 -1.22,6.89 -4.27,12.92 -9.13,18.08 -4.83,5.14 -10.75,8.82 -17.69,11.04 -11.17,3.55 -21.31,2.83 -30.45,-2.17 -9.15,-5.02 -15.84,-14.31 -20.08,-27.84zm13.85 -4.38c3.22,10.28 7.85,17.27 13.9,20.93 6.08,3.69 12.49,4.46 19.28,2.3 6.71,-2.14 11.49,-6.47 14.36,-13.04 2.85,-6.56 2.63,-15.1 -0.67,-25.61 -3.1,-9.91 -7.71,-16.71 -13.78,-20.36 -6.09,-3.7 -12.48,-4.47 -19.14,-2.35 -6.79,2.16 -11.6,6.49 -14.49,13 -2.86,6.51 -2.68,14.88 0.54,25.13z"/>
   <path id="5" class="fil2" d="M8124.96 10882.12l5.62 11.44c-3.54,2.01 -6.82,3.52 -9.79,4.46 -4.88,1.56 -8.92,1.99 -12.13,1.28 -3.19,-0.72 -5.72,-2.15 -7.62,-4.36 -1.9,-2.2 -4.12,-7.4 -6.69,-15.59l-14.51 -46.32 -9.99 3.18 -3.3 -10.54 9.98 -3.18 -6.23 -19.89 10.96 -12.49 8.79 28.07 13.53 -4.31 3.3 10.54 -13.52 4.31 14.75 47.09c1.23,3.9 2.24,6.34 3.08,7.29 0.81,0.97 1.85,1.6 3.14,1.92 1.27,0.31 2.92,0.15 4.91,-0.48 1.49,-0.47 3.41,-1.29 5.72,-2.42z"/>
   <path id="6" class="fil2" d="M8124.45 10851.44c-4.65,-14.85 -4,-27.15 1.98,-36.93 4.97,-8.12 12.41,-13.75 22.27,-16.89 10.94,-3.49 21.03,-2.73 30.26,2.28 9.2,5 15.82,13.88 19.8,26.61 3.24,10.33 4.25,18.93 3.03,25.82 -1.22,6.89 -4.26,12.91 -9.12,18.07 -4.84,5.15 -10.76,8.83 -17.7,11.04 -11.17,3.56 -21.3,2.84 -30.44,-2.17 -9.16,-5.01 -15.84,-14.3 -20.08,-27.83zm13.84 -4.38c3.22,10.28 7.86,17.26 13.9,20.93 6.09,3.69 12.5,4.46 19.29,2.3 6.71,-2.14 11.49,-6.48 14.36,-13.05 2.84,-6.55 2.62,-15.09 -0.67,-25.6 -3.11,-9.92 -7.72,-16.71 -13.79,-20.37 -6.09,-3.69 -12.48,-4.47 -19.13,-2.34 -6.79,2.16 -11.6,6.48 -14.49,12.99 -2.86,6.51 -2.68,14.89 0.53,25.14z"/>
  </g>
  <path class="fil0 str0" d="M7993.34 18706.42c-240.35,-149 -101.95,-343.06 9.65,-271.71 37.33,23.87 11.27,25.66 47.63,0.58 111.8,-77.15 252.69,117.68 11.85,270.5 -33.15,21.03 -39.1,19.25 -69.13,0.63z"/>
  <g>
   <path class="fil0 str1" d="M9990.61 18413.29l0 86.29 82.92 0m228.55 6.44c-66.89,-137.93 -225.79,-135.42 -311.47,-6.44"/>
   <path class="fil0 str1" d="M10310.11 18716.22l0 -86.29 -82.91 0m-228.55 -6.44c66.89,137.93 225.79,135.42 311.46,6.44"/>
  </g>
  <path class="fil0 str0" d="M9084.64 18732.34c-89.23,0 -161.57,-72.95 -161.57,-162.93 0,-89.99 72.34,-162.93 161.57,-162.93 89.24,0 161.57,72.94 161.57,162.93 0,26.08 -6.08,50.71 -16.88,72.57l10.86 62.52c3.01,17.35 -6.18,21.22 -17.3,19.83l-67.42 -8.45c-21.39,10.54 -45.42,16.46 -70.83,16.46z"/>
  <path class="fil0 str0" d="M11067.86 18564.8c0.79,25.8 -23.47,61.27 -24.04,93.25 -0.83,46.41 24.92,79.18 68.69,58.96l222.59 -127.15c24.4,-12.93 24.6,-35.15 0,-50.12l-222.59 -127.16c-43.77,-20.21 -69.52,12.56 -68.69,58.96 0.57,31.98 24.83,67.45 24.04,93.26zm0 0l285.61 0"/>
  <rect class="fil0 str2" x="7250" y="10378.94" width="6500.01" height="8999.99" rx="371.43" ry="358.03"/>
  <rect class="fil3 str2" x="11465.42" y="10578.08" width="1289.87" height="430.54" rx="207.15" ry="154.49"/>
  <path class="fil4" d="M11713.92 10769.37c11.98,0 19.64,9.57 19.64,24.74 0,15.17 -7.75,24.82 -19.79,24.82 -11.53,0 -18.58,-9.38 -18.58,-24.82 0,-15.53 6.96,-24.74 18.73,-24.74zm3.1 -49.68c-42.76,0 -72.66,29.7 -72.66,73.96 0,47.72 31.23,74.09 74.15,74.09 11.36,0 21.89,-1.6 29.64,-4.36l0 -11.17c-5.71,2.57 -17.69,4.24 -29.46,4.24 -35.36,0 -61.94,-22.08 -61.94,-62.25 0,-37.09 24.89,-63.34 59.13,-63.34 35,0 59.29,21.74 59.29,53.92 0,22.98 -7.75,35.94 -18.22,35.94 -6.76,0 -9.94,-4.09 -9.94,-9.84l0 -52.08 -13.27 0 0 10.81 -0.72 0c-3.33,-7.54 -11.86,-12.5 -21.29,-12.5 -18.02,0 -30.59,15.08 -30.59,36.63 0,22.53 12.31,37.7 30.59,37.7 10.39,0 18.56,-5.15 22.34,-14.11l0.72 0c1.05,8.87 9.67,14.93 19.69,14.93 20.6,0 33.09,-18.9 33.09,-47.3 0,-39.11 -29.66,-65.27 -70.55,-65.27z"/>
  <path id="1" class="fil4" d="M11804 10846.97l15.31 0 0 -92.25 -15.31 0 0 92.25zm7.65 -107.78c5.29,0 9.61,-4.33 9.61,-9.57 0,-5.33 -4.32,-9.57 -9.61,-9.57 -5.2,0 -9.49,4.24 -9.49,9.57 0,5.24 4.29,9.57 9.49,9.57z"/>
  <path id="2" class="fil4" d="M11839.99 10846.97l15.31 0 0 -57.83c0,-12.78 8.8,-22.34 20.94,-22.34 11.34,0 18.73,7.26 18.73,18.35l0 61.82 15.31 0 0 -58.65c0,-12.5 8.53,-21.52 20.66,-21.52 12.07,0 19,7.45 19,20.04l0 60.13 15.32 0 0 -63.7c0,-18.26 -11.71,-30.16 -29.82,-30.16 -12.85,0 -23.57,6.57 -28.67,17.56l-0.37 0c-3.95,-11.17 -13.17,-17.56 -25.66,-17.56 -12.35,0 -21.65,6.57 -25.97,16.32l-0.34 0 0 -14.71 -14.44 0 0 92.25z"/>
  <path id="3" class="fil4" d="M12014.85 10835.43c-10.99,0 -18.28,-5.75 -18.28,-14.53 0,-8.69 7.03,-14.2 19.33,-14.99l24.47 -1.51 0 7.54c0,13.29 -11.11,23.49 -25.52,23.49zm-3.42 13.14c12.31,0 23.93,-6.93 29.36,-17.46l0.36 0 0 15.86 14.51 0 0 -63.76c0,-18.38 -13.55,-30.1 -35.02,-30.1 -21.61,0 -35.18,12.26 -36.23,28.22l14.77 0c1.95,-9.05 9.34,-14.62 21.14,-14.62 12.64,0 20.05,6.72 20.05,17.98l0 7.72 -26.21 1.52c-21.13,1.24 -33.17,11.17 -33.17,26.97 0,16.59 12.21,27.67 30.44,27.67z"/>
  <path id="4" class="fil4" d="M12075.11 10846.97l15.31 0 0 -54.29c0,-15.62 9.4,-25.88 23.84,-25.88 14.08,0 21.02,8.14 21.02,23.04l0 57.13 15.31 0 0 -59.89c0,-20.92 -11.62,-33.97 -31.67,-33.97 -14.18,0 -23.94,6.39 -29.04,16.32l-0.34 0 0 -14.71 -14.43 0 0 92.25z"/>
  <path id="5" class="fil4" d="M12174.94 10732.46l0 22.26 -13.64 0 0 12.68 13.64 0 0 55.62c0,17.74 6.51,24.65 23.29,24.65 3.64,0 7.83,-0.25 9.7,-0.7l0 -12.96c-1.05,0.18 -4.59,0.46 -6.34,0.46 -7.83,0 -11.34,-3.82 -11.34,-12.24l0 -54.83 17.77 0 0 -12.68 -17.77 0 0 -22.26 -15.31 0z"/>
  <path id="6" class="fil4" d="M12252.69 10835.43c-10.99,0 -18.28,-5.75 -18.28,-14.53 0,-8.69 7.03,-14.2 19.33,-14.99l24.47 -1.51 0 7.54c0,13.29 -11.11,23.49 -25.52,23.49zm-3.42 13.14c12.31,0 23.93,-6.93 29.36,-17.46l0.36 0 0 15.86 14.51 0 0 -63.76c0,-18.38 -13.55,-30.1 -35.02,-30.1 -21.61,0 -35.18,12.26 -36.23,28.22l14.77 0c1.95,-9.05 9.34,-14.62 21.14,-14.62 12.64,0 20.05,6.72 20.05,17.98l0 7.72 -26.21 1.52c-21.13,1.24 -33.17,11.17 -33.17,26.97 0,16.59 12.21,27.67 30.44,27.67z"/>
  <path id="7" class="fil4" d="M12347.59 10848.57c13.21,0 23.67,-6.57 29.58,-17.22l0.27 0 0 15.62 14.59 0 0 -128.01 -15.31 0 0 50.74 -0.36 0c-5.43,-10.11 -16,-16.59 -29.09,-16.59 -23.06,0 -38.8,18.8 -38.8,47.75 0,28.91 15.83,47.71 39.12,47.71zm2.92 -81.86c15.73,0 26.3,13.56 26.3,34.15 0,20.65 -10.57,34.12 -26.3,34.12 -16.18,0 -26.4,-13.2 -26.4,-34.12 0,-20.86 10.22,-34.15 26.4,-34.15z"/>
  <path id="8" class="fil4" d="M12450.61 10848.57c25.25,0 42.3,-18.37 42.3,-47.71 0,-29.46 -17.05,-47.75 -42.3,-47.75 -25.34,0 -42.4,18.29 -42.4,47.75 0,29.34 17.06,47.71 42.4,47.71zm0 -13.59c-16.19,0 -26.85,-12.41 -26.85,-34.12 0,-21.74 10.66,-34.15 26.85,-34.15 16.18,0 26.72,12.41 26.72,34.15 0,21.71 -10.54,34.12 -26.72,34.12z"/>
  <path id="9" class="fil4" d="M12506.73 10780.18c0,12.59 7.92,20.92 24.01,25.1l16.1 4.18c10.29,2.75 14.08,6.29 14.08,12.86 0,8.33 -7.66,13.66 -20.06,13.66 -12.4,0 -19.61,-5.15 -21.28,-14.75l-15.32 0c1.59,16.32 15.59,27.34 35.64,27.34 21.38,0 36.42,-11.35 36.42,-27.43 0,-13.56 -6.69,-20.28 -25.16,-25l-14.17 -3.46c-10.39,-2.66 -15.22,-6.9 -15.22,-13.29 0,-8.08 7.38,-13.68 18.55,-13.68 11.26,0 18.41,5.51 19.46,14.38l14.59 0c-0.7,-15.62 -14.59,-26.98 -33.51,-26.98 -20.14,0 -34.13,11.27 -34.13,27.07z"/>
  <path class="fil4" d="M12946.3 10815.94c12.55,0 22.4,-9.87 22.4,-22.59 0,-12.64 -9.85,-22.59 -22.4,-22.59 -12.6,0 -22.39,9.95 -22.39,22.59 0,12.72 9.79,22.59 22.39,22.59z"/>
  <path id="1" class="fil4" d="M13048.44 10815.94c12.55,0 22.41,-9.87 22.41,-22.59 0,-12.64 -9.86,-22.59 -22.41,-22.59 -12.6,0 -22.39,9.95 -22.39,22.59 0,12.72 9.79,22.59 22.39,22.59z"/>
  <path id="2" class="fil4" d="M13150.58 10815.94c12.55,0 22.41,-9.87 22.41,-22.59 0,-12.64 -9.86,-22.59 -22.41,-22.59 -12.6,0 -22.39,9.95 -22.39,22.59 0,12.72 9.79,22.59 22.39,22.59z"/>
  <polygon class="fil5" points="8036.64,19045.88 8036.64,18917.87 8018.27,18917.87 7974.46,19024.69 7973.74,19024.69 7929.93,18917.87 7911.55,18917.87 7911.55,19045.88 7926.33,19045.88 7926.33,18947.24 7926.97,18947.24 7967.43,19045 7980.79,19045 8021.23,18947.24 8021.87,18947.24 8021.87,19045.88 "/>
  <path id="1" class="fil5" d="M8095.58 18965.43c14.41,0 24.02,11 24.34,26.44l-49.68 0c0.96,-15.35 10.99,-26.44 25.34,-26.44zm24.02 54.02c-2.55,8.69 -11.11,14.62 -22.7,14.62 -16.46,0 -26.75,-11.59 -26.75,-29.25l0 -0.9 65.63 0 0 -5.85c0,-27.94 -15.22,-46.05 -39.93,-46.05 -25.25,0 -41.44,19.44 -41.44,48.08 0,29.01 15.92,47.38 42.13,47.38 19.96,0 35.46,-11.89 38.1,-28.03l-15.04 0z"/>
  <path id="2" class="fil5" d="M8151.15 19045.88l15.31 0 0 -54.29c0,-15.62 9.4,-25.88 23.84,-25.88 14.08,0 21.02,8.14 21.02,23.04l0 57.13 15.32 0 0 -59.89c0,-20.92 -11.63,-33.97 -31.68,-33.97 -14.18,0 -23.94,6.39 -29.03,16.32l-0.34 0 0 -14.71 -14.44 0 0 92.25z"/>
  <path id="3" class="fil5" d="M8244.47 18979.09c0,12.59 7.92,20.92 24.01,25.1l16.1 4.18c10.29,2.75 14.08,6.29 14.08,12.86 0,8.33 -7.66,13.66 -20.06,13.66 -12.4,0 -19.61,-5.15 -21.28,-14.75l-15.32 0c1.59,16.32 15.58,27.34 35.64,27.34 21.38,0 36.42,-11.35 36.42,-27.43 0,-13.56 -6.69,-20.28 -25.16,-25l-14.17 -3.46c-10.39,-2.66 -15.22,-6.9 -15.22,-13.29 0,-8.08 7.38,-13.68 18.55,-13.68 11.26,0 18.41,5.51 19.46,14.38l14.59 0c-0.7,-15.62 -14.59,-26.98 -33.51,-26.98 -20.14,0 -34.13,11.27 -34.13,27.07z"/>
  <path id="4" class="fil5" d="M8360.05 19034.34c-10.98,0 -18.28,-5.75 -18.28,-14.53 0,-8.69 7.03,-14.2 19.33,-14.99l24.47 -1.51 0 7.54c0,13.29 -11.11,23.49 -25.52,23.49zm-3.42 13.14c12.31,0 23.93,-6.93 29.37,-17.46l0.35 0 0 15.86 14.51 0 0 -63.76c0,-18.38 -13.55,-30.1 -35.02,-30.1 -21.61,0 -35.18,12.26 -36.23,28.22l14.78 0c1.94,-9.05 9.33,-14.62 21.13,-14.62 12.64,0 20.05,6.72 20.05,17.98l0 7.72 -26.21 1.52c-21.13,1.24 -33.17,11.17 -33.17,26.97 0,16.59 12.22,27.67 30.44,27.67z"/>
  <path id="5" class="fil5" d="M8457.5 19033.01c-15.72,0 -26.03,-12.96 -26.03,-33.6 0,-20.68 10.31,-33.79 26.03,-33.79 15.95,0 26.58,13.47 26.58,33.79 0,20.31 -10.63,33.6 -26.58,33.6zm0.55 47.63c25.25,0 41.34,-14.63 41.34,-36.64l0 -90.37 -14.59 0 0 15.53 -0.27 0c-6.06,-10.75 -16.81,-17.14 -29.75,-17.14 -23.66,0 -38.95,18.47 -38.95,47.39 0,28.64 15.29,47.17 38.62,47.17 12.84,0 23.65,-6.54 29.27,-16.56l0.36 0 0 14.53c0,13.74 -9.58,22.98 -25.44,22.98 -11.4,0 -20.46,-5.6 -23.47,-14.02l-15.74 0c2.56,15.71 18.47,27.13 38.62,27.13z"/>
  <path id="6" class="fil5" d="M8555.96 18965.43c14.4,0 24.01,11 24.34,26.44l-49.68 0c0.96,-15.35 10.99,-26.44 25.34,-26.44zm24.01 54.02c-2.54,8.69 -11.1,14.62 -22.7,14.62 -16.45,0 -26.74,-11.59 -26.74,-29.25l0 -0.9 65.63 0 0 -5.85c0,-27.94 -15.22,-46.05 -39.94,-46.05 -25.24,0 -41.43,19.44 -41.43,48.08 0,29.01 15.92,47.38 42.13,47.38 19.96,0 35.46,-11.89 38.1,-28.03l-15.05 0z"/>
  <path id="7" class="fil5" d="M8611.53 19045.88l15.31 0 0 -57.83c0,-12.78 8.8,-22.34 20.93,-22.34 11.35,0 18.74,7.26 18.74,18.35l0 61.82 15.31 0 0 -58.65c0,-12.5 8.53,-21.52 20.65,-21.52 12.07,0 19,7.45 19,20.04l0 60.13 15.33 0 0 -63.7c0,-18.26 -11.72,-30.16 -29.82,-30.16 -12.86,0 -23.58,6.57 -28.67,17.56l-0.37 0c-3.96,-11.17 -13.18,-17.56 -25.66,-17.56 -12.35,0 -21.65,6.57 -25.98,16.32l-0.33 0 0 -14.71 -14.44 0 0 92.25z"/>
  <path id="8" class="fil5" d="M8827.79 19047.48c13.21,0 23.66,-6.57 29.57,-17.22l0.28 0 0 15.62 14.59 0 0 -128.01 -15.31 0 0 50.74 -0.36 0c-5.44,-10.11 -16.01,-16.59 -29.1,-16.59 -23.05,0 -38.79,18.8 -38.79,47.75 0,28.91 15.83,47.71 39.12,47.71zm2.92 -81.86c15.72,0 26.29,13.56 26.29,34.15 0,20.65 -10.57,34.12 -26.29,34.12 -16.19,0 -26.4,-13.2 -26.4,-34.12 0,-20.86 10.21,-34.15 26.4,-34.15z"/>
  <path id="9" class="fil5" d="M8930.8 19047.48c25.25,0 42.31,-18.37 42.31,-47.71 0,-29.46 -17.06,-47.75 -42.31,-47.75 -25.33,0 -42.39,18.29 -42.39,47.75 0,29.34 17.06,47.71 42.39,47.71zm0 -13.59c-16.18,0 -26.84,-12.41 -26.84,-34.12 0,-21.74 10.66,-34.15 26.84,-34.15 16.19,0 26.73,12.41 26.73,34.15 0,21.71 -10.54,34.12 -26.73,34.12z"/>
  <path id="10" class="fil5" d="M9080.05 19048c28.07,0 46.9,-14.11 52.7,-39.36l-16.01 0c-4.56,15.59 -17.95,24.64 -36.59,24.64 -25.08,0 -40.99,-20.04 -40.99,-51.44 0,-31.15 16.1,-51.37 40.89,-51.37 18.14,0 32.64,11.02 36.69,27.76l16.01 0c-4.03,-25.52 -25.07,-42.48 -52.7,-42.48 -34.74,0 -57.16,25.92 -57.16,66.09 0,40.55 22.15,66.16 57.16,66.16z"/>
  <polygon id="11" class="fil5" points="9149.8,19045.88 9165.11,19045.88 9165.11,18917.87 9149.8,18917.87 "/>
  <path id="12" class="fil5" d="M9186.58 19045.88l15.31 0 0 -92.25 -15.31 0 0 92.25zm7.66 -107.78c5.28,0 9.61,-4.33 9.61,-9.57 0,-5.33 -4.33,-9.57 -9.61,-9.57 -5.2,0 -9.49,4.24 -9.49,9.57 0,5.24 4.29,9.57 9.49,9.57z"/>
  <path id="13" class="fil5" d="M9259.27 18965.43c14.41,0 24.02,11 24.35,26.44l-49.69 0c0.97,-15.35 10.99,-26.44 25.34,-26.44zm24.02 54.02c-2.55,8.69 -11.11,14.62 -22.7,14.62 -16.45,0 -26.74,-11.59 -26.74,-29.25l0 -0.9 65.62 0 0 -5.85c0,-27.94 -15.22,-46.05 -39.93,-46.05 -25.25,0 -41.43,19.44 -41.43,48.08 0,29.01 15.91,47.38 42.12,47.38 19.97,0 35.47,-11.89 38.1,-28.03l-15.04 0z"/>
  <path id="14" class="fil5" d="M9314.84 19045.88l15.32 0 0 -54.29c0,-15.62 9.4,-25.88 23.83,-25.88 14.09,0 21.03,8.14 21.03,23.04l0 57.13 15.31 0 0 -59.89c0,-20.92 -11.62,-33.97 -31.67,-33.97 -14.18,0 -23.94,6.39 -29.04,16.32l-0.34 0 0 -14.71 -14.44 0 0 92.25z"/>
  <path id="15" class="fil5" d="M9414.67 18931.37l0 22.26 -13.63 0 0 12.68 13.63 0 0 55.62c0,17.74 6.52,24.65 23.3,24.65 3.64,0 7.83,-0.25 9.7,-0.7l0 -12.96c-1.05,0.18 -4.59,0.46 -6.34,0.46 -7.83,0 -11.34,-3.82 -11.34,-12.24l0 -54.83 17.77 0 0 -12.68 -17.77 0 0 -22.26 -15.32 0z"/>
  <path id="16" class="fil5" d="M9498.08 18965.43c14.41,0 24.02,11 24.35,26.44l-49.68 0c0.96,-15.35 10.98,-26.44 25.33,-26.44zm24.02 54.02c-2.55,8.69 -11.11,14.62 -22.7,14.62 -16.45,0 -26.74,-11.59 -26.74,-29.25l0 -0.9 65.63 0 0 -5.85c0,-27.94 -15.23,-46.05 -39.94,-46.05 -25.25,0 -41.43,19.44 -41.43,48.08 0,29.01 15.92,47.38 42.13,47.38 19.96,0 35.46,-11.89 38.09,-28.03l-15.04 0z"/>
  <path id="17" class="fil5" d="M9620.76 19034.34c-10.99,0 -18.28,-5.75 -18.28,-14.53 0,-8.69 7.03,-14.2 19.33,-14.99l24.47 -1.51 0 7.54c0,13.29 -11.11,23.49 -25.52,23.49zm-3.42 13.14c12.31,0 23.93,-6.93 29.36,-17.46l0.36 0 0 15.86 14.51 0 0 -63.76c0,-18.38 -13.55,-30.1 -35.02,-30.1 -21.62,0 -35.18,12.26 -36.23,28.22l14.77 0c1.95,-9.05 9.33,-14.62 21.14,-14.62 12.64,0 20.05,6.72 20.05,17.98l0 7.72 -26.21 1.52c-21.13,1.24 -33.17,11.17 -33.17,26.97 0,16.59 12.21,27.67 30.44,27.67z"/>
  <path id="18" class="fil5" d="M9715.49 18952.02c-23.49,0 -38.95,18.74 -38.95,47.75 0,28.91 15.46,47.71 38.62,47.71 12.91,0 23.56,-6.47 29.27,-17.04l0.36 0 0 46.23 15.31 0 0 -123.04 -14.59 0 0 15.62 -0.36 0c-5.88,-10.66 -16.37,-17.23 -29.66,-17.23zm2.72 81.87c-15.99,0 -26.03,-13.11 -26.03,-34.12 0,-21.13 10.04,-34.15 26.03,-34.15 15.68,0 26.58,13.56 26.58,34.15 0,20.56 -10.9,34.12 -26.58,34.12z"/>
  <path id="19" class="fil5" d="M9855.09 18953.63l-15.31 0 0 54.19c0,15.72 -8.97,26.01 -23.84,26.01 -14.14,0 -21.1,-8.08 -21.1,-23.07l0 -57.13 -15.31 0 0 59.88c0,20.93 11.71,33.97 31.67,33.97 14.08,0 23.57,-5.96 29.04,-16.59l0.35 0 0 14.99 14.5 0 0 -92.25z"/>
  <path id="20" class="fil5" d="M9875.66 19045.88l15.31 0 0 -92.25 -15.31 0 0 92.25zm7.65 -107.78c5.29,0 9.61,-4.33 9.61,-9.57 0,-5.33 -4.32,-9.57 -9.61,-9.57 -5.19,0 -9.49,4.24 -9.49,9.57 0,5.24 4.3,9.57 9.49,9.57z"/>
  <path id="21" class="fil5" d="M9924.6 19046.76c5.61,0 10.02,-4.42 10.02,-10.11 0,-5.67 -4.41,-10.12 -10.02,-10.12 -5.65,0 -10.03,4.45 -10.03,10.12 0,5.69 4.38,10.11 10.03,10.11z"/>
  <path id="22" class="fil5" d="M9970.32 19046.76c5.61,0 10.03,-4.42 10.03,-10.11 0,-5.67 -4.42,-10.12 -10.03,-10.12 -5.64,0 -10.02,4.45 -10.02,10.12 0,5.69 4.38,10.11 10.02,10.11z"/>
  <path id="23" class="fil5" d="M10016.05 19046.76c5.61,0 10.02,-4.42 10.02,-10.11 0,-5.67 -4.41,-10.12 -10.02,-10.12 -5.64,0 -10.03,4.45 -10.03,10.12 0,5.69 4.39,10.11 10.03,10.11z"/>
  <path id="24" class="fil5" d="M10061.77 19046.76c5.62,0 10.03,-4.42 10.03,-10.11 0,-5.67 -4.41,-10.12 -10.03,-10.12 -5.64,0 -10.02,4.45 -10.02,10.12 0,5.69 4.38,10.11 10.02,10.11z"/>
  <path class="fil6" d="M12495.97 19047.07c7.63,0 13.63,-6.01 13.63,-13.74 0,-7.7 -6,-13.75 -13.63,-13.75 -7.68,0 -13.63,6.05 -13.63,13.75 0,7.73 5.95,13.74 13.63,13.74z"/>
  <path id="1" class="fil6" d="M12558.13 19047.07c7.63,0 13.63,-6.01 13.63,-13.74 0,-7.7 -6,-13.75 -13.63,-13.75 -7.68,0 -13.63,6.05 -13.63,13.75 0,7.73 5.95,13.74 13.63,13.74z"/>
  <path id="2" class="fil6" d="M12620.28 19047.07c7.64,0 13.64,-6.01 13.64,-13.74 0,-7.7 -6,-13.75 -13.64,-13.75 -7.67,0 -13.62,6.05 -13.62,13.75 0,7.73 5.95,13.74 13.62,13.74z"/>
  <path id="3" class="fil6" d="M12664.85 19045.88l20.81 0 0 -78.61c0,-17.37 11.96,-30.37 28.45,-30.37 15.43,0 25.47,9.87 25.47,24.94l0 84.04 20.82 0 0 -79.72c0,-17 11.59,-29.26 28.08,-29.26 16.4,0 25.83,10.12 25.83,27.24l0 81.74 20.82 0 0 -86.59c0,-24.82 -15.92,-41 -40.53,-41 -17.48,0 -32.04,8.94 -38.97,23.88l-0.5 0c-5.39,-15.19 -17.92,-23.88 -34.9,-23.88 -16.77,0 -29.42,8.94 -35.3,22.19l-0.45 0 0 -20 -19.63 0 0 125.4z"/>
  <path id="4" class="fil6" d="M12902.55 19030.2c-14.94,0 -24.86,-7.82 -24.86,-19.76 0,-11.81 9.55,-19.3 26.29,-20.37l33.26 -2.06 0 10.25c0,18.07 -15.1,31.94 -34.69,31.94zm-4.66 17.86c16.74,0 32.54,-9.42 39.91,-23.75l0.5 0 0 21.57 19.71 0 0 -86.68c0,-24.98 -18.4,-40.91 -47.59,-40.91 -29.38,0 -47.83,16.67 -49.26,38.36l20.08 0c2.66,-12.3 12.69,-19.88 28.74,-19.88 17.17,0 27.26,9.14 27.26,24.45l0 10.5 -35.63 2.05c-28.74,1.69 -45.1,15.19 -45.1,36.67 0,22.56 16.61,37.62 41.38,37.62z"/>
  <path id="5" class="fil6" d="M12985.51 19045.88l20.82 0 0 -125.4 -20.82 0 0 125.4zm10.41 -146.52c7.18,0 13.06,-5.88 13.06,-13 0,-7.25 -5.88,-13.01 -13.06,-13.01 -7.06,0 -12.9,5.76 -12.9,13.01 0,7.12 5.84,13 12.9,13z"/>
  <path id="6" class="fil6" d="M13032.29 18955.09c0,17.12 10.78,28.44 32.65,34.12l21.88 5.68c13.99,3.74 19.14,8.56 19.14,17.49 0,11.32 -10.41,18.56 -27.26,18.56 -16.86,0 -26.66,-7 -28.94,-20.04l-20.81 0c2.16,22.18 21.18,37.16 48.44,37.16 29.06,0 49.5,-15.43 49.5,-37.29 0,-18.43 -9.1,-27.57 -34.2,-33.99l-19.26 -4.69c-14.12,-3.63 -20.69,-9.39 -20.69,-18.07 0,-10.99 10.04,-18.6 25.22,-18.6 15.31,0 25.01,7.49 26.45,19.54l19.84 0c-0.95,-21.23 -19.84,-36.67 -45.55,-36.67 -27.39,0 -46.41,15.31 -46.41,36.8z"/>
  <path class="fil0 str3" d="M12880.25 18405.44c-23.1,0 -35.32,11.36 -35.32,36.28l0 282.43 125.06 -89.3 125.05 89.3 0 -282.43c0,-24.92 -12.22,-36.28 -35.32,-36.28l-179.47 0z"/>
  <rect class="fil7 str2" x="7691.4" y="11133.93" width="5617.21" height="7106.32" rx="306.39" ry="309.38"/>
  <path class="fil5" d="M8505.41 10780.73c15.93,0 26.11,12.72 26.11,32.9 0,20.17 -10.3,33.01 -26.31,33.01 -15.33,0 -24.72,-12.48 -24.72,-33.01 0,-20.66 9.27,-32.9 24.92,-32.9zm4.11 -66.07c-56.86,0 -96.62,39.5 -96.62,98.36 0,63.46 41.52,98.53 98.62,98.53 15.09,0 29.1,-2.13 39.4,-5.8l0 -14.85c-7.58,3.42 -23.51,5.63 -39.17,5.63 -47.03,0 -82.36,-29.35 -82.36,-82.78 0,-49.33 33.1,-84.24 78.62,-84.24 46.55,0 78.85,28.91 78.85,71.72 0,30.56 -10.3,47.79 -24.23,47.79 -8.99,0 -13.22,-5.44 -13.22,-13.09l0 -69.25 -17.65 0 0 14.37 -0.96 0c-4.43,-10.02 -15.77,-16.63 -28.31,-16.63 -23.96,0 -40.69,20.06 -40.69,48.72 0,29.96 16.38,50.13 40.69,50.13 13.82,0 24.67,-6.84 29.71,-18.76l0.95 0c1.4,11.8 12.87,19.85 26.2,19.85 27.39,0 44,-25.12 44,-62.89 0,-52.03 -39.44,-86.81 -93.83,-86.81z"/>
  <polygon id="1" class="fil5" points="8648.16,10883.93 8648.16,10750.73 8649.19,10750.73 8741.59,10883.93 8762.07,10883.93 8762.07,10713.69 8741.26,10713.69 8741.26,10847.37 8740.19,10847.37 8647.79,10713.69 8627.31,10713.69 8627.31,10883.93 "/>
  <path id="2" class="fil5" d="M8842.09 10886.06c33.58,0 56.26,-24.44 56.26,-63.45 0,-39.18 -22.68,-63.5 -56.26,-63.5 -33.7,0 -56.38,24.32 -56.38,63.5 0,39.01 22.68,63.45 56.38,63.45zm0 -18.07c-21.52,0 -35.69,-16.51 -35.69,-45.38 0,-28.91 14.17,-45.42 35.69,-45.42 21.53,0 35.54,16.51 35.54,45.42 0,28.87 -14.01,45.38 -35.54,45.38z"/>
  <path id="3" class="fil5" d="M8918.83 10883.93l20.36 0 0 -76.91c0,-16.99 11.7,-29.71 27.84,-29.71 15.09,0 24.91,9.66 24.91,24.4l0 82.22 20.37 0 0 -77.99c0,-16.63 11.33,-28.63 27.46,-28.63 16.06,0 25.28,9.9 25.28,26.65l0 79.97 20.36 0 0 -84.72c0,-24.28 -15.57,-40.1 -39.65,-40.1 -17.08,0 -31.34,8.74 -38.13,23.35l-0.48 0c-5.27,-14.86 -17.52,-23.35 -34.13,-23.35 -16.42,0 -28.79,8.74 -34.54,21.7l-0.44 0 0 -19.57 -19.21 0 0 122.69z"/>
  <path id="4" class="fil5" d="M9160.04 10776.95c19.17,0 31.94,14.61 32.39,35.15l-66.08 0c1.28,-20.42 14.6,-35.15 33.69,-35.15zm31.94 71.83c-3.39,11.55 -14.76,19.45 -30.18,19.45 -21.88,0 -35.57,-15.42 -35.57,-38.9l0 -1.21 87.28 0 0 -7.77c0,-37.16 -20.25,-61.24 -53.11,-61.24 -33.58,0 -55.1,25.85 -55.1,63.94 0,38.57 21.17,63.01 56.02,63.01 26.56,0 47.16,-15.82 50.68,-37.28l-20.02 0z"/>
  <polygon id="5" class="fil5" points="9323.9,10911.63 9323.9,10896.53 9214.43,10896.53 9214.43,10911.63 "/>
  <path id="6" class="fil5" d="M9430.72 10761.24l-20.36 0 0 72.08c0,20.89 -11.94,34.58 -31.71,34.58 -18.81,0 -28.07,-10.75 -28.07,-30.68l0 -75.98 -20.37 0 0 79.65c0,27.82 15.58,45.17 42.13,45.17 18.73,0 31.34,-7.93 38.61,-22.06l0.48 0 0 19.93 19.29 0 0 -122.69z"/>
  <path id="7" class="fil5" d="M9454.91 10795.11c0,16.75 10.54,27.82 31.95,33.38l21.4 5.55c13.7,3.67 18.73,8.38 18.73,17.11 0,11.08 -10.19,18.16 -26.68,18.16 -16.48,0 -26.07,-6.84 -28.3,-19.61l-20.37 0c2.12,21.71 20.73,36.36 47.4,36.36 28.43,0 48.43,-15.1 48.43,-36.48 0,-18.03 -8.9,-26.97 -33.45,-33.25l-18.86 -4.6c-13.81,-3.54 -20.24,-9.18 -20.24,-17.67 0,-10.75 9.82,-18.2 24.68,-18.2 14.97,0 24.47,7.33 25.87,19.12l19.41 0c-0.93,-20.77 -19.41,-35.87 -44.57,-35.87 -26.78,0 -45.4,14.98 -45.4,36z"/>
  <path id="8" class="fil5" d="M9668.42 10761.24l-20.36 0 0 72.08c0,20.89 -11.94,34.58 -31.7,34.58 -18.82,0 -28.08,-10.75 -28.08,-30.68l0 -75.98 -20.37 0 0 79.65c0,27.82 15.58,45.17 42.13,45.17 18.73,0 31.34,-7.93 38.61,-22.06l0.48 0 0 19.93 19.29 0 0 -122.69z"/>
  <path id="9" class="fil5" d="M9734.86 10868.59c-14.61,0 -24.32,-7.65 -24.32,-19.33 0,-11.55 9.34,-18.88 25.72,-19.93l32.54 -2.01 0 10.02c0,17.68 -14.77,31.25 -33.94,31.25zm-4.55 17.47c16.37,0 31.83,-9.22 39.05,-23.23l0.48 0 0 21.1 19.28 0 0 -84.8c0,-24.44 -18.01,-40.02 -46.55,-40.02 -28.75,0 -46.8,16.31 -48.19,37.53l19.64 0c2.59,-12.04 12.42,-19.45 28.11,-19.45 16.81,0 26.67,8.94 26.67,23.91l0 10.27 -34.85 2.02c-28.12,1.65 -44.12,14.85 -44.12,35.87 0,22.07 16.24,36.8 40.48,36.8zm20.13 -142.49l28.75 -35.4 -21.97 0 -24.59 35.4 17.81 0z"/>
  <path id="10" class="fil5" d="M9815 10883.93l20.36 0 0 -76.42c0,-17.36 10.31,-28.79 26.08,-28.79 4.91,0 9.27,0.56 10.9,1.17l0 -19.94c-1.63,-0.24 -4.71,-0.84 -8.19,-0.84 -14.29,0 -25.51,8.62 -29.5,22.18l-0.44 0 0 -20.05 -19.21 0 0 122.69z"/>
  <path id="11" class="fil5" d="M9889.87 10883.93l20.36 0 0 -122.69 -20.36 0 0 122.69zm10.18 -143.34c7.03,0 12.78,-5.76 12.78,-12.73 0,-7.08 -5.75,-12.72 -12.78,-12.72 -6.9,0 -12.61,5.64 -12.61,12.72 0,6.97 5.71,12.73 12.61,12.73z"/>
  <path id="12" class="fil5" d="M9988.17 10886.06c33.59,0 56.27,-24.44 56.27,-63.45 0,-39.18 -22.68,-63.5 -56.27,-63.5 -33.7,0 -56.38,24.32 -56.38,63.5 0,39.01 22.68,63.45 56.38,63.45zm0 -18.07c-21.52,0 -35.69,-16.51 -35.69,-45.38 0,-28.91 14.17,-45.42 35.69,-45.42 21.53,0 35.54,16.51 35.54,45.42 0,28.87 -14.01,45.38 -35.54,45.38z"/>
  <path class="fil8 str4" d="M10227.87 10867.57c-37.72,0 -68.3,-30.83 -68.3,-68.87 0,-38.03 30.58,-68.86 68.3,-68.86 37.72,0 68.29,30.83 68.29,68.86 0,38.04 -30.57,68.87 -68.29,68.87zm-3.91 -156.83l43.35 36.68 43.36 36.68 -28.31 49.44 -28.29 49.41 -53.18 -19.51 -53.19 -19.52 9.84 -56.2 9.82 -56.21 56.6 0 56.6 0 9.82 56.21 9.83 56.2 -53.19 19.52 -53.18 19.51 -28.29 -49.41 -28.31 -49.44 43.36 -36.68 43.36 -36.68z"/>
  <g>
   <path class="fil2" d="M10183.63 10814.08c-2.49,-2.31 -2.63,-6.23 -0.32,-8.72 2.31,-2.49 6.23,-2.63 8.72,-0.32l-8.4 9.04zm23.34 21.66l-23.34 -21.66 8.4 -9.04 23.34 21.66 0.69 8.29 -9.09 0.75zm9.09 -0.75l-4.13 5.35 -4.96 -4.6 9.09 -0.75zm48.9 -63.4l-48.9 63.4 -9.78 -7.54 48.9 -63.4 9.78 7.54zm-9.78 -7.54c2.08,-2.7 5.96,-3.2 8.66,-1.12 2.7,2.08 3.2,5.96 1.12,8.66l-9.78 -7.54z"/>
  </g>
  <path class="fil5" d="M8300.47 18644.98c27.35,0 46.54,-18.16 46.54,-44.44 0,-24.83 -17.5,-42.85 -41.89,-42.85 -12.39,0 -22.79,4.88 -28.31,12.96l-0.45 0 3.51 -39.3 59.72 0 0 -16.77 -75.54 0 -6.7 72.39 18.05 0c4.92,-8.42 14.41,-13.47 25.4,-13.47 15.85,0 26.93,11.53 26.93,27.58 0,16.05 -11.08,27.31 -27.08,27.31 -14.17,0 -24.98,-8.69 -26.39,-21.38l-18.83 0c1.15,22.35 19.7,37.97 45.04,37.97z"/>
  <path id="1" class="fil5" d="M8376.46 18643.56c6.43,0 11.52,-5.15 11.52,-11.63 0,-6.45 -5.09,-11.59 -11.52,-11.59 -6.42,0 -11.53,5.14 -11.53,11.59 0,6.48 5.11,11.63 11.53,11.63z"/>
  <path id="2" class="fil5" d="M8455.78 18644.98c28.17,0 48.05,-15.26 48.05,-37 0,-16.22 -11.35,-29.33 -28.22,-32.88l0 -0.45c14.05,-4.09 23.02,-15.08 23.02,-28.64 0,-19.62 -17.84,-33.82 -42.85,-33.82 -24.89,0 -42.89,14.29 -42.89,33.73 0,13.74 9.06,24.82 23.11,28.73l0 0.45c-16.78,3.55 -28.22,16.56 -28.22,32.88 0,21.65 19.69,37 48,37zm0 -15.95c-16.18,0 -27.67,-9.42 -27.67,-22.44 0,-13.14 11.49,-22.65 27.67,-22.65 16.22,0 27.63,9.42 27.63,22.65 0,13.02 -11.41,22.44 -27.63,22.44zm0 -61.04c-13.77,0 -23.38,-8.33 -23.38,-19.95 0,-11.72 9.61,-20.05 23.38,-20.05 13.76,0 23.43,8.33 23.43,20.05 0,11.62 -9.76,19.95 -23.43,19.95z"/>
  <path id="3" class="fil5" d="M8569.1 18645.07c26.91,0 46.36,-18.62 46.36,-44.26 0,-24.31 -17.96,-42.3 -42.12,-42.3 -15.86,0 -29.31,8.33 -34.86,20.74l-0.33 0c0.09,-32.18 11.67,-50.47 31.65,-50.47 11.61,0 21.13,6.84 24.19,17.29l19.7 0c-3.87,-20.38 -21.28,-33.97 -43.72,-33.97 -31.73,0 -50.74,25.37 -50.74,68.21 0,14.99 2.65,27.58 7.84,37.79 8.26,17.31 23.3,26.97 42.03,26.97zm-0.18 -16.77c-15.13,0 -26.81,-12.05 -26.81,-27.22 0,-15.17 11.5,-26.34 26.99,-26.34 15.58,0 26.76,11.17 26.76,26.7 0,14.99 -11.98,26.86 -26.94,26.86z"/>
  <path id="4" class="fil5" d="M8692.41 18642.59l18.92 0 0 -25.28 17.41 0 0 -16.68 -17.41 0 0 -86.05 -28.49 0c-28.62,41.69 -43.03,64.67 -53.93,85.35l0 17.38 63.5 0 0 25.28zm-45.13 -42.15c10.12,-18.52 22.97,-38.48 44.96,-70.51l0.35 0 0 70.97 -45.31 0 0 -0.46z"/>
  <path class="fil5" d="M9325.68 18584.67l15.81 0c16.73,0 27.12,8.51 27.12,22.34 0,12.51 -11.08,21.38 -26.57,21.38 -16.01,0 -26.03,-8.42 -27.27,-20.65l-18.91 0c1.23,22.07 18.82,37.24 46.18,37.24 26.48,0 46.63,-15.35 46.63,-37.69 0,-17.93 -12.32,-29.7 -31.41,-31.04l0 -0.36c15.73,-2.85 26.12,-14.29 26.12,-30.25 0,-19.71 -17.5,-33.45 -41.53,-33.45 -25.16,0 -41.94,14.47 -43.44,36.91l18.56 0c1.14,-12.6 10.29,-20.59 24.02,-20.59 15.03,0 23.11,7.9 23.11,19.8 0,12.05 -9.4,20.74 -23.11,20.74l-15.31 0 0 15.62z"/>
  <path id="1" class="fil5" d="M9406.08 18552.12l0 0.18 18.64 0 0 -0.27c0,-13.32 10.49,-23.43 24.39,-23.43 13.18,0 23.38,9.05 23.38,20.4 0,10.03 -4.04,16.78 -19.54,33.01l-45.82 47.11 0 13.47 86.83 0 0 -16.77 -60.25 0 0 -0.43 31.76 -32.21c18.56,-19.17 26.45,-30.25 26.45,-45.14 0,-20.32 -18.01,-35.85 -42.22,-35.85 -25.24,0 -43.62,16.86 -43.62,39.93z"/>
  <path id="2" class="fil5" d="M9557.28 18644.98c28.16,0 48.05,-15.26 48.05,-37 0,-16.22 -11.36,-29.33 -28.23,-32.88l0 -0.45c14.05,-4.09 23.03,-15.08 23.03,-28.64 0,-19.62 -17.84,-33.82 -42.85,-33.82 -24.89,0 -42.9,14.29 -42.9,33.73 0,13.74 9.06,24.82 23.12,28.73l0 0.45c-16.78,3.55 -28.23,16.56 -28.23,32.88 0,21.65 19.7,37 48.01,37zm0 -15.95c-16.18,0 -27.68,-9.42 -27.68,-22.44 0,-13.14 11.5,-22.65 27.68,-22.65 16.21,0 27.63,9.42 27.63,22.65 0,13.02 -11.42,22.44 -27.63,22.44zm0 -61.04c-13.77,0 -23.38,-8.33 -23.38,-19.95 0,-11.72 9.61,-20.05 23.38,-20.05 13.75,0 23.42,8.33 23.42,20.05 0,11.62 -9.76,19.95 -23.42,19.95z"/>
  <path class="fil5" d="M10414.68 18584.67l15.82 0c16.73,0 27.11,8.51 27.11,22.34 0,12.51 -11.08,21.38 -26.57,21.38 -16,0 -26.03,-8.42 -27.27,-20.65l-18.91 0c1.23,22.07 18.82,37.24 46.18,37.24 26.48,0 46.63,-15.35 46.63,-37.69 0,-17.93 -12.31,-29.7 -31.4,-31.04l0 -0.36c15.72,-2.85 26.12,-14.29 26.12,-30.25 0,-19.71 -17.51,-33.45 -41.53,-33.45 -25.16,0 -41.94,14.47 -43.45,36.91l18.57 0c1.14,-12.6 10.29,-20.59 24.01,-20.59 15.04,0 23.12,7.9 23.12,19.8 0,12.05 -9.4,20.74 -23.12,20.74l-15.31 0 0 15.62z"/>
  <path id="1" class="fil5" d="M10542.41 18644.98c30.44,0 48.3,-25.79 48.3,-66.61 0,-40.54 -17.95,-66.18 -48.3,-66.18 -30.27,0 -48.46,25.73 -48.46,66.27 0,40.79 18.01,66.52 48.46,66.52zm0 -16.68c-18.11,0 -28.5,-18.98 -28.5,-49.84 0,-30.42 10.54,-49.59 28.5,-49.59 17.95,0 28.4,19.08 28.4,49.59 0,30.95 -10.27,49.84 -28.4,49.84z"/>
  <polygon class="fil5" points="11510.87,18642.59 11530.13,18642.59 11530.13,18514.58 11510.72,18514.58 11477.27,18538.53 11477.27,18558.06 11510.44,18534.29 11510.87,18534.29 "/>
  <path id="1" class="fil5" d="M11571.21 18643.56c6.42,0 11.52,-5.15 11.52,-11.63 0,-6.45 -5.1,-11.59 -11.52,-11.59 -6.43,0 -11.53,5.14 -11.53,11.59 0,6.48 5.1,11.63 11.53,11.63z"/>
  <path id="2" class="fil5" d="M11651.52 18645.07c26.91,0 46.36,-18.62 46.36,-44.26 0,-24.31 -17.96,-42.3 -42.12,-42.3 -15.86,0 -29.31,8.33 -34.86,20.74l-0.33 0c0.09,-32.18 11.68,-50.47 31.65,-50.47 11.61,0 21.13,6.84 24.19,17.29l19.7 0c-3.87,-20.38 -21.28,-33.97 -43.71,-33.97 -31.74,0 -50.75,25.37 -50.75,68.21 0,14.99 2.65,27.58 7.84,37.79 8.26,17.31 23.3,26.97 42.03,26.97zm-0.17 -16.77c-15.14,0 -26.82,-12.05 -26.82,-27.22 0,-15.17 11.5,-26.34 26.99,-26.34 15.58,0 26.76,11.17 26.76,26.7 0,14.99 -11.98,26.86 -26.93,26.86z"/>
  <path id="3" class="fil5" d="M11713.43 18552.12l0 0.18 18.65 0 0 -0.27c0,-13.32 10.48,-23.43 24.38,-23.43 13.18,0 23.38,9.05 23.38,20.4 0,10.03 -4.04,16.78 -19.54,33.01l-45.82 47.11 0 13.47 86.83 0 0 -16.77 -60.25 0 0 -0.43 31.76 -32.21c18.56,-19.17 26.45,-30.25 26.45,-45.14 0,-20.32 -18.01,-35.85 -42.21,-35.85 -25.25,0 -43.63,16.86 -43.63,39.93z"/>
  <path id="4" class="fil5" d="M11875.54 18642.59l18.91 0 0 -25.28 17.41 0 0 -16.68 -17.41 0 0 -86.05 -28.49 0c-28.62,41.69 -43.03,64.67 -53.93,85.35l0 17.38 63.51 0 0 25.28zm-45.13 -42.15c10.11,-18.52 22.97,-38.48 44.95,-70.51l0.36 0 0 70.97 -45.31 0 0 -0.46z"/>
  <path class="fil4" d="M9856.18 14517.7l0 -381.85 -66.04 0 0 -57.57 66.04 0 0 -46.57c0,-29.49 2.54,-51.36 7.76,-65.62 7.2,-19.19 19.62,-34.85 37.68,-46.84 17.92,-12 43.18,-17.93 75.63,-17.93 21.03,0 44.17,2.54 69.57,7.48l-11.15 65.2c-15.52,-2.68 -30.05,-4.1 -43.88,-4.1 -22.58,0 -38.52,4.8 -47.98,14.4 -9.31,9.59 -13.97,27.51 -13.97,53.76l0 40.22 85.51 0 0 57.57 -84.66 0 0 381.85 -74.51 0z"/>
  <path id="1" class="fil4" d="M10045.69 14297.99c0,-81.14 22.58,-141.25 67.87,-180.34 37.68,-32.46 83.83,-48.69 138.15,-48.69 60.26,0 109.65,19.76 148.03,59.27 38.24,39.37 57.43,93.98 57.43,163.55 0,56.44 -8.46,100.75 -25.4,133.07 -16.93,32.31 -41.63,57.43 -74.08,75.35 -32.32,17.92 -67.74,26.81 -105.98,26.81 -61.52,0 -111.19,-19.61 -149.15,-58.98 -37.96,-39.37 -56.87,-96.1 -56.87,-170.04zm76.2 0.14c0,56.16 12.28,98.21 36.83,126.01 24.7,27.94 55.6,41.91 92.99,41.91 36.97,0 67.74,-13.97 92.43,-42.05 24.55,-28.08 36.83,-70.84 36.83,-128.27 0,-54.19 -12.42,-95.25 -37.11,-123.05 -24.7,-27.94 -55.46,-41.91 -92.15,-41.91 -37.39,0 -68.29,13.83 -92.99,41.63 -24.55,27.8 -36.83,69.71 -36.83,125.73z"/>
  <path id="2" class="fil4" d="M10706.23 14451.24l10.16 65.75c-20.88,4.38 -39.65,6.64 -56.02,6.64 -26.95,0 -47.83,-4.24 -62.79,-12.84 -14.82,-8.61 -25.26,-19.76 -31.33,-33.73 -6.07,-13.97 -9.03,-43.32 -9.03,-88.05l0 -253.16 -55.03 0 0 -57.57 55.03 0 0 -108.66 74.51 -44.73 0 153.39 74.5 0 0 57.57 -74.5 0 0 257.39c0,21.31 1.27,35 3.95,41.06 2.54,6.07 6.77,10.87 12.7,14.54 5.93,3.53 14.39,5.36 25.4,5.36 8.18,0 19.05,-0.99 32.45,-2.96z"/>
  <path id="3" class="fil4" d="M10751.81 14297.99c0,-81.14 22.58,-141.25 67.87,-180.34 37.68,-32.46 83.83,-48.69 138.15,-48.69 60.26,0 109.65,19.76 148.03,59.27 38.24,39.37 57.43,93.98 57.43,163.55 0,56.44 -8.46,100.75 -25.4,133.07 -16.93,32.31 -41.63,57.43 -74.08,75.35 -32.32,17.92 -67.74,26.81 -105.98,26.81 -61.52,0 -111.19,-19.61 -149.15,-58.98 -37.96,-39.37 -56.87,-96.1 -56.87,-170.04zm76.2 0.14c0,56.16 12.28,98.21 36.83,126.01 24.7,27.94 55.6,41.91 92.99,41.91 36.97,0 67.74,-13.97 92.43,-42.05 24.55,-28.08 36.83,-70.84 36.83,-128.27 0,-54.19 -12.42,-95.25 -37.11,-123.05 -24.7,-27.94 -55.46,-41.91 -92.15,-41.91 -37.39,0 -68.29,13.83 -92.99,41.63 -24.55,27.8 -36.83,69.71 -36.83,125.73z"/>
  <path id="4" class="fil4" d="M9443.07 15463.57l0 -65.33c-34.15,49.81 -80.43,74.64 -138.99,74.64 -25.83,0 -49.96,-4.94 -72.39,-14.81 -22.44,-10.02 -39.09,-22.44 -49.96,-37.4 -10.86,-15.1 -18.48,-33.44 -22.86,-55.17 -2.96,-14.68 -4.51,-37.82 -4.51,-69.43l0 -271.92 74.5 0 0 243.13c0,38.81 1.56,65.06 4.52,78.46 4.66,19.62 14.53,34.86 29.77,46 15.1,11.15 33.73,16.8 56.03,16.8 22.29,0 43.18,-5.65 62.65,-17.08 19.47,-11.43 33.3,-27.09 41.49,-46.71 8.04,-19.61 12.13,-48.26 12.13,-85.65l0 -234.95 74.51 0 0 439.42 -66.89 0z"/>
  <path id="5" class="fil4" d="M9597.31 15332.34l73.66 -11.86c4.09,29.5 15.66,52.07 34.57,67.88 18.91,15.66 45.44,23.56 79.3,23.56 34.29,0 59.69,-6.91 76.35,-20.88 16.51,-13.83 24.83,-30.2 24.83,-48.97 0,-16.79 -7.48,-30.05 -22.29,-39.65 -10.45,-6.63 -35.85,-14.96 -76.2,-25.26 -54.47,-13.69 -92.15,-25.54 -113.32,-35.56 -21.02,-10.16 -36.97,-23.99 -47.83,-41.77 -10.87,-17.64 -16.37,-37.25 -16.37,-58.7 0,-19.61 4.51,-37.68 13.4,-54.33 9.03,-16.65 21.17,-30.48 36.55,-41.48 11.57,-8.47 27.38,-15.67 47.27,-21.6 20.04,-5.92 41.35,-8.89 64.21,-8.89 34.43,0 64.63,4.94 90.59,14.96 26.11,9.88 45.3,23.43 57.72,40.36 12.27,17.08 20.88,39.79 25.54,68.3l-72.82 10.16c-3.24,-22.86 -12.84,-40.78 -28.64,-53.62 -15.81,-12.84 -38.1,-19.19 -67.03,-19.19 -34.01,0 -58.42,5.64 -72.95,16.93 -14.54,11.29 -21.88,24.55 -21.88,39.65 0,9.6 2.97,18.35 9.03,26.11 6.07,7.9 15.53,14.53 28.51,19.75 7.48,2.82 29.21,9.17 65.62,19.05 52.49,13.97 89.18,25.54 110.06,34.43 20.89,8.89 37.26,22.02 49.11,38.95 11.99,17.07 17.92,38.24 17.92,63.64 0,24.7 -7.2,47.98 -21.73,69.85 -14.53,21.87 -35.42,38.81 -62.65,50.8 -27.38,12 -58.28,17.92 -92.71,17.92 -57.01,0 -100.62,-11.85 -130.53,-35.42 -29.92,-23.7 -48.97,-58.7 -57.29,-105.12z"/>
  <path id="6" class="fil4" d="M10337.3 15463.57l0 -65.33c-34.15,49.81 -80.43,74.64 -138.99,74.64 -25.83,0 -49.96,-4.94 -72.39,-14.81 -22.44,-10.02 -39.09,-22.44 -49.96,-37.4 -10.86,-15.1 -18.48,-33.44 -22.86,-55.17 -2.96,-14.68 -4.51,-37.82 -4.51,-69.43l0 -271.92 74.5 0 0 243.13c0,38.81 1.56,65.06 4.52,78.46 4.66,19.62 14.53,34.86 29.77,46 15.1,11.15 33.73,16.8 56.03,16.8 22.29,0 43.18,-5.65 62.65,-17.08 19.47,-11.43 33.3,-27.09 41.49,-46.71 8.04,-19.61 12.13,-48.26 12.13,-85.65l0 -234.95 74.51 0 0 439.42 -66.89 0z"/>
  <path id="7" class="fil4" d="M10808.19 15408.54c-27.66,23.56 -54.33,40.07 -79.87,49.81 -25.54,9.74 -52.91,14.53 -82.27,14.53 -48.26,0 -85.37,-11.71 -111.33,-35.27 -25.97,-23.43 -38.95,-53.49 -38.95,-90.03 0,-21.45 4.94,-41.07 14.68,-58.85 9.87,-17.78 22.71,-31.89 38.52,-42.61 15.94,-10.73 33.72,-18.91 53.62,-24.42 14.68,-3.81 36.83,-7.47 66.32,-11.14 60.12,-7.06 104.57,-15.67 132.93,-25.54 0.28,-10.16 0.42,-16.66 0.42,-19.34 0,-30.19 -7.05,-51.5 -21.16,-63.92 -19.05,-16.79 -47.42,-25.12 -84.95,-25.12 -35.14,0 -61.1,6.21 -77.75,18.49 -16.8,12.27 -29.07,34.01 -37.12,65.33l-72.81 -10.16c6.63,-31.18 17.5,-56.44 32.74,-75.63 15.24,-19.19 37.25,-33.87 66.04,-44.31 28.64,-10.3 62.09,-15.53 99.91,-15.53 37.53,0 68.15,4.38 91.72,13.27 23.42,8.89 40.78,19.9 51.79,33.3 11,13.41 18.76,30.34 23.28,50.8 2.4,12.7 3.67,35.56 3.67,68.44l0 98.78c0,69 1.55,112.61 4.65,131.09 2.97,18.49 9.18,36.13 18.21,53.06l-77.9 0c-7.47,-15.66 -12.27,-34.01 -14.39,-55.03zm-5.93 -165.1c-27.09,11 -67.73,20.32 -121.92,27.94 -30.76,4.37 -52.49,9.31 -65.19,14.81 -12.7,5.51 -22.44,13.55 -29.35,23.99 -6.92,10.58 -10.44,22.3 -10.44,35.28 0,19.61 7.48,36.12 22.57,49.25 15.1,13.12 37.12,19.75 66.05,19.75 28.64,0 54.18,-6.21 76.62,-18.76 22.29,-12.42 38.8,-29.5 49.25,-51.09 8.04,-16.79 11.99,-41.48 11.99,-74.08l0.42 -27.09z"/>
  <path id="8" class="fil4" d="M10991.21 15463.57l0 -439.42 66.89 0 0 67.31c17.07,-31.19 32.88,-51.79 47.41,-61.67 14.54,-10.02 30.48,-14.96 47.84,-14.96 25.12,0 50.66,7.91 76.62,23.57l-26.52 68.72c-18.07,-10.16 -36.13,-15.24 -54.19,-15.24 -16.23,0 -30.76,4.94 -43.6,14.68 -12.85,9.73 -22.02,23.28 -27.52,40.64 -8.33,26.39 -12.42,55.31 -12.42,86.78l0 229.59 -74.51 0z"/>
  <path id="9" class="fil4" d="M11274 14942.02l0 -84.67 74.51 0 0 84.67 -74.51 0zm0 521.55l0 -439.42 74.51 0 0 439.42 -74.51 0z"/>
  <path id="10" class="fil4" d="M11434.16 15243.86c0,-81.14 22.58,-141.25 67.87,-180.34 37.68,-32.46 83.83,-48.69 138.15,-48.69 60.26,0 109.65,19.76 148.03,59.27 38.24,39.37 57.43,93.98 57.43,163.55 0,56.44 -8.46,100.75 -25.4,133.07 -16.93,32.31 -41.63,57.43 -74.08,75.35 -32.32,17.92 -67.74,26.81 -105.98,26.81 -61.52,0 -111.19,-19.61 -149.15,-58.98 -37.96,-39.37 -56.87,-96.1 -56.87,-170.04zm76.2 0.14c0,56.16 12.28,98.21 36.83,126.01 24.7,27.94 55.6,41.91 92.99,41.91 36.97,0 67.74,-13.97 92.43,-42.05 24.55,-28.08 36.83,-70.84 36.83,-128.27 0,-54.19 -12.42,-95.25 -37.11,-123.05 -24.7,-27.94 -55.46,-41.91 -92.15,-41.91 -37.39,0 -68.29,13.83 -92.99,41.63 -24.55,27.8 -36.83,69.71 -36.83,125.73z"/>
 </g>
</svg>
