<?xml version="1.0" encoding="UTF-8"?>
<!DOCTYPE svg PUBLIC "-//W3C//DTD SVG 1.1//EN" "http://www.w3.org/Graphics/SVG/1.1/DTD/svg11.dtd">
<!-- Creator: CorelDRAW 2018 (64 Bit) -->
<svg xmlns="http://www.w3.org/2000/svg" xml:space="preserve" width="210mm" height="297mm" version="1.1" style="shape-rendering:geometricPrecision; text-rendering:geometricPrecision; image-rendering:optimizeQuality; fill-rule:evenodd; clip-rule:evenodd"
viewBox="0 0 21000 29700"
 xmlns:xlink="http://www.w3.org/1999/xlink">
 <defs>
  <style type="text/css">
   <![CDATA[
    .fil0 {fill:none}
    .fil1 {fill:#6F3BFA}
    .fil2 {fill:#FEFEFE;fill-rule:nonzero}
   ]]>
  </style>
   <clipPath id="id0">
    <path d="M8017.4 11042.54c-139.15,0 -251.95,-113.75 -251.95,-254.07 0,-140.33 112.8,-254.07 251.95,-254.07 139.15,0 251.95,113.74 251.95,254.07 0,140.32 -112.8,254.07 -251.95,254.07z"/>
   </clipPath>
    <clipPath id="id1">
     <path d="M8017.4 11042.54c-139.15,0 -251.95,-113.75 -251.95,-254.07 0,-140.33 112.8,-254.07 251.95,-254.07 139.15,0 251.95,113.74 251.95,254.07 0,140.32 -112.8,254.07 -251.95,254.07z"/>
    </clipPath>
    <clipPath id="id2">
     <path d="M8017.4 11042.54c-139.15,0 -251.95,-113.75 -251.95,-254.07 0,-140.33 112.8,-254.07 251.95,-254.07 139.15,0 251.95,113.74 251.95,254.07 0,140.32 -112.8,254.07 -251.95,254.07z"/>
    </clipPath>
 </defs>
 <g id="Camada_x0020_1">
  <metadata id="CorelCorpID_0Corel-Layer"/>
  <g>
  </g>
  <g style="clip-path:url(#id0)">
   <g>
   </g>
   <g style="clip-path:url(#id1)">
    <image id="Captura_x0020_de_x0020_Tela_x0020_2025-10-21_x0020_à_x0028_s_x0029__x0020_12.04.19.png" x="7470.58" y="-3088.09" width="7851.06" height="17159.85" xlink:href="sua_foto_Images\sua_foto_ImgID1.png"/>
   </g>
   <g style="clip-path:url(#id2)">
   </g>
  </g>
  <path class="fil0" d="M8017.4 11042.54c-139.15,0 -251.95,-113.75 -251.95,-254.07 0,-140.33 112.8,-254.07 251.95,-254.07 139.15,0 251.95,113.74 251.95,254.07 0,140.32 -112.8,254.07 -251.95,254.07z"/>
  <g>
   <ellipse class="fil1" cx="8014.81" cy="10786.96" rx="272.95" ry="275.24"/>
   <path class="fil2" d="M7851.64 10753.03l13.3 -5.6c2.38,5.37 5.32,9.46 8.83,12.28 3.5,2.81 8.1,4.53 13.78,5.15 5.69,0.62 11.67,-0.07 17.92,-2.06 5.55,-1.77 10.19,-4.16 13.91,-7.19 3.73,-3.04 6.15,-6.34 7.31,-9.92 1.16,-3.58 1.21,-7.09 0.14,-10.49 -1.08,-3.46 -3.02,-6.17 -5.83,-8.14 -2.82,-1.94 -6.8,-3.06 -11.96,-3.38 -3.31,-0.19 -10.4,0.08 -21.28,0.85 -10.89,0.77 -18.67,0.72 -23.4,-0.16 -6.12,-1.11 -11.1,-3.33 -14.95,-6.62 -3.87,-3.28 -6.6,-7.5 -8.2,-12.58 -1.76,-5.63 -1.82,-11.39 -0.19,-17.24 1.62,-5.89 5.05,-11.04 10.33,-15.5 5.25,-4.46 11.58,-7.87 18.99,-10.23 8.14,-2.59 15.75,-3.57 22.8,-2.89 7.05,0.65 13.07,3.02 18.03,7.12 4.97,4.07 8.59,9.34 10.89,15.76l-13.65 5.54c-2.93,-6.76 -7.12,-11.25 -12.57,-13.43 -5.45,-2.21 -12.41,-1.95 -20.86,0.74 -8.81,2.81 -14.73,6.48 -17.73,11.01 -3,4.54 -3.79,9.11 -2.35,13.7 1.24,3.98 3.7,6.8 7.35,8.48 3.62,1.66 11.76,1.99 24.43,0.91 12.68,-1.06 21.54,-1.29 26.56,-0.68 7.32,0.93 13.23,3.17 17.7,6.76 4.47,3.58 7.63,8.34 9.49,14.28 1.85,5.92 1.92,11.97 0.2,18.25 -1.71,6.29 -5.24,11.88 -10.6,16.76 -5.37,4.89 -11.96,8.59 -19.82,11.09 -9.94,3.17 -18.72,4.35 -26.34,3.57 -7.66,-0.77 -14.28,-3.49 -19.94,-8.16 -5.68,-4.64 -9.76,-10.64 -12.29,-17.98z"/>
   <path id="1" class="fil2" d="M8020.46 10738.42l-3.75 -11.95c-3.35,11.09 -10.32,18.31 -20.95,21.7 -4.68,1.49 -9.34,1.98 -13.98,1.47 -4.65,-0.53 -8.38,-1.84 -11.21,-3.95 -2.84,-2.14 -5.27,-5.05 -7.31,-8.78 -1.38,-2.52 -2.99,-6.66 -4.8,-12.45l-15.6 -49.75 13.53 -4.31 13.94 44.49c2.22,7.11 4.01,11.81 5.32,14.1 1.97,3.32 4.63,5.54 8.04,6.7 3.38,1.16 7.08,1.12 11.12,-0.17 4.05,-1.29 7.52,-3.54 10.4,-6.75 2.87,-3.21 4.49,-6.89 4.85,-10.94 0.33,-4.06 -0.56,-9.54 -2.71,-16.38l-13.47 -43 13.52 -4.31 25.2 80.41 -12.14 3.87z"/>
   <path id="2" class="fil2" d="M8102.75 10701.12c-3.67,5.91 -7.56,10.48 -11.64,13.74 -4.07,3.26 -8.77,5.72 -14.09,7.42 -8.76,2.79 -16.16,2.79 -22.23,-0.02 -6.06,-2.79 -10.14,-7.54 -12.23,-14.22 -1.23,-3.93 -1.46,-7.8 -0.71,-11.62 0.77,-3.83 2.3,-7.15 4.55,-10.03 2.27,-2.88 5.03,-5.41 8.32,-7.57 2.45,-1.54 6.26,-3.49 11.4,-5.88 10.51,-4.76 18.08,-8.9 22.66,-12.35 -0.54,-1.88 -0.88,-3.07 -1.03,-3.57 -1.73,-5.52 -4.23,-9.01 -7.51,-10.47 -4.42,-1.97 -10.04,-1.86 -16.85,0.31 -6.38,2.04 -10.74,4.67 -13.06,7.89 -2.34,3.22 -3.32,7.9 -2.98,14.1l-13.8 2.35c-0.58,-6.09 -0.05,-11.34 1.6,-15.74 1.67,-4.39 4.82,-8.35 9.44,-11.92 4.61,-3.55 10.39,-6.43 17.25,-8.62 6.81,-2.17 12.62,-3.14 17.4,-2.87 4.77,0.26 8.55,1.27 11.31,3.1 2.77,1.81 5.15,4.46 7.14,7.95 1.16,2.17 2.7,6.29 4.59,12.3l5.66 18.08c3.96,12.63 6.74,20.52 8.37,23.72 1.6,3.21 3.74,6.08 6.34,8.66l-14.13 4.5c-2.25,-2.44 -4.19,-5.51 -5.77,-9.24zm-10.54 -29.87c-4.29,3.58 -11.13,7.64 -20.53,12.16 -5.33,2.58 -8.99,4.74 -10.98,6.49 -1.99,1.74 -3.3,3.78 -3.95,6.08 -0.65,2.34 -0.62,4.69 0.13,7.06 1.12,3.6 3.43,6.19 6.92,7.71 3.49,1.53 7.87,1.47 13.12,-0.2 5.2,-1.66 9.47,-4.28 12.83,-7.87 3.34,-3.56 5.34,-7.64 6.01,-12.19 0.49,-3.54 -0.21,-8.29 -2.08,-14.26l-1.47 -4.98z"/>
   <polygon id="3" class="fil2" points="7922.58,10959.99 7887.82,10849.06 7962.04,10825.41 7966.12,10838.42 7906.5,10857.42 7917.32,10891.97 7968.95,10875.51 7973.03,10888.53 7921.4,10904.98 7937.18,10955.34 "/>
   <path id="4" class="fil2" d="M7996.3 10892.27c-4.65,-14.84 -3.99,-27.15 1.98,-36.93 4.98,-8.11 12.42,-13.75 22.28,-16.89 10.94,-3.49 21.03,-2.72 30.26,2.28 9.2,5 15.81,13.88 19.8,26.61 3.24,10.33 4.25,18.93 3.03,25.82 -1.22,6.89 -4.27,12.92 -9.13,18.08 -4.83,5.14 -10.75,8.82 -17.69,11.04 -11.17,3.55 -21.31,2.83 -30.45,-2.17 -9.15,-5.02 -15.84,-14.31 -20.08,-27.84zm13.85 -4.38c3.22,10.28 7.85,17.27 13.9,20.93 6.08,3.69 12.49,4.46 19.28,2.3 6.71,-2.14 11.49,-6.47 14.36,-13.04 2.85,-6.56 2.63,-15.1 -0.67,-25.61 -3.1,-9.91 -7.71,-16.71 -13.78,-20.36 -6.09,-3.7 -12.48,-4.47 -19.14,-2.35 -6.79,2.16 -11.6,6.49 -14.49,13 -2.86,6.51 -2.68,14.88 0.54,25.13z"/>
   <path id="5" class="fil2" d="M8124.96 10882.12l5.62 11.44c-3.54,2.01 -6.82,3.52 -9.79,4.46 -4.88,1.56 -8.92,1.99 -12.13,1.28 -3.19,-0.72 -5.72,-2.15 -7.62,-4.36 -1.9,-2.2 -4.12,-7.4 -6.69,-15.59l-14.51 -46.32 -9.99 3.18 -3.3 -10.54 9.98 -3.18 -6.23 -19.89 10.96 -12.49 8.79 28.07 13.53 -4.31 3.3 10.54 -13.52 4.31 14.75 47.09c1.23,3.9 2.24,6.34 3.08,7.29 0.81,0.97 1.85,1.6 3.14,1.92 1.27,0.31 2.92,0.15 4.91,-0.48 1.49,-0.47 3.41,-1.29 5.72,-2.42z"/>
   <path id="6" class="fil2" d="M8124.45 10851.44c-4.65,-14.85 -4,-27.15 1.98,-36.93 4.97,-8.12 12.41,-13.75 22.27,-16.89 10.94,-3.49 21.03,-2.73 30.26,2.28 9.2,5 15.82,13.88 19.8,26.61 3.24,10.33 4.25,18.93 3.03,25.82 -1.22,6.89 -4.26,12.91 -9.12,18.07 -4.84,5.15 -10.76,8.83 -17.7,11.04 -11.17,3.56 -21.3,2.84 -30.44,-2.17 -9.16,-5.01 -15.84,-14.3 -20.08,-27.83zm13.84 -4.38c3.22,10.28 7.86,17.26 13.9,20.93 6.09,3.69 12.5,4.46 19.29,2.3 6.71,-2.14 11.49,-6.48 14.36,-13.05 2.84,-6.55 2.62,-15.09 -0.67,-25.6 -3.11,-9.92 -7.72,-16.71 -13.79,-20.37 -6.09,-3.69 -12.48,-4.47 -19.13,-2.34 -6.79,2.16 -11.6,6.48 -14.49,12.99 -2.86,6.51 -2.68,14.89 0.53,25.14z"/>
  </g>
 </g>
</svg>
