<?xml version="1.0" encoding="UTF-8"?>
<!DOCTYPE svg PUBLIC "-//W3C//DTD SVG 1.1//EN" "http://www.w3.org/Graphics/SVG/1.1/DTD/svg11.dtd">
<!-- Creator: CorelDRAW 2018 (64 Bit) -->
<svg xmlns="http://www.w3.org/2000/svg" xml:space="preserve" width="141.008mm" height="47.1901mm" version="1.1" style="shape-rendering:geometricPrecision; text-rendering:geometricPrecision; image-rendering:optimizeQuality; fill-rule:evenodd; clip-rule:evenodd"
viewBox="0 0 14100.86 4719.01"
 xmlns:xlink="http://www.w3.org/1999/xlink">
 <defs>
  <style type="text/css">
   <![CDATA[
    .str3 {stroke:#424242;stroke-width:77.61;stroke-miterlimit:22.9256}
    .str1 {stroke:#424242;stroke-width:88.19;stroke-miterlimit:22.9256}
    .str0 {stroke:#FEFEFE;stroke-width:20;stroke-miterlimit:22.9256}
    .str7 {stroke:#373435;stroke-width:20;stroke-miterlimit:22.9256}
    .str8 {stroke:black;stroke-width:20;stroke-miterlimit:22.9256}
    .str6 {stroke:black;stroke-width:7.62;stroke-miterlimit:22.9256}
    .str4 {stroke:#25292F;stroke-width:7.62;stroke-miterlimit:22.9256}
    .str5 {stroke:#999999;stroke-width:7.62;stroke-miterlimit:22.9256}
    .str2 {stroke:#424242;stroke-width:77.61;stroke-linecap:round;stroke-linejoin:round;stroke-miterlimit:22.9256}
    .str9 {stroke:#FEFEFE;stroke-width:88.19;stroke-linecap:round;stroke-linejoin:round;stroke-miterlimit:22.9256}
    .fil3 {fill:none}
    .fil7 {fill:none;fill-rule:nonzero}
    .fil2 {fill:#FEFEFE}
    .fil11 {fill:black}
    .fil4 {fill:#010101}
    .fil0 {fill:#6F3BFA}
    .fil5 {fill:#FDFDFD}
    .fil1 {fill:#FEFEFE;fill-rule:nonzero}
    .fil10 {fill:#456CB2;fill-rule:nonzero}
    .fil9 {fill:black;fill-rule:nonzero}
    .fil6 {fill:#25292F;fill-rule:nonzero}
    .fil8 {fill:#999999;fill-rule:nonzero}
   ]]>
  </style>
 </defs>
 <g id="Camada_x0020_1">
  <metadata id="CorelCorpID_0Corel-Layer"/>
  <g id="_2048549850848">
   <circle class="fil0" cx="1878.85" cy="1930.81" r="1170"/>
   <path class="fil1" d="M1180.13 1786.71l57.41 -23.26c10.05,22.77 22.47,40.25 37.34,52.23 14.87,11.98 34.38,19.4 58.77,22.13 24.39,2.84 49.97,0.05 76.86,-8.13 23.78,-7.3 43.78,-17.38 59.88,-30.03 16.11,-12.65 26.7,-26.61 31.77,-41.65 5.19,-15.04 5.54,-29.9 1.06,-44.56 -4.61,-14.77 -12.8,-26.46 -24.82,-34.85 -12.02,-8.5 -29.03,-13.37 -51.12,-14.81 -14.15,-1.14 -44.56,-0.24 -91.09,2.72 -46.66,2.85 -80.04,2.35 -100.28,-1.61 -26.21,-4.82 -47.55,-14.44 -63.9,-28.5 -16.47,-14.06 -27.95,-32.01 -34.68,-53.71 -7.29,-23.89 -7.33,-48.18 -0.1,-73.11 7.11,-24.93 22.02,-46.68 44.75,-65.38 22.71,-18.7 50,-32.99 81.74,-42.63 35.09,-10.77 67.7,-14.65 97.84,-11.53 30.26,3.12 55.85,13.35 77.01,30.91 21.05,17.44 36.41,39.9 45.97,67.26l-58.56 22.9c-12.32,-28.88 -30.12,-48.02 -53.42,-57.65 -23.3,-9.52 -53.01,-8.72 -89.36,2.38 -37.74,11.55 -63.2,27.01 -76.25,46.13 -13.05,19.12 -16.55,38.55 -10.61,58.06 5.17,16.97 15.54,29.02 31.15,36.29 15.48,7.26 50.35,8.82 104.61,4.76 54.38,-4.04 92.27,-4.78 113.9,-1.96 31.28,4.28 56.53,14.16 75.63,29.51 18.99,15.47 32.41,35.84 40.27,61.24 7.62,25.16 7.76,50.95 0.17,77.6 -7.58,26.65 -22.98,50.36 -46.17,70.9 -23.19,20.65 -51.63,36.08 -85.35,46.51 -42.7,13.02 -80.5,17.78 -113.17,14.17 -32.79,-3.6 -61.13,-15.34 -85.26,-35.35 -24.14,-20 -41.43,-45.69 -51.99,-76.98z"/>
   <path id="1" class="fil1" d="M1904.14 1726.63l-15.37 -50.21c-14.77,46.86 -45.06,77.24 -90.89,91.26 -20.2,6.17 -40.13,8.08 -60.03,5.73 -19.9,-2.34 -35.86,-8.12 -47.99,-17.2 -12.02,-9.07 -22.39,-21.59 -31.01,-37.55 -5.9,-10.65 -12.55,-28.31 -20.18,-53.01l-64.95 -212.04 57.94 -17.83 58.22 189.87c9.31,30.24 16.75,50.33 22.31,60.05 8.29,14.23 19.73,23.77 34.2,28.83 14.46,5.07 30.47,4.97 47.78,-0.3 17.43,-5.39 32.36,-14.83 44.91,-28.42 12.54,-13.6 19.57,-29.09 21.21,-46.35 1.64,-17.25 -1.98,-40.54 -10.96,-69.75l-56.19 -183.4 58.06 -17.73 104.88 342.24 -51.94 15.81z"/>
   <path id="2" class="fil1" d="M2256.55 1568.96c-15.87,24.85 -32.6,44.06 -50.09,57.73 -17.61,13.56 -37.85,23.88 -60.59,30.83 -37.62,11.56 -69.29,11.19 -95.09,-0.99 -25.81,-12.19 -43.15,-32.48 -51.9,-61.1 -5.15,-16.74 -5.94,-33.21 -2.59,-49.42 3.36,-16.2 9.92,-30.32 19.7,-42.55 9.77,-12.13 21.82,-22.74 35.94,-31.84 10.42,-6.47 26.72,-14.63 48.9,-24.47 45.07,-19.9 77.56,-37.14 97.37,-51.71 -2.24,-7.97 -3.7,-13.05 -4.37,-15.24 -7.29,-23.54 -17.88,-38.6 -31.76,-44.82 -18.81,-8.66 -42.88,-8.4 -72.09,0.58 -27.23,8.29 -45.97,19.31 -55.99,32.82 -10.12,13.5 -14.54,33.39 -13.26,59.53l-59.14 9.65c-2.32,-25.8 0.16,-48 7.45,-66.6 7.16,-18.48 20.78,-35.3 40.7,-50.1 19.81,-14.93 44.43,-26.92 73.86,-35.9 29.32,-8.97 54.11,-12.81 74.47,-11.49 20.37,1.21 36.46,5.82 48.26,13.52 11.67,7.81 21.83,19.17 30.12,33.98 4.87,9.25 11.41,26.8 19.26,52.65l23.67 77.33c16.6,53.91 28.19,87.62 35.09,101.15 6.81,13.53 15.92,25.69 27.23,36.61l-60.6 18.51c-9.7,-10.1 -17.89,-23.06 -24.55,-38.66zm-44.45 -128.05c-18.43,15.05 -47.81,32.09 -88.03,50.98 -22.76,10.76 -38.5,19.73 -47.08,27.14 -8.58,7.31 -14.28,15.89 -17.13,25.77 -2.85,9.99 -2.69,20.01 0.45,30.05 4.71,15.47 14.52,26.6 29.43,33.29 14.8,6.8 33.57,6.6 56.08,-0.24 22.39,-6.84 40.78,-17.87 55.19,-32.95 14.39,-15.08 23.06,-32.39 25.98,-51.82 2.19,-15.07 -0.53,-35.36 -8.38,-60.99l-6.51 -21.23z"/>
   <polygon id="3" class="fil1" points="1483.68,2666.84 1338.86,2194.41 1657.66,2096.71 1674.7,2152.45 1418.47,2230.98 1463.34,2377.33 1685.06,2309.35 1702.11,2365.11 1480.39,2433.08 1546.24,2647.66 "/>
   <path id="4" class="fil1" d="M1801.32 2378.51c-19.4,-63.37 -16.1,-115.73 9.8,-157.08 21.57,-34.37 53.66,-58.06 95.9,-70.96 47.09,-14.47 90.24,-10.78 129.56,10.84 39.32,21.73 67.34,59.72 83.93,114.09 13.58,43.97 17.54,80.74 12.01,109.93 -5.42,29.32 -18.63,54.77 -39.65,76.48 -20.9,21.71 -46.36,37.16 -76.25,46.36 -47.9,14.7 -91.28,11.12 -130.25,-10.5 -38.98,-21.73 -67.32,-61.45 -85.05,-119.16zm59.68 -18.28c13.46,43.74 33.03,73.72 58.79,89.58 25.91,15.99 53.28,19.55 82.25,10.57 28.86,-8.75 49.38,-27 61.81,-54.88 12.43,-27.76 11.68,-64.04 -2,-108.93 -13.01,-42.36 -32.47,-71.42 -58.36,-87.4 -25.89,-15.87 -53.15,-19.43 -81.78,-10.68 -28.96,8.86 -49.72,27.12 -62.15,54.64 -12.43,27.54 -12.02,63.24 1.44,107.1z"/>
   <path id="5" class="fil1" d="M2352.44 2336.55l24.13 48.67c-15.26,8.39 -29.36,14.61 -42.29,18.53 -21.01,6.52 -38.41,8.1 -51.96,4.99 -13.68,-3.1 -24.56,-9.29 -32.55,-18.68 -8.1,-9.39 -17.48,-31.57 -28.13,-66.31l-60.35 -196.92 -42.49 13.01 -13.78 -45.13 42.47 -13.01 -25.91 -84.72 46.94 -52.46 36.68 119.46 58.29 -17.83 13.91 45.12 -58.4 17.84 61.36 200.14c5.05,16.51 9.34,26.91 12.87,30.96 3.42,4.17 7.89,6.86 13.4,8.29 5.52,1.3 12.55,0.68 21.09,-1.91 6.46,-2.02 14.67,-5.41 24.72,-10.04z"/>
   <path id="6" class="fil1" d="M2350.68 2204.91c-19.41,-63.37 -16.1,-115.73 9.79,-157.08 21.58,-34.37 53.66,-58.06 95.91,-70.95 47.09,-14.48 90.23,-10.78 129.56,10.83 39.31,21.74 67.33,59.73 83.92,114.1 13.58,43.97 17.55,80.73 12.02,109.93 -5.42,29.31 -18.64,54.77 -39.65,76.48 -20.9,21.7 -46.36,37.15 -76.26,46.36 -47.9,14.69 -91.28,11.12 -130.25,-10.51 -38.97,-21.72 -67.32,-61.45 -85.04,-119.16zm59.67 -18.28c13.47,43.75 33.03,73.73 58.8,89.59 25.9,15.99 53.27,19.55 82.25,10.57 28.85,-8.75 49.37,-27 61.8,-54.88 12.44,-27.76 11.69,-64.04 -1.99,-108.94 -13.01,-42.36 -32.47,-71.41 -58.36,-87.39 -25.9,-15.88 -53.15,-19.43 -81.78,-10.69 -28.97,8.86 -49.73,27.12 -62.15,54.65 -12.43,27.53 -12.03,63.23 1.43,107.09z"/>
  </g>
  <path class="fil2 str0" d="M2711.19 3360.96c-318.56,0 -576.79,-258.23 -576.79,-576.79 0,-318.56 258.23,-576.79 576.79,-576.79 318.56,0 576.79,258.23 576.79,576.79 0,318.56 -258.23,576.79 -576.79,576.79zm0 -100.54c-263.03,0 -476.25,-213.22 -476.25,-476.25 0,-263.03 213.22,-476.25 476.25,-476.25 263.03,0 476.25,213.22 476.25,476.25 0,263.03 -213.22,476.25 -476.25,476.25z"/>
  <path class="fil3 str1" d="M3971.58 4102.95c-598.26,-367.79 -253.76,-846.78 24.01,-670.67 92.91,58.92 28.06,63.35 118.57,1.44 278.27,-190.43 628.94,290.46 29.48,667.67 -82.5,51.91 -97.31,47.51 -172.06,1.56z"/>
  <path class="fil3 str2" d="M8106.49 3379.42l0 212.99 206.38 0m568.88 15.88c-166.5,-340.44 -562.01,-334.25 -775.26,-15.88"/>
  <path class="fil3 str2" d="M8901.75 4127.13l0 -212.99 -206.38 0m-568.88 -15.88c166.5,340.44 562.01,334.25 775.26,15.88"/>
  <path class="fil3 str3" d="M6280.9 4151.95c-222.11,0 -402.16,-180.05 -402.16,-402.16 0,-222.11 180.05,-402.16 402.16,-402.16 222.11,0 402.16,180.05 402.16,402.16 0,64.37 -15.14,125.18 -42.03,179.13l27.03 154.32c7.5,42.83 -15.36,52.38 -43.04,48.94l-167.83 -20.85c-53.24,26.01 -113.05,40.62 -176.29,40.62z"/>
  <path class="fil3 str3" d="M10410.13 3753.38c1.96,63.7 -58.43,151.25 -59.85,230.18 -2.06,114.54 62.04,195.43 170.98,145.54l554.04 -313.86c60.72,-31.92 61.22,-86.75 0,-123.72l-554.04 -313.86c-108.94,-49.89 -173.04,31 -170.98,145.54 1.42,78.93 61.81,166.48 59.85,230.18zm0 0l710.9 0"/>
  <g id="_2048549787488">
   <path class="fil4" d="M12607.31 1195.18c6.28,-105.81 162.16,-93.3 203.29,-65.06 33.06,139.23 -184.79,184.7 -203.29,65.06zm-63.26 -241.94l52.42 41.69c55.18,-53.79 175.09,-72.76 206.07,43.38 -70.96,4.4 -160.68,-4.72 -222.21,42.39 -63.03,48.28 -72.47,147.05 -14.3,207.66 52.45,54.65 151.39,61.98 218.22,32.18 72.54,-32.35 78.59,-104.93 116.36,-157.33 276.75,245.89 -462.05,538.12 -506.96,-2.91 -36.01,-433.7 309.22,-461.03 473.62,-369.82 96.02,53.28 121.14,136.77 139.16,173.17l59.37 -22.78c-65.61,-261.02 -408.23,-352.44 -600.19,-204.02 -204.09,157.79 -200.66,523.53 -34.8,704.63 165.24,180.43 597.57,117.23 606.04,-160.18 2.08,-68.16 -20.98,-122.1 -71.23,-165.57 -117.97,-102.05 -34.23,-18.98 -98.39,-147.59 -62.46,-125.19 -249.09,-124.09 -323.18,-14.9z"/>
   <path class="fil5" d="M12607.31 1195.18c50.25,110.38 190.5,80.64 203.29,-65.06 -87.43,-18.98 -173.2,-30.16 -203.29,65.06z"/>
  </g>
  <path class="fil6" d="M3655.07 1314.24l59.99 0 0 -358.44 -59.99 0 0 358.44zm29.99 -418.79c20.71,0 37.65,-16.82 37.65,-37.17 0,-20.7 -16.94,-37.17 -37.65,-37.17 -20.35,0 -37.17,16.47 -37.17,37.17 0,20.35 16.82,37.17 37.17,37.17z"/>
  <path id="1" class="fil6" d="M3838.07 1314.24l59.99 0 0 -224.69c0,-49.64 34.47,-86.81 82,-86.81 44.46,0 73.4,28.23 73.4,71.29l0 240.21 60 0 0 -227.86c0,-48.59 33.4,-83.64 80.93,-83.64 47.29,0 74.46,28.94 74.46,77.87l0 233.63 60 0 0 -247.51c0,-70.93 -45.88,-117.16 -116.82,-117.16 -50.34,0 -92.34,25.52 -112.34,68.23l-1.41 0c-15.53,-43.41 -51.64,-68.23 -100.58,-68.23 -48.35,0 -84.82,25.52 -101.76,63.4l-1.29 0 0 -57.17 -56.58 0 0 358.44z"/>
  <path id="2" class="fil6" d="M4565.14 1269.42c-43.05,0 -71.64,-22.35 -71.64,-56.47 0,-33.76 27.53,-55.17 75.76,-58.23l95.87 -5.88 0 29.29c0,51.65 -43.52,91.29 -99.99,91.29zm-13.41 51.05c48.23,0 93.76,-26.93 115.05,-67.87l1.41 0 0 61.64 56.82 0 0 -247.74c0,-71.41 -53.05,-116.93 -137.16,-116.93 -84.7,0 -137.87,47.64 -141.99,109.63l57.88 0c7.64,-35.17 36.58,-56.81 82.81,-56.81 49.53,0 78.58,26.11 78.58,69.87l0 30 -102.69 5.88c-82.82,4.82 -129.99,43.41 -129.99,104.81 0,64.47 47.88,107.52 119.28,107.52z"/>
  <path id="3" class="fil6" d="M4843.2 1314.24l59.99 0 0 -210.92c0,-60.7 36.82,-100.58 93.41,-100.58 55.17,0 82.34,31.64 82.34,89.52l0 221.98 60 0 0 -232.69c0,-81.28 -45.53,-131.98 -124.11,-131.98 -55.52,0 -93.76,24.82 -113.76,63.4l-1.29 0 0 -57.17 -56.58 0 0 358.44z"/>
  <path id="4" class="fil6" d="M5276.3 869.34l0 86.46 -53.41 0 0 49.29 53.41 0 0 216.1c0,68.93 25.53,95.76 91.29,95.76 14.23,0 30.7,-0.95 37.99,-2.71l0 -50.35c-4.11,0.71 -18,1.77 -24.82,1.77 -30.7,0 -44.47,-14.83 -44.47,-47.53l0 -213.04 69.65 0 0 -49.29 -69.65 0 0 -86.46 -59.99 0z"/>
  <path id="5" class="fil6" d="M5622.94 1269.42c-43.05,0 -71.64,-22.35 -71.64,-56.47 0,-33.76 27.53,-55.17 75.76,-58.23l95.87 -5.88 0 29.29c0,51.65 -43.52,91.29 -99.99,91.29zm-13.41 51.05c48.23,0 93.76,-26.93 115.05,-67.87l1.41 0 0 61.64 56.82 0 0 -247.74c0,-71.41 -53.05,-116.93 -137.16,-116.93 -84.7,0 -137.87,47.64 -141.99,109.63l57.88 0c7.64,-35.17 36.58,-56.81 82.81,-56.81 49.53,0 78.58,26.11 78.58,69.87l0 30 -102.69 5.88c-82.82,4.82 -129.99,43.41 -129.99,104.81 0,64.47 47.88,107.52 119.28,107.52z"/>
  <path id="6" class="fil6" d="M6036.75 1320.47c51.76,0 92.7,-25.52 115.87,-66.93l1.06 0 0 60.7 57.17 0 0 -497.37 -59.99 0 0 197.16 -1.41 0c-21.3,-39.29 -62.7,-64.46 -113.99,-64.46 -90.35,0 -151.99,73.05 -151.99,185.51 0,112.34 61.99,185.39 153.28,185.39zm11.41 -318.08c61.64,0 103.05,52.7 103.05,132.69 0,80.23 -41.41,132.58 -103.05,132.58 -63.4,0 -103.4,-51.29 -103.4,-132.58 0,-81.05 40,-132.69 103.4,-132.69z"/>
  <path id="7" class="fil6" d="M6482.32 1320.47c98.94,0 165.75,-71.4 165.75,-185.39 0,-114.46 -66.81,-185.51 -165.75,-185.51 -99.28,0 -166.1,71.05 -166.1,185.51 0,113.99 66.82,185.39 166.1,185.39zm0 -52.81c-63.4,0 -105.16,-48.24 -105.16,-132.58 0,-84.46 41.76,-132.69 105.16,-132.69 63.41,0 104.7,48.23 104.7,132.69 0,84.34 -41.29,132.58 -104.7,132.58z"/>
  <path id="8" class="fil6" d="M6744.14 1054.73c0,48.94 31.06,81.29 94.11,97.52l63.06 16.24c40.34,10.7 55.17,24.47 55.17,49.99 0,32.35 -30,53.06 -78.58,53.06 -48.59,0 -76.82,-20 -83.41,-57.29l-59.99 0c6.23,63.4 61.05,106.22 139.63,106.22 83.76,0 142.69,-44.11 142.69,-106.57 0,-52.71 -26.23,-78.82 -98.57,-97.17l-55.53 -13.41c-40.7,-10.35 -59.64,-26.82 -59.64,-51.65 0,-31.4 28.94,-53.17 72.7,-53.17 44.11,0 72.11,21.41 76.23,55.88l57.17 0c-2.71,-60.7 -57.17,-104.81 -131.28,-104.81 -78.94,0 -133.76,43.76 -133.76,105.16z"/>
  <path id="9" class="fil7 str4" d="M3655.07 1314.24l59.99 0 0 -358.44 -59.99 0 0 358.44zm29.99 -418.79c20.71,0 37.65,-16.82 37.65,-37.17 0,-20.7 -16.94,-37.17 -37.65,-37.17 -20.35,0 -37.17,16.47 -37.17,37.17 0,20.35 16.82,37.17 37.17,37.17z"/>
  <path id="10" class="fil7 str4" d="M3838.07 1314.24l59.99 0 0 -224.69c0,-49.64 34.47,-86.81 82,-86.81 44.46,0 73.4,28.23 73.4,71.29l0 240.21 60 0 0 -227.86c0,-48.59 33.4,-83.64 80.93,-83.64 47.29,0 74.46,28.94 74.46,77.87l0 233.63 60 0 0 -247.51c0,-70.93 -45.88,-117.16 -116.82,-117.16 -50.34,0 -92.34,25.52 -112.34,68.23l-1.41 0c-15.53,-43.41 -51.64,-68.23 -100.58,-68.23 -48.35,0 -84.82,25.52 -101.76,63.4l-1.29 0 0 -57.17 -56.58 0 0 358.44z"/>
  <path id="11" class="fil7 str4" d="M4565.14 1269.42c-43.05,0 -71.64,-22.35 -71.64,-56.47 0,-33.76 27.53,-55.17 75.76,-58.23l95.87 -5.88 0 29.29c0,51.65 -43.52,91.29 -99.99,91.29zm-13.41 51.05c48.23,0 93.76,-26.93 115.05,-67.87l1.41 0 0 61.64 56.82 0 0 -247.74c0,-71.41 -53.05,-116.93 -137.16,-116.93 -84.7,0 -137.87,47.64 -141.99,109.63l57.88 0c7.64,-35.17 36.58,-56.81 82.81,-56.81 49.53,0 78.58,26.11 78.58,69.87l0 30 -102.69 5.88c-82.82,4.82 -129.99,43.41 -129.99,104.81 0,64.47 47.88,107.52 119.28,107.52z"/>
  <path id="12" class="fil7 str4" d="M4843.2 1314.24l59.99 0 0 -210.92c0,-60.7 36.82,-100.58 93.41,-100.58 55.17,0 82.34,31.64 82.34,89.52l0 221.98 60 0 0 -232.69c0,-81.28 -45.53,-131.98 -124.11,-131.98 -55.52,0 -93.76,24.82 -113.76,63.4l-1.29 0 0 -57.17 -56.58 0 0 358.44z"/>
  <path id="13" class="fil7 str4" d="M5276.3 869.34l0 86.46 -53.41 0 0 49.29 53.41 0 0 216.1c0,68.93 25.53,95.76 91.29,95.76 14.23,0 30.7,-0.95 37.99,-2.71l0 -50.35c-4.11,0.71 -18,1.77 -24.82,1.77 -30.7,0 -44.47,-14.83 -44.47,-47.53l0 -213.04 69.65 0 0 -49.29 -69.65 0 0 -86.46 -59.99 0z"/>
  <path id="14" class="fil7 str4" d="M5622.94 1269.42c-43.05,0 -71.64,-22.35 -71.64,-56.47 0,-33.76 27.53,-55.17 75.76,-58.23l95.87 -5.88 0 29.29c0,51.65 -43.52,91.29 -99.99,91.29zm-13.41 51.05c48.23,0 93.76,-26.93 115.05,-67.87l1.41 0 0 61.64 56.82 0 0 -247.74c0,-71.41 -53.05,-116.93 -137.16,-116.93 -84.7,0 -137.87,47.64 -141.99,109.63l57.88 0c7.64,-35.17 36.58,-56.81 82.81,-56.81 49.53,0 78.58,26.11 78.58,69.87l0 30 -102.69 5.88c-82.82,4.82 -129.99,43.41 -129.99,104.81 0,64.47 47.88,107.52 119.28,107.52z"/>
  <path id="15" class="fil7 str4" d="M6036.75 1320.47c51.76,0 92.7,-25.52 115.87,-66.93l1.06 0 0 60.7 57.17 0 0 -497.37 -59.99 0 0 197.16 -1.41 0c-21.3,-39.29 -62.7,-64.46 -113.99,-64.46 -90.35,0 -151.99,73.05 -151.99,185.51 0,112.34 61.99,185.39 153.28,185.39zm11.41 -318.08c61.64,0 103.05,52.7 103.05,132.69 0,80.23 -41.41,132.58 -103.05,132.58 -63.4,0 -103.4,-51.29 -103.4,-132.58 0,-81.05 40,-132.69 103.4,-132.69z"/>
  <path id="16" class="fil7 str4" d="M6482.32 1320.47c98.94,0 165.75,-71.4 165.75,-185.39 0,-114.46 -66.81,-185.51 -165.75,-185.51 -99.28,0 -166.1,71.05 -166.1,185.51 0,113.99 66.82,185.39 166.1,185.39zm0 -52.81c-63.4,0 -105.16,-48.24 -105.16,-132.58 0,-84.46 41.76,-132.69 105.16,-132.69 63.41,0 104.7,48.23 104.7,132.69 0,84.34 -41.29,132.58 -104.7,132.58z"/>
  <path id="17" class="fil7 str4" d="M6744.14 1054.73c0,48.94 31.06,81.29 94.11,97.52l63.06 16.24c40.34,10.7 55.17,24.47 55.17,49.99 0,32.35 -30,53.06 -78.58,53.06 -48.59,0 -76.82,-20 -83.41,-57.29l-59.99 0c6.23,63.4 61.05,106.22 139.63,106.22 83.76,0 142.69,-44.11 142.69,-106.57 0,-52.71 -26.23,-78.82 -98.57,-97.17l-55.53 -13.41c-40.7,-10.35 -59.64,-26.82 -59.64,-51.65 0,-31.4 28.94,-53.17 72.7,-53.17 44.11,0 72.11,21.41 76.23,55.88l57.17 0c-2.71,-60.7 -57.17,-104.81 -131.28,-104.81 -78.94,0 -133.76,43.76 -133.76,105.16z"/>
  <path class="fil8" d="M8171.1 983.06l0 0.33 56.22 0 0 -0.33c0,-51.92 41.34,-91.39 95.91,-91.39 51.36,0 92.37,35.83 92.37,80.81 0,38.69 -14.88,63.6 -77.49,129.41l-164.03 172.85 0 40.01 307.44 0 0 -51.7 -227.08 0 0 -1.21 117.95 -121.81c77.82,-80.36 101.41,-119.16 101.41,-171.19 0,-71.32 -65.58,-127.87 -148.92,-127.87 -87.86,0 -153.78,60.74 -153.78,142.09z"/>
  <path id="1" class="fil8" d="M8747.92 1322.47c97.22,0 166.01,-65.48 166.01,-159.18 0,-90.39 -64.6,-155.98 -154.11,-155.98 -44.53,0 -83.33,16.75 -104.28,44.86l-1.32 0 14.22 -151.79 219.03 0 0 -51.7 -266.76 0 -25.57 261.04 54.56 0c19.07,-32.63 56.22,-52.36 99.87,-52.36 61.95,0 106.16,44.86 106.16,107.58 0,62.62 -43.88,106.49 -107.15,106.49 -55.89,0 -98.22,-34.17 -103.4,-83.89l-57.1 0c4.85,79.37 70.66,134.93 159.84,134.93z"/>
  <path id="2" class="fil8" d="M9108.94 1314.75l56.22 0 0 -210.55c0,-46.51 32.29,-81.35 76.83,-81.35 41.67,0 68.78,26.46 68.78,66.8l0 225.1 56.22 0 0 -213.52c0,-45.53 31.31,-78.38 75.84,-78.38 44.32,0 69.78,27.12 69.78,72.98l0 218.92 56.22 0 0 -231.93c0,-66.47 -42.99,-109.79 -109.46,-109.79 -47.18,0 -86.53,23.92 -105.27,63.93l-1.33 0c-14.55,-40.67 -48.39,-63.93 -94.25,-63.93 -45.3,0 -79.47,23.92 -95.35,59.41l-1.21 0 0 -53.57 -53.02 0 0 335.88z"/>
  <path id="3" class="fil8" d="M9682.33 1314.75l56.22 0 0 -335.88 -56.22 0 0 335.88zm28.11 -392.43c19.4,0 35.28,-15.76 35.28,-34.83 0,-19.41 -15.88,-34.84 -35.28,-34.84 -19.07,0 -34.83,15.43 -34.83,34.84 0,19.07 15.76,34.83 34.83,34.83z"/>
  <path id="4" class="fil8" d="M9853.83 1314.75l56.22 0 0 -197.65c0,-56.88 34.5,-94.25 87.52,-94.25 51.7,0 77.16,29.65 77.16,83.89l0 208.01 56.22 0 0 -218.04c0,-76.17 -42.66,-123.68 -116.29,-123.68 -52.03,0 -87.86,23.26 -106.6,59.41l-1.21 0 0 -53.57 -53.02 0 0 335.88z"/>
  <path id="5" class="fil7 str5" d="M8171.1 983.06l0 0.33 56.22 0 0 -0.33c0,-51.92 41.34,-91.39 95.91,-91.39 51.36,0 92.37,35.83 92.37,80.81 0,38.69 -14.88,63.6 -77.49,129.41l-164.03 172.85 0 40.01 307.44 0 0 -51.7 -227.08 0 0 -1.21 117.95 -121.81c77.82,-80.36 101.41,-119.16 101.41,-171.19 0,-71.32 -65.58,-127.87 -148.92,-127.87 -87.86,0 -153.78,60.74 -153.78,142.09z"/>
  <path id="6" class="fil7 str5" d="M8747.92 1322.47c97.22,0 166.01,-65.48 166.01,-159.18 0,-90.39 -64.6,-155.98 -154.11,-155.98 -44.53,0 -83.33,16.75 -104.28,44.86l-1.32 0 14.22 -151.79 219.03 0 0 -51.7 -266.76 0 -25.57 261.04 54.56 0c19.07,-32.63 56.22,-52.36 99.87,-52.36 61.95,0 106.16,44.86 106.16,107.58 0,62.62 -43.88,106.49 -107.15,106.49 -55.89,0 -98.22,-34.17 -103.4,-83.89l-57.1 0c4.85,79.37 70.66,134.93 159.84,134.93z"/>
  <path id="7" class="fil7 str5" d="M9108.94 1314.75l56.22 0 0 -210.55c0,-46.51 32.29,-81.35 76.83,-81.35 41.67,0 68.78,26.46 68.78,66.8l0 225.1 56.22 0 0 -213.52c0,-45.53 31.31,-78.38 75.84,-78.38 44.32,0 69.78,27.12 69.78,72.98l0 218.92 56.22 0 0 -231.93c0,-66.47 -42.99,-109.79 -109.46,-109.79 -47.18,0 -86.53,23.92 -105.27,63.93l-1.33 0c-14.55,-40.67 -48.39,-63.93 -94.25,-63.93 -45.3,0 -79.47,23.92 -95.35,59.41l-1.21 0 0 -53.57 -53.02 0 0 335.88z"/>
  <path id="8" class="fil7 str5" d="M9682.33 1314.75l56.22 0 0 -335.88 -56.22 0 0 335.88zm28.11 -392.43c19.4,0 35.28,-15.76 35.28,-34.83 0,-19.41 -15.88,-34.84 -35.28,-34.84 -19.07,0 -34.83,15.43 -34.83,34.84 0,19.07 15.76,34.83 34.83,34.83z"/>
  <path id="9" class="fil7 str5" d="M9853.83 1314.75l56.22 0 0 -197.65c0,-56.88 34.5,-94.25 87.52,-94.25 51.7,0 77.16,29.65 77.16,83.89l0 208.01 56.22 0 0 -218.04c0,-76.17 -42.66,-123.68 -116.29,-123.68 -52.03,0 -87.86,23.26 -106.6,59.41l-1.21 0 0 -53.57 -53.02 0 0 335.88z"/>
  <polygon class="fil9" points="3949.39,2411.94 3703.41,2411.94 3703.41,2241.02 3936.69,2241.02 3936.69,2185.96 3703.41,2185.96 3703.41,2026.33 3949.39,2026.33 3949.39,1970.45 3641.3,1970.45 3641.3,2467.82 3949.39,2467.82 "/>
  <path id="1" class="fil9" d="M4037.2 2208.31c0,48.94 31.06,81.29 94.11,97.52l63.06 16.24c40.34,10.7 55.17,24.47 55.17,49.99 0,32.35 -30,53.06 -78.58,53.06 -48.59,0 -76.82,-20 -83.41,-57.29l-59.99 0c6.23,63.4 61.05,106.22 139.63,106.22 83.76,0 142.69,-44.11 142.69,-106.57 0,-52.71 -26.23,-78.82 -98.57,-97.17l-55.53 -13.41c-40.7,-10.35 -59.64,-26.82 -59.64,-51.65 0,-31.4 28.94,-53.17 72.7,-53.17 44.11,0 72.11,21.41 76.23,55.88l57.17 0c-2.71,-60.7 -57.17,-104.81 -131.28,-104.81 -78.94,0 -133.76,43.76 -133.76,105.16z"/>
  <path id="2" class="fil9" d="M4691.32 2226.9c-7.53,-64.46 -60.94,-123.75 -150.58,-123.75 -98.93,0 -164.69,72.46 -164.69,185.51 0,115.4 66.11,185.39 165.4,185.39 81.28,0 141.28,-50.34 150.57,-121.63l-58.93 0c-10.36,43.05 -42.35,68.82 -91.29,68.82 -62.11,0 -104.81,-49.18 -104.81,-132.58 0,-81.41 42.11,-132.69 104.1,-132.69 52.71,0 83.06,31.99 91.64,70.93l58.59 0z"/>
  <path id="3" class="fil9" d="M4768.9 2467.82l59.99 0 0 -223.27c0,-50.71 30.35,-84.11 76.82,-84.11 14.47,0 27.29,1.64 32.11,3.41l0 -58.23c-4.82,-0.71 -13.88,-2.47 -24.11,-2.47 -42.12,0 -75.17,25.17 -86.94,64.81l-1.29 0 0 -58.58 -56.58 0 0 358.44z"/>
  <path id="4" class="fil9" d="M5134.57 2155.26c56.47,0 94.11,42.7 95.4,102.7l-194.69 0c3.77,-59.65 43.06,-102.7 99.29,-102.7zm94.11 209.86c-10,33.76 -43.53,56.82 -88.93,56.82 -64.47,0 -104.82,-45.05 -104.82,-113.64l0 -3.52 257.16 0 0 -22.71c0,-108.58 -59.65,-178.92 -156.46,-178.92 -98.93,0 -162.34,75.52 -162.34,186.8 0,112.7 62.35,184.1 165.04,184.1 78.23,0 138.93,-46.23 149.29,-108.93l-58.94 0z"/>
  <polygon id="5" class="fil9" points="5667.99,2109.38 5605.64,2109.38 5506.36,2404.06 5504.95,2404.06 5406.13,2109.38 5342.96,2109.38 5474.95,2467.82 5536.36,2467.82 "/>
  <path id="6" class="fil9" d="M5847.91 2423c-43.05,0 -71.64,-22.35 -71.64,-56.47 0,-33.76 27.53,-55.17 75.76,-58.23l95.87 -5.88 0 29.29c0,51.65 -43.52,91.29 -99.99,91.29zm-13.41 51.05c48.23,0 93.76,-26.93 115.05,-67.87l1.41 0 0 61.64 56.82 0 0 -247.74c0,-71.41 -53.05,-116.93 -137.16,-116.93 -84.7,0 -137.87,47.64 -141.99,109.63l57.88 0c7.64,-35.17 36.58,-56.81 82.81,-56.81 49.53,0 78.58,26.11 78.58,69.87l0 30 -102.69 5.88c-82.82,4.82 -129.99,43.41 -129.99,104.81 0,64.47 47.88,107.52 119.28,107.52z"/>
  <path id="7" class="fil9" d="M6346.92 2423c-43.05,0 -71.64,-22.35 -71.64,-56.47 0,-33.76 27.53,-55.17 75.76,-58.23l95.87 -5.88 0 29.29c0,51.65 -43.52,91.29 -99.99,91.29zm-13.41 51.05c48.23,0 93.76,-26.93 115.05,-67.87l1.41 0 0 61.64 56.82 0 0 -247.74c0,-71.41 -53.05,-116.93 -137.16,-116.93 -84.7,0 -137.87,47.64 -141.99,109.63l57.88 0c7.64,-35.17 36.58,-56.81 82.81,-56.81 49.53,0 78.58,26.11 78.58,69.87l0 30 -102.69 5.88c-82.82,4.82 -129.99,43.41 -129.99,104.81 0,64.47 47.88,107.52 119.28,107.52z"/>
  <path id="8" class="fil9" d="M6739.76 2103.15c-91.99,0 -152.57,72.81 -152.57,185.51 0,112.34 60.58,185.39 151.28,185.39 50.58,0 92.35,-25.17 114.7,-66.22l1.41 0 0 179.63 59.99 0 0 -478.08 -57.17 0 0 60.7 -1.41 0c-23.06,-41.41 -64.11,-66.93 -116.23,-66.93zm10.71 318.09c-62.7,0 -101.99,-50.94 -101.99,-132.58 0,-82.11 39.29,-132.69 101.99,-132.69 61.41,0 104.11,52.7 104.11,132.69 0,79.87 -42.7,132.58 -104.11,132.58z"/>
  <path id="9" class="fil9" d="M7308.48 2109.38l-59.99 0 0 210.57c0,61.05 -35.17,101.05 -93.4,101.05 -55.41,0 -82.7,-31.41 -82.7,-89.64l0 -221.98 -60 0 0 232.69c0,81.28 45.88,131.98 124.11,131.98 55.17,0 92.34,-23.17 113.75,-64.46l1.42 0 0 58.23 56.81 0 0 -358.44z"/>
  <path id="10" class="fil9" d="M7410.77 2467.82l59.99 0 0 -358.44 -59.99 0 0 358.44zm29.99 -418.79c20.71,0 37.65,-16.82 37.65,-37.17 0,-20.7 -16.94,-37.17 -37.65,-37.17 -20.35,0 -37.17,16.47 -37.17,37.17 0,20.35 16.82,37.17 37.17,37.17z"/>
  <path id="11" class="fil9" d="M7720.61 1970.45l4.12 332.33 53.76 0 4.12 -332.33 -62 0zm31.06 500.78c22.35,0 39.29,-17.17 39.29,-39.29 0,-22.35 -16.94,-39.29 -39.29,-39.29 -22.12,0 -39.29,16.94 -39.29,39.29 0,22.12 17.17,39.29 39.29,39.29z"/>
  <path id="12" class="fil10" d="M8296.8 2166.32c46.93,0 76.93,37.17 76.93,96.11 0,58.93 -30.35,96.46 -77.52,96.46 -45.17,0 -72.82,-36.47 -72.82,-96.46 0,-60.35 27.29,-96.11 73.41,-96.11zm12.11 -193.04c-167.51,0 -284.68,115.4 -284.68,287.38 0,185.4 122.34,287.86 290.56,287.86 44.47,0 85.76,-6.24 116.11,-16.94l0 -43.41c-22.35,10 -69.29,16.47 -115.4,16.47 -138.58,0 -242.68,-85.76 -242.68,-241.86 0,-144.11 97.52,-246.1 231.62,-246.1 137.17,0 232.33,84.47 232.33,209.51 0,89.29 -30.35,139.64 -71.4,139.64 -26.47,0 -38.94,-15.88 -38.94,-38.23l0 -202.34 -51.99 0 0 42 -2.83 0c-13.05,-29.29 -46.46,-48.59 -83.4,-48.59 -70.58,0 -119.87,58.59 -119.87,142.34 0,87.53 48.23,146.46 119.87,146.46 40.7,0 72.7,-20 87.52,-54.82l2.82 0c4.12,34.47 37.88,58 77.17,58 80.7,0 129.64,-73.41 129.64,-183.75 0,-151.99 -116.23,-253.62 -276.45,-253.62z"/>
  <path id="13" class="fil10" d="M8671.41 2467.82l59.99 0 0 -358.44 -59.99 0 0 358.44zm29.99 -418.79c20.71,0 37.65,-16.82 37.65,-37.17 0,-20.7 -16.94,-37.17 -37.65,-37.17 -20.35,0 -37.17,16.47 -37.17,37.17 0,20.35 16.82,37.17 37.17,37.17z"/>
  <path id="14" class="fil10" d="M8834.15 2467.82l59.99 0 0 -224.69c0,-49.64 34.47,-86.81 82,-86.81 44.46,0 73.4,28.23 73.4,71.29l0 240.21 60 0 0 -227.86c0,-48.59 33.4,-83.64 80.93,-83.64 47.29,0 74.46,28.94 74.46,77.87l0 233.63 60 0 0 -247.51c0,-70.93 -45.88,-117.16 -116.82,-117.16 -50.34,0 -92.34,25.52 -112.34,68.23l-1.41 0c-15.53,-43.41 -51.64,-68.23 -100.58,-68.23 -48.35,0 -84.82,25.52 -101.76,63.4l-1.29 0 0 -57.17 -56.58 0 0 358.44z"/>
  <path id="15" class="fil10" d="M9540.96 2423c-43.05,0 -71.64,-22.35 -71.64,-56.47 0,-33.76 27.53,-55.17 75.76,-58.23l95.87 -5.88 0 29.29c0,51.65 -43.52,91.29 -99.99,91.29zm-13.41 51.05c48.23,0 93.76,-26.93 115.05,-67.87l1.41 0 0 61.64 56.82 0 0 -247.74c0,-71.41 -53.05,-116.93 -137.16,-116.93 -84.7,0 -137.87,47.64 -141.99,109.63l57.88 0c7.64,-35.17 36.58,-56.81 82.81,-56.81 49.53,0 78.58,26.11 78.58,69.87l0 30 -102.69 5.88c-82.82,4.82 -129.99,43.41 -129.99,104.81 0,64.47 47.88,107.52 119.28,107.52z"/>
  <path id="16" class="fil10" d="M9798.76 2467.82l59.99 0 0 -210.92c0,-60.7 36.82,-100.58 93.41,-100.58 55.17,0 82.34,31.64 82.34,89.52l0 221.98 60 0 0 -232.69c0,-81.28 -45.53,-131.98 -124.11,-131.98 -55.52,0 -93.76,24.82 -113.76,63.4l-1.29 0 0 -57.17 -56.58 0 0 358.44z"/>
  <path id="17" class="fil10" d="M10211.6 2022.92l0 86.46 -53.41 0 0 49.29 53.41 0 0 216.1c0,68.93 25.53,95.76 91.29,95.76 14.23,0 30.7,-0.95 37.99,-2.71l0 -50.35c-4.11,0.71 -18,1.77 -24.82,1.77 -30.7,0 -44.47,-14.83 -44.47,-47.53l0 -213.04 69.65 0 0 -49.29 -69.65 0 0 -86.46 -59.99 0z"/>
  <path id="18" class="fil10" d="M10537.98 2423c-43.05,0 -71.64,-22.35 -71.64,-56.47 0,-33.76 27.53,-55.17 75.76,-58.23l95.87 -5.88 0 29.29c0,51.65 -43.52,91.29 -99.99,91.29zm-13.41 51.05c48.23,0 93.76,-26.93 115.05,-67.87l1.41 0 0 61.64 56.82 0 0 -247.74c0,-71.41 -53.05,-116.93 -137.16,-116.93 -84.7,0 -137.87,47.64 -141.99,109.63l57.88 0c7.64,-35.17 36.58,-56.81 82.81,-56.81 49.53,0 78.58,26.11 78.58,69.87l0 30 -102.69 5.88c-82.82,4.82 -129.99,43.41 -129.99,104.81 0,64.47 47.88,107.52 119.28,107.52z"/>
  <path id="19" class="fil10" d="M10931.53 2474.05c51.76,0 92.7,-25.52 115.87,-66.93l1.06 0 0 60.7 57.17 0 0 -497.37 -59.99 0 0 197.16 -1.41 0c-21.3,-39.29 -62.7,-64.46 -113.99,-64.46 -90.35,0 -151.99,73.05 -151.99,185.51 0,112.34 61.99,185.39 153.28,185.39zm11.41 -318.08c61.64,0 103.05,52.7 103.05,132.69 0,80.23 -41.41,132.58 -103.05,132.58 -63.4,0 -103.4,-51.29 -103.4,-132.58 0,-81.05 40,-132.69 103.4,-132.69z"/>
  <path id="20" class="fil10" d="M11356.84 2474.05c98.94,0 165.75,-71.4 165.75,-185.39 0,-114.46 -66.81,-185.51 -165.75,-185.51 -99.28,0 -166.1,71.05 -166.1,185.51 0,113.99 66.82,185.39 166.1,185.39zm0 -52.81c-63.4,0 -105.16,-48.24 -105.16,-132.58 0,-84.46 41.76,-132.69 105.16,-132.69 63.41,0 104.7,48.23 104.7,132.69 0,84.34 -41.29,132.58 -104.7,132.58z"/>
  <path id="21" class="fil10" d="M11598.4 2208.31c0,48.94 31.06,81.29 94.11,97.52l63.06 16.24c40.34,10.7 55.17,24.47 55.17,49.99 0,32.35 -30,53.06 -78.58,53.06 -48.59,0 -76.82,-20 -83.41,-57.29l-59.99 0c6.23,63.4 61.05,106.22 139.63,106.22 83.76,0 142.69,-44.11 142.69,-106.57 0,-52.71 -26.23,-78.82 -98.57,-97.17l-55.53 -13.41c-40.7,-10.35 -59.64,-26.82 -59.64,-51.65 0,-31.4 28.94,-53.17 72.7,-53.17 44.11,0 72.11,21.41 76.23,55.88l57.17 0c-2.71,-60.7 -57.17,-104.81 -131.28,-104.81 -78.94,0 -133.76,43.76 -133.76,105.16z"/>
  <polygon id="22" class="fil7 str6" points="3949.39,2411.94 3703.41,2411.94 3703.41,2241.02 3936.69,2241.02 3936.69,2185.96 3703.41,2185.96 3703.41,2026.33 3949.39,2026.33 3949.39,1970.45 3641.3,1970.45 3641.3,2467.82 3949.39,2467.82 "/>
  <path id="23" class="fil7 str6" d="M4037.2 2208.31c0,48.94 31.06,81.29 94.11,97.52l63.06 16.24c40.34,10.7 55.17,24.47 55.17,49.99 0,32.35 -30,53.06 -78.58,53.06 -48.59,0 -76.82,-20 -83.41,-57.29l-59.99 0c6.23,63.4 61.05,106.22 139.63,106.22 83.76,0 142.69,-44.11 142.69,-106.57 0,-52.71 -26.23,-78.82 -98.57,-97.17l-55.53 -13.41c-40.7,-10.35 -59.64,-26.82 -59.64,-51.65 0,-31.4 28.94,-53.17 72.7,-53.17 44.11,0 72.11,21.41 76.23,55.88l57.17 0c-2.71,-60.7 -57.17,-104.81 -131.28,-104.81 -78.94,0 -133.76,43.76 -133.76,105.16z"/>
  <path id="24" class="fil7 str6" d="M4691.32 2226.9c-7.53,-64.46 -60.94,-123.75 -150.58,-123.75 -98.93,0 -164.69,72.46 -164.69,185.51 0,115.4 66.11,185.39 165.4,185.39 81.28,0 141.28,-50.34 150.57,-121.63l-58.93 0c-10.36,43.05 -42.35,68.82 -91.29,68.82 -62.11,0 -104.81,-49.18 -104.81,-132.58 0,-81.41 42.11,-132.69 104.1,-132.69 52.71,0 83.06,31.99 91.64,70.93l58.59 0z"/>
  <path id="25" class="fil7 str6" d="M4768.9 2467.82l59.99 0 0 -223.27c0,-50.71 30.35,-84.11 76.82,-84.11 14.47,0 27.29,1.64 32.11,3.41l0 -58.23c-4.82,-0.71 -13.88,-2.47 -24.11,-2.47 -42.12,0 -75.17,25.17 -86.94,64.81l-1.29 0 0 -58.58 -56.58 0 0 358.44z"/>
  <path id="26" class="fil7 str6" d="M5134.57 2155.26c56.47,0 94.11,42.7 95.4,102.7l-194.69 0c3.77,-59.65 43.06,-102.7 99.29,-102.7zm94.11 209.86c-10,33.76 -43.53,56.82 -88.93,56.82 -64.47,0 -104.82,-45.05 -104.82,-113.64l0 -3.52 257.16 0 0 -22.71c0,-108.58 -59.65,-178.92 -156.46,-178.92 -98.93,0 -162.34,75.52 -162.34,186.8 0,112.7 62.35,184.1 165.04,184.1 78.23,0 138.93,-46.23 149.29,-108.93l-58.94 0z"/>
  <polygon id="27" class="fil7 str6" points="5667.99,2109.38 5605.64,2109.38 5506.36,2404.06 5504.95,2404.06 5406.13,2109.38 5342.96,2109.38 5474.95,2467.82 5536.36,2467.82 "/>
  <path id="28" class="fil7 str6" d="M5847.91 2423c-43.05,0 -71.64,-22.35 -71.64,-56.47 0,-33.76 27.53,-55.17 75.76,-58.23l95.87 -5.88 0 29.29c0,51.65 -43.52,91.29 -99.99,91.29zm-13.41 51.05c48.23,0 93.76,-26.93 115.05,-67.87l1.41 0 0 61.64 56.82 0 0 -247.74c0,-71.41 -53.05,-116.93 -137.16,-116.93 -84.7,0 -137.87,47.64 -141.99,109.63l57.88 0c7.64,-35.17 36.58,-56.81 82.81,-56.81 49.53,0 78.58,26.11 78.58,69.87l0 30 -102.69 5.88c-82.82,4.82 -129.99,43.41 -129.99,104.81 0,64.47 47.88,107.52 119.28,107.52z"/>
  <path id="29" class="fil7 str6" d="M6346.92 2423c-43.05,0 -71.64,-22.35 -71.64,-56.47 0,-33.76 27.53,-55.17 75.76,-58.23l95.87 -5.88 0 29.29c0,51.65 -43.52,91.29 -99.99,91.29zm-13.41 51.05c48.23,0 93.76,-26.93 115.05,-67.87l1.41 0 0 61.64 56.82 0 0 -247.74c0,-71.41 -53.05,-116.93 -137.16,-116.93 -84.7,0 -137.87,47.64 -141.99,109.63l57.88 0c7.64,-35.17 36.58,-56.81 82.81,-56.81 49.53,0 78.58,26.11 78.58,69.87l0 30 -102.69 5.88c-82.82,4.82 -129.99,43.41 -129.99,104.81 0,64.47 47.88,107.52 119.28,107.52z"/>
  <path id="30" class="fil7 str6" d="M6739.76 2103.15c-91.99,0 -152.57,72.81 -152.57,185.51 0,112.34 60.58,185.39 151.28,185.39 50.58,0 92.35,-25.17 114.7,-66.22l1.41 0 0 179.63 59.99 0 0 -478.08 -57.17 0 0 60.7 -1.41 0c-23.06,-41.41 -64.11,-66.93 -116.23,-66.93zm10.71 318.09c-62.7,0 -101.99,-50.94 -101.99,-132.58 0,-82.11 39.29,-132.69 101.99,-132.69 61.41,0 104.11,52.7 104.11,132.69 0,79.87 -42.7,132.58 -104.11,132.58z"/>
  <path id="31" class="fil7 str6" d="M7308.48 2109.38l-59.99 0 0 210.57c0,61.05 -35.17,101.05 -93.4,101.05 -55.41,0 -82.7,-31.41 -82.7,-89.64l0 -221.98 -60 0 0 232.69c0,81.28 45.88,131.98 124.11,131.98 55.17,0 92.34,-23.17 113.75,-64.46l1.42 0 0 58.23 56.81 0 0 -358.44z"/>
  <path id="32" class="fil7 str6" d="M7410.77 2467.82l59.99 0 0 -358.44 -59.99 0 0 358.44zm29.99 -418.79c20.71,0 37.65,-16.82 37.65,-37.17 0,-20.7 -16.94,-37.17 -37.65,-37.17 -20.35,0 -37.17,16.47 -37.17,37.17 0,20.35 16.82,37.17 37.17,37.17z"/>
  <path id="33" class="fil7 str6" d="M7720.61 1970.45l4.12 332.33 53.76 0 4.12 -332.33 -62 0zm31.06 500.78c22.35,0 39.29,-17.17 39.29,-39.29 0,-22.35 -16.94,-39.29 -39.29,-39.29 -22.12,0 -39.29,16.94 -39.29,39.29 0,22.12 17.17,39.29 39.29,39.29z"/>
  <path id="34" class="fil7" d="M8296.8 2166.32c46.93,0 76.93,37.17 76.93,96.11 0,58.93 -30.35,96.46 -77.52,96.46 -45.17,0 -72.82,-36.47 -72.82,-96.46 0,-60.35 27.29,-96.11 73.41,-96.11zm12.11 -193.04c-167.51,0 -284.68,115.4 -284.68,287.38 0,185.4 122.34,287.86 290.56,287.86 44.47,0 85.76,-6.24 116.11,-16.94l0 -43.41c-22.35,10 -69.29,16.47 -115.4,16.47 -138.58,0 -242.68,-85.76 -242.68,-241.86 0,-144.11 97.52,-246.1 231.62,-246.1 137.17,0 232.33,84.47 232.33,209.51 0,89.29 -30.35,139.64 -71.4,139.64 -26.47,0 -38.94,-15.88 -38.94,-38.23l0 -202.34 -51.99 0 0 42 -2.83 0c-13.05,-29.29 -46.46,-48.59 -83.4,-48.59 -70.58,0 -119.87,58.59 -119.87,142.34 0,87.53 48.23,146.46 119.87,146.46 40.7,0 72.7,-20 87.52,-54.82l2.82 0c4.12,34.47 37.88,58 77.17,58 80.7,0 129.64,-73.41 129.64,-183.75 0,-151.99 -116.23,-253.62 -276.45,-253.62z"/>
  <path id="35" class="fil7" d="M8671.41 2467.82l59.99 0 0 -358.44 -59.99 0 0 358.44zm29.99 -418.79c20.71,0 37.65,-16.82 37.65,-37.17 0,-20.7 -16.94,-37.17 -37.65,-37.17 -20.35,0 -37.17,16.47 -37.17,37.17 0,20.35 16.82,37.17 37.17,37.17z"/>
  <path id="36" class="fil7" d="M8834.15 2467.82l59.99 0 0 -224.69c0,-49.64 34.47,-86.81 82,-86.81 44.46,0 73.4,28.23 73.4,71.29l0 240.21 60 0 0 -227.86c0,-48.59 33.4,-83.64 80.93,-83.64 47.29,0 74.46,28.94 74.46,77.87l0 233.63 60 0 0 -247.51c0,-70.93 -45.88,-117.16 -116.82,-117.16 -50.34,0 -92.34,25.52 -112.34,68.23l-1.41 0c-15.53,-43.41 -51.64,-68.23 -100.58,-68.23 -48.35,0 -84.82,25.52 -101.76,63.4l-1.29 0 0 -57.17 -56.58 0 0 358.44z"/>
  <path id="37" class="fil7" d="M9540.96 2423c-43.05,0 -71.64,-22.35 -71.64,-56.47 0,-33.76 27.53,-55.17 75.76,-58.23l95.87 -5.88 0 29.29c0,51.65 -43.52,91.29 -99.99,91.29zm-13.41 51.05c48.23,0 93.76,-26.93 115.05,-67.87l1.41 0 0 61.64 56.82 0 0 -247.74c0,-71.41 -53.05,-116.93 -137.16,-116.93 -84.7,0 -137.87,47.64 -141.99,109.63l57.88 0c7.64,-35.17 36.58,-56.81 82.81,-56.81 49.53,0 78.58,26.11 78.58,69.87l0 30 -102.69 5.88c-82.82,4.82 -129.99,43.41 -129.99,104.81 0,64.47 47.88,107.52 119.28,107.52z"/>
  <path id="38" class="fil7" d="M9798.76 2467.82l59.99 0 0 -210.92c0,-60.7 36.82,-100.58 93.41,-100.58 55.17,0 82.34,31.64 82.34,89.52l0 221.98 60 0 0 -232.69c0,-81.28 -45.53,-131.98 -124.11,-131.98 -55.52,0 -93.76,24.82 -113.76,63.4l-1.29 0 0 -57.17 -56.58 0 0 358.44z"/>
  <path id="39" class="fil7" d="M10211.6 2022.92l0 86.46 -53.41 0 0 49.29 53.41 0 0 216.1c0,68.93 25.53,95.76 91.29,95.76 14.23,0 30.7,-0.95 37.99,-2.71l0 -50.35c-4.11,0.71 -18,1.77 -24.82,1.77 -30.7,0 -44.47,-14.83 -44.47,-47.53l0 -213.04 69.65 0 0 -49.29 -69.65 0 0 -86.46 -59.99 0z"/>
  <path id="40" class="fil7" d="M10537.98 2423c-43.05,0 -71.64,-22.35 -71.64,-56.47 0,-33.76 27.53,-55.17 75.76,-58.23l95.87 -5.88 0 29.29c0,51.65 -43.52,91.29 -99.99,91.29zm-13.41 51.05c48.23,0 93.76,-26.93 115.05,-67.87l1.41 0 0 61.64 56.82 0 0 -247.74c0,-71.41 -53.05,-116.93 -137.16,-116.93 -84.7,0 -137.87,47.64 -141.99,109.63l57.88 0c7.64,-35.17 36.58,-56.81 82.81,-56.81 49.53,0 78.58,26.11 78.58,69.87l0 30 -102.69 5.88c-82.82,4.82 -129.99,43.41 -129.99,104.81 0,64.47 47.88,107.52 119.28,107.52z"/>
  <path id="41" class="fil7" d="M10931.53 2474.05c51.76,0 92.7,-25.52 115.87,-66.93l1.06 0 0 60.7 57.17 0 0 -497.37 -59.99 0 0 197.16 -1.41 0c-21.3,-39.29 -62.7,-64.46 -113.99,-64.46 -90.35,0 -151.99,73.05 -151.99,185.51 0,112.34 61.99,185.39 153.28,185.39zm11.41 -318.08c61.64,0 103.05,52.7 103.05,132.69 0,80.23 -41.41,132.58 -103.05,132.58 -63.4,0 -103.4,-51.29 -103.4,-132.58 0,-81.05 40,-132.69 103.4,-132.69z"/>
  <path id="42" class="fil7" d="M11356.84 2474.05c98.94,0 165.75,-71.4 165.75,-185.39 0,-114.46 -66.81,-185.51 -165.75,-185.51 -99.28,0 -166.1,71.05 -166.1,185.51 0,113.99 66.82,185.39 166.1,185.39zm0 -52.81c-63.4,0 -105.16,-48.24 -105.16,-132.58 0,-84.46 41.76,-132.69 105.16,-132.69 63.41,0 104.7,48.23 104.7,132.69 0,84.34 -41.29,132.58 -104.7,132.58z"/>
  <path id="43" class="fil7" d="M11598.4 2208.31c0,48.94 31.06,81.29 94.11,97.52l63.06 16.24c40.34,10.7 55.17,24.47 55.17,49.99 0,32.35 -30,53.06 -78.58,53.06 -48.59,0 -76.82,-20 -83.41,-57.29l-59.99 0c6.23,63.4 61.05,106.22 139.63,106.22 83.76,0 142.69,-44.11 142.69,-106.57 0,-52.71 -26.23,-78.82 -98.57,-97.17l-55.53 -13.41c-40.7,-10.35 -59.64,-26.82 -59.64,-51.65 0,-31.4 28.94,-53.17 72.7,-53.17 44.11,0 72.11,21.41 76.23,55.88l57.17 0c-2.71,-60.7 -57.17,-104.81 -131.28,-104.81 -78.94,0 -133.76,43.76 -133.76,105.16z"/>
  <rect class="fil3 str7" x="10" y="10" width="14080.86" height="4699.01" rx="2091.94" ry="1000"/>
  <circle class="fil11 str8" cx="2711.19" cy="2784.17" r="476.25"/>
  <polyline class="fil3 str9" points="2489.28,2799.45 2655.97,2952.91 2965.54,2651.28 "/>
 </g>
</svg>
