<?xml version="1.0" encoding="UTF-8"?>
<!DOCTYPE svg PUBLIC "-//W3C//DTD SVG 1.1//EN" "http://www.w3.org/Graphics/SVG/1.1/DTD/svg11.dtd">
<!-- Creator: CorelDRAW 2018 (64 Bit) -->
<svg xmlns="http://www.w3.org/2000/svg" xml:space="preserve" width="210mm" height="297mm" version="1.1" style="shape-rendering:geometricPrecision; text-rendering:geometricPrecision; image-rendering:optimizeQuality; fill-rule:evenodd; clip-rule:evenodd"
viewBox="0 0 21000 29700"
 xmlns:xlink="http://www.w3.org/1999/xlink">
 <defs>
  <style type="text/css">
   <![CDATA[
    .str5 {stroke:#536371;stroke-width:7.05;stroke-miterlimit:22.9256}
    .str4 {stroke:#B9CAD3;stroke-width:7.05;stroke-miterlimit:22.9256}
    .str1 {stroke:#536371;stroke-width:35.27;stroke-miterlimit:22.9256}
    .str0 {stroke:#373435;stroke-width:7.62;stroke-miterlimit:22.9256}
    .str2 {stroke:#536371;stroke-width:35.27;stroke-linecap:round;stroke-linejoin:round;stroke-miterlimit:22.9256}
    .str3 {stroke:#536371;stroke-width:35.27;stroke-linecap:square;stroke-miterlimit:22.9256}
    .fil3 {fill:none}
    .fil0 {fill:#FEFEFE}
    .fil6 {fill:#536371}
    .fil1 {fill:#6F3BFA}
    .fil5 {fill:#B9CAD3}
    .fil2 {fill:#FEFEFE;fill-rule:nonzero}
    .fil7 {fill:#0F1418;fill-rule:nonzero}
    .fil4 {fill:#536371;fill-rule:nonzero}
   ]]>
  </style>
 </defs>
 <g id="Camada_x0020_1">
  <metadata id="CorelCorpID_0Corel-Layer"/>
  <rect class="fil0 str0" x="6266.69" y="13982.33" width="8466.62" height="1735.33" rx="2257.77" ry="327.2"/>
  <circle class="fil1" cx="6902.09" cy="14709.14" r="406.23"/>
  <path class="fil2" d="M6659.25 14659.05l19.78 -8.27c3.55,7.93 7.93,13.97 13.15,18.15 5.21,4.14 12.05,6.67 20.51,7.6 8.45,0.89 17.36,-0.12 26.66,-3.06 8.27,-2.61 15.17,-6.13 20.7,-10.61 5.56,-4.47 9.17,-9.35 10.89,-14.63 1.73,-5.28 1.81,-10.46 0.22,-15.5 -1.61,-5.1 -4.51,-9.09 -8.7,-12 -4.17,-2.87 -10.1,-4.52 -17.79,-4.99 -4.91,-0.29 -15.47,0.11 -31.67,1.26 -16.2,1.13 -27.79,1.06 -34.83,-0.24 -9.11,-1.64 -16.52,-4.92 -22.25,-9.78 -5.76,-4.84 -9.82,-11.07 -12.19,-18.57 -2.63,-8.3 -2.71,-16.79 -0.29,-25.44 2.41,-8.69 7.51,-16.29 15.37,-22.88 7.81,-6.58 17.24,-11.61 28.25,-15.09 12.13,-3.84 23.45,-5.28 33.95,-4.27 10.49,0.96 19.44,4.46 26.85,10.51 7.38,6 12.77,13.77 16.19,23.26l-20.31 8.18c-4.36,-9.99 -10.61,-16.61 -18.72,-19.83 -8.1,-3.26 -18.47,-2.88 -31.05,1.09 -13.11,4.15 -21.91,9.57 -26.38,16.26 -4.47,6.7 -5.65,13.44 -3.5,20.22 1.85,5.88 5.52,10.04 10.95,12.51 5.38,2.46 17.49,2.94 36.35,1.35 18.87,-1.57 32.05,-1.91 39.55,-1.02 10.87,1.39 19.67,4.69 26.34,10 6.66,5.28 11.35,12.3 14.12,21.06 2.76,8.74 2.86,17.67 0.29,26.96 -2.56,9.27 -7.79,17.51 -15.78,24.72 -7.99,7.23 -17.8,12.67 -29.5,16.37 -14.79,4.67 -27.86,6.41 -39.21,5.26 -11.38,-1.13 -21.24,-5.15 -29.66,-12.04 -8.46,-6.85 -14.53,-15.7 -18.29,-26.54z"/>
  <path id="1" class="fil2" d="M6910.5 14637.5l-5.57 -17.65c-4.97,16.37 -15.35,27.03 -31.17,32.03 -6.98,2.2 -13.91,2.93 -20.82,2.17 -6.91,-0.79 -12.47,-2.72 -16.69,-5.83 -4.21,-3.16 -7.84,-7.46 -10.87,-12.96 -2.06,-3.71 -4.45,-9.82 -7.15,-18.37l-23.21 -73.44 20.12 -6.35 20.75 65.67c3.31,10.47 5.97,17.44 7.92,20.8 2.93,4.9 6.9,8.18 11.97,9.88 5.02,1.72 10.54,1.66 16.57,-0.24 6.01,-1.91 11.18,-5.22 15.46,-9.97 4.29,-4.74 6.69,-10.15 7.22,-16.15 0.49,-5.98 -0.85,-14.07 -4.04,-24.17l-20.05 -63.46 20.13 -6.36 37.5 118.69 -18.07 5.71z"/>
  <path id="2" class="fil2" d="M7033 14582.44c-5.46,8.73 -11.26,15.46 -17.32,20.27 -6.07,4.81 -13.05,8.45 -20.98,10.95 -13.04,4.12 -24.06,4.12 -33.08,-0.02 -9.02,-4.12 -15.09,-11.12 -18.21,-21 -1.83,-5.79 -2.17,-11.51 -1.06,-17.14 1.16,-5.65 3.42,-10.56 6.77,-14.81 3.39,-4.25 7.5,-7.98 12.4,-11.16 3.64,-2.29 9.32,-5.17 16.96,-8.68 15.64,-7.04 26.91,-13.16 33.73,-18.24 -0.8,-2.77 -1.31,-4.53 -1.54,-5.26 -2.58,-8.15 -6.3,-13.31 -11.17,-15.46 -6.58,-2.9 -14.95,-2.73 -25.09,0.47 -9.49,3 -15.97,6.89 -19.42,11.62 -3.49,4.76 -4.95,11.68 -4.45,20.82l-20.54 3.47c-0.87,-8.99 -0.09,-16.74 2.39,-23.22 2.48,-6.49 7.17,-12.33 14.06,-17.6 6.86,-5.23 15.44,-9.5 25.66,-12.72 10.13,-3.21 18.78,-4.64 25.9,-4.25 7.09,0.41 12.71,1.89 16.83,4.58 4.12,2.68 7.66,6.58 10.63,11.73 1.73,3.23 4.03,9.29 6.83,18.17l8.43 26.68c5.89,18.63 10.03,30.28 12.45,35.01 2.38,4.74 5.55,8.97 9.44,12.78l-21.03 6.65c-3.36,-3.6 -6.22,-8.14 -8.59,-13.64zm-15.7 -44.09c-6.37,5.29 -16.55,11.27 -30.54,17.96 -7.94,3.81 -13.38,6.99 -16.34,9.57 -2.97,2.56 -4.91,5.56 -5.88,8.97 -0.96,3.46 -0.92,6.92 0.19,10.42 1.67,5.3 5.11,9.13 10.29,11.38 5.21,2.26 11.72,2.17 19.53,-0.3 7.74,-2.44 14.11,-6.3 19.09,-11.61 4.97,-5.25 7.97,-11.28 8.94,-18 0.75,-5.22 -0.3,-12.23 -3.08,-21.03l-2.2 -7.36z"/>
  <polygon id="3" class="fil2" points="6764.84,14964.52 6713.1,14800.78 6823.55,14765.88 6829.62,14785.09 6740.89,14813.13 6757.01,14864.12 6833.84,14839.84 6839.91,14859.05 6763.08,14883.33 6786.56,14957.65 "/>
  <path id="4" class="fil2" d="M6874.56 14864.57c-6.92,-21.91 -5.95,-40.08 2.95,-54.5 7.4,-11.98 18.48,-20.3 33.16,-24.94 16.27,-5.14 31.3,-4.02 45.04,3.38 13.69,7.36 23.53,20.48 29.47,39.27 4.81,15.24 6.31,27.94 4.5,38.11 -1.82,10.17 -6.34,19.06 -13.58,26.67 -7.2,7.6 -16,13.02 -26.34,16.29 -16.61,5.25 -31.7,4.19 -45.32,-3.2 -13.61,-7.4 -23.56,-21.1 -29.88,-41.08zm20.6 -6.47c4.8,15.17 11.7,25.48 20.7,30.9 9.06,5.43 18.6,6.57 28.7,3.38 9.99,-3.16 17.1,-9.56 21.37,-19.24 4.24,-9.69 3.91,-22.29 -0.99,-37.8 -4.63,-14.63 -11.49,-24.66 -20.53,-30.06 -9.06,-5.45 -18.55,-6.59 -28.47,-3.45 -10.1,3.19 -17.26,9.55 -21.56,19.18 -4.26,9.59 -4,21.97 0.78,37.09z"/>
  <path id="5" class="fil2" d="M7066.07 14849.58l8.35 16.9c-5.26,2.96 -10.14,5.18 -14.56,6.57 -7.28,2.3 -13.28,2.94 -18.06,1.89 -4.74,-1.06 -8.51,-3.17 -11.34,-6.43 -2.83,-3.26 -6.13,-10.93 -9.95,-23.01l-21.61 -68.38 -14.86 4.7 -4.92 -15.55 14.87 -4.7 -9.28 -29.35 16.31 -18.44 13.09 41.43 20.13 -6.36 4.91 15.55 -20.13 6.36 21.97 69.52c1.82,5.75 3.33,9.35 4.57,10.76 1.21,1.42 2.76,2.35 4.67,2.83 1.91,0.45 4.35,0.22 7.32,-0.72 2.21,-0.7 5.06,-1.89 8.52,-3.57z"/>
  <path id="6" class="fil2" d="M7065.29 14804.3c-6.93,-21.91 -5.95,-40.08 2.94,-54.5 7.41,-11.98 18.49,-20.3 33.16,-24.94 16.28,-5.14 31.3,-4.02 45.04,3.38 13.7,7.36 23.53,20.48 29.47,39.27 4.82,15.24 6.31,27.94 4.5,38.11 -1.82,10.17 -6.34,19.06 -13.58,26.67 -7.19,7.6 -16,13.03 -26.33,16.29 -16.62,5.25 -31.71,4.19 -45.33,-3.2 -13.61,-7.39 -23.56,-21.1 -29.87,-41.08zm20.6 -6.47c4.79,15.17 11.7,25.48 20.7,30.9 9.06,5.44 18.59,6.58 28.69,3.38 9.99,-3.15 17.11,-9.55 21.38,-19.24 4.23,-9.69 3.9,-22.28 -1,-37.8 -4.62,-14.62 -11.48,-24.66 -20.53,-30.06 -9.05,-5.44 -18.55,-6.59 -28.46,-3.45 -10.1,3.19 -17.27,9.55 -21.57,19.18 -4.25,9.59 -3.99,21.97 0.79,37.09z"/>
  <path class="fil3 str1" d="M7612.23 15371.84c-60.98,0 -110.41,-49.43 -110.41,-110.41 0,-60.98 49.43,-110.41 110.41,-110.41l50.81 0c60.98,0 110.42,49.43 110.42,110.41 0,49.54 -32.64,91.47 -77.59,105.45 -46.56,14.45 -45.97,21.77 -70.17,38.67l0 -33.71 -13.47 0z"/>
  <path class="fil3 str2" d="M8964.33 15233.31l49.34 -38.6 51.3 39.58m-51.3 -39.58l0 159.05c0,25.58 17,39.36 37.37,39.36 27.36,0 54.72,0 82.08,0"/>
  <path class="fil3 str2" d="M9284.24 15343.43l-49.34 38.6 -51.3 -39.57m51.3 39.57l0 -159.04c0,-25.58 -17,-39.36 -37.37,-39.36 -27.36,0 -54.72,0 -82.08,0"/>
  <path class="fil3 str1" d="M10581.91 15388.7c-33.69,-24.71 -66.32,-56.68 -97.69,-105.19 -34.74,-66.22 37.31,-138.9 103.53,-89.24 32.08,24.06 9.81,23.44 41.03,0.07 66.24,-49.81 138.39,22.92 103.62,89.17 -30.58,47.31 -62.38,78.89 -95.18,103.34 -27.39,20.42 -29.89,20.5 -55.31,1.85z"/>
  <line class="fil3 str1" x1="11991.25" y1="15417.08" x2="11991.25" y2= "15275.4" />
  <line class="fil3 str1" x1="12060.63" y1="15417.08" x2="12060.63" y2= "15160.1" />
  <line class="fil3 str1" x1="12126.31" y1="15417.08" x2="12126.31" y2= "15323.28" />
  <line class="fil3 str1" x1="12195.68" y1="15417.08" x2="12195.68" y2= "15241.2" />
  <path class="fil4" d="M12420.18 15379.52l-21.12 0 0 -134.5c-5.08,4.88 -11.76,9.72 -20,14.57 -8.25,4.84 -15.69,8.48 -22.25,10.88l0 -20.41c11.8,-5.52 22.13,-12.24 30.97,-20.16 8.84,-7.88 15.12,-15.52 18.8,-22.96l13.6 0 0 172.58z"/>
  <path id="1" class="fil4" d="M12585.13 15359.36l0 20.16 -113.78 0c-0.16,-5.08 0.68,-9.96 2.48,-14.68 2.92,-7.72 7.6,-15.36 14.04,-22.84 6.44,-7.49 15.64,-16.13 27.61,-25.93 18.6,-15.32 31.24,-27.44 37.84,-36.4 6.64,-8.96 9.96,-17.44 9.96,-25.45 0,-8.36 -3,-15.4 -9,-21.16 -6,-5.72 -13.84,-8.6 -23.48,-8.6 -10.2,0 -18.36,3.04 -24.48,9.12 -6.13,6.04 -9.21,14.44 -9.29,25.2l-21.6 -2.16c1.48,-16.16 7.08,-28.48 16.76,-36.96 9.72,-8.48 22.73,-12.72 39.09,-12.72 16.48,0 29.56,4.56 39.16,13.72 9.64,9.16 14.45,20.52 14.45,34.04 0,6.89 -1.41,13.65 -4.25,20.29 -2.8,6.68 -7.48,13.68 -14,21.04 -6.56,7.32 -17.4,17.44 -32.52,30.24 -12.68,10.64 -20.84,17.85 -24.44,21.65 -3.6,3.8 -6.57,7.6 -8.93,11.44l84.38 0z"/>
  <path id="2" class="fil4" d="M12607.97 15294.71c0,-20.28 2.08,-36.69 6.24,-49.09 4.2,-12.44 10.4,-22 18.64,-28.68 8.21,-6.68 18.57,-10 31.05,-10 9.2,0 17.28,1.84 24.28,5.56 6.96,3.72 12.72,9.08 17.2,16.08 4.48,6.96 8,15.48 10.56,25.52 2.61,10.05 3.89,23.61 3.89,40.61 0,20.16 -2.09,36.48 -6.21,48.89 -4.12,12.44 -10.32,22 -18.56,28.72 -8.2,6.72 -18.6,10.08 -31.16,10.08 -16.52,0 -29.53,-5.88 -38.97,-17.68 -11.32,-14.4 -16.96,-37.73 -16.96,-70.01zm21.6 0.08c0,28.28 3.28,47.09 9.89,56.37 6.6,9.32 14.76,13.96 24.44,13.96 9.68,0 17.84,-4.68 24.44,-14 6.6,-9.36 9.88,-28.13 9.88,-56.33 0,-28.28 -3.28,-47.09 -9.88,-56.37 -6.56,-9.32 -14.8,-13.96 -24.68,-13.96 -9.68,0 -17.44,4.12 -23.24,12.32 -7.25,10.44 -10.85,29.81 -10.85,58.01z"/>
  <path id="3" class="fil4" d="M12741.47 15294.71c0,-20.28 2.08,-36.69 6.24,-49.09 4.2,-12.44 10.4,-22 18.64,-28.68 8.21,-6.68 18.57,-10 31.05,-10 9.2,0 17.28,1.84 24.28,5.56 6.96,3.72 12.72,9.08 17.2,16.08 4.48,6.96 8,15.48 10.56,25.52 2.61,10.05 3.89,23.61 3.89,40.61 0,20.16 -2.09,36.48 -6.21,48.89 -4.12,12.44 -10.32,22 -18.56,28.72 -8.2,6.72 -18.6,10.08 -31.16,10.08 -16.52,0 -29.53,-5.88 -38.97,-17.68 -11.32,-14.4 -16.96,-37.73 -16.96,-70.01zm21.6 0.08c0,28.28 3.28,47.09 9.89,56.37 6.6,9.32 14.76,13.96 24.44,13.96 9.68,0 17.84,-4.68 24.44,-14 6.6,-9.36 9.88,-28.13 9.88,-56.33 0,-28.28 -3.28,-47.09 -9.88,-56.37 -6.56,-9.32 -14.8,-13.96 -24.68,-13.96 -9.68,0 -17.44,4.12 -23.24,12.32 -7.25,10.44 -10.85,29.81 -10.85,58.01z"/>
  <path class="fil3 str1" d="M13504.29 15157.16c-19.17,0 -29.32,9.35 -29.32,29.86l0 232.44 103.79 -73.5 103.79 73.5 0 -232.44c0,-20.51 -10.15,-29.86 -29.31,-29.86l-148.95 0z"/>
  <path class="fil3 str3" d="M14297.52 15234.8l61.97 -58.55 61.97 57.16m-61.97 -57.16l0 170.12"/>
  <path class="fil3 str1" d="M14245.15 15333.97l0 38.94c0,22.85 11.3,33.26 32.65,33.26l165.91 0c21.35,0 32.65,-10.41 32.65,-33.26l0 -38.94"/>
  <circle class="fil5 str4" cx="14270.61" cy="14448.85" r="28.34"/>
  <circle class="fil5 str4" cx="14373.21" cy="14448.85" r="28.34"/>
  <circle class="fil5 str4" cx="14475.81" cy="14448.85" r="28.34"/>
  <circle class="fil6 str5" cx="12347.67" cy="14448.85" r="17.59"/>
  <path class="fil7" d="M7517.38 14337.19l-30.86 0 0 129.03c0,42.85 30.58,73.14 80.49,73.14 49.86,0 80.48,-30.29 80.48,-73.14l0 -129.03 -30.76 0 0 126.39c0,28.37 -18.07,48.36 -49.72,48.36 -31.71,0 -49.63,-19.99 -49.63,-48.36l0 -126.39z"/>
  <path id="1" class="fil7" d="M7681.36 14432.16c0,20.28 13.21,33.92 39.41,40.22l25.88 6.35c15.19,3.86 20.69,8.98 20.69,18.2 0,11.72 -11.01,19.15 -28.93,19.15 -18.2,0 -28.97,-7.72 -31.28,-21.64l-29.49 0c2.35,26.62 25.07,44.41 59.36,44.41 35.56,0 60.26,-18.21 60.26,-44.69 0,-21.36 -11.06,-32.36 -40.27,-39.42l-24.36 -5.64c-15.05,-3.72 -22.2,-9.79 -22.2,-18.73 0,-11.43 10.72,-19.28 26.85,-19.28 16.7,0 27.29,8.14 28.7,21.21l27.94 0c-0.94,-25.77 -23.57,-43.84 -55.79,-43.84 -33.91,0 -56.77,17.78 -56.77,43.7z"/>
  <path id="2" class="fil7" d="M7948.11 14391.1l-29.78 0 0 84.48c0,22.58 -12.94,37.49 -34.43,37.49 -20.56,0 -31,-11.86 -31,-33.92l0 -88.05 -29.78 0 0 93.84c0,33.21 19.29,53.76 50.85,53.76 22.2,0 36.93,-9.78 44.92,-27.14l0.71 0 0 24.51 28.51 0 0 -144.97z"/>
  <path id="3" class="fil7" d="M8031.64 14515c-16,0 -26.49,-8.28 -26.49,-20.98 0,-12.37 10.07,-20.23 27.85,-21.5l35.7 -2.16 0 11.43c0,18.86 -16.27,33.21 -37.06,33.21zm-8.28 23.56c19,0 37.35,-10.2 45.72,-26.34l0.71 0 0 23.85 28.55 0 0 -99.91c0,-29.07 -22.49,-47.7 -57.62,-47.7 -35.85,0 -58.14,19.29 -59.84,45.49l28.13 0c2.64,-12.94 13.36,-21.21 30.62,-21.21 18.16,0 29.07,9.64 29.07,25.77l0 11.15 -39.7 2.35c-34.43,1.93 -53.9,17.5 -53.9,42.85 0,26.06 19.85,43.7 48.26,43.7zm28.36 -168.11l34.48 -41.77 -29.91 0 -29.5 41.77 24.93 0z"/>
  <path id="4" class="fil7" d="M8130.51 14536.07l29.78 0 0 -86.83c0,-20.51 11.85,-33.35 31,-33.35 5.83,0 11.05,0.7 13.4,1.64l0 -27.66c-2.21,-0.42 -5.92,-1.12 -10.2,-1.12 -17.08,0 -30.06,10.06 -34.86,27l-0.71 0 0 -24.65 -28.41 0 0 144.97z"/>
  <path id="5" class="fil7" d="M8227.55 14536.07l29.78 0 0 -144.97 -29.78 0 0 144.97zm14.86 -166.19c9.65,0 17.41,-7.57 17.41,-16.98 0,-9.5 -7.76,-17.07 -17.41,-17.07 -9.5,0 -17.21,7.57 -17.21,17.07 0,9.41 7.71,16.98 17.21,16.98z"/>
  <path id="6" class="fil7" d="M8353.52 14538.85c41.49,0 68.77,-28.56 68.77,-75.27 0,-46.56 -27.42,-75.12 -68.77,-75.12 -41.35,0 -68.77,28.56 -68.77,75.12 0,46.71 27.28,75.27 68.77,75.27zm0 -24.56c-23.29,0 -38.48,-18.44 -38.48,-50.71 0,-32.12 15.19,-50.56 38.48,-50.56 23.28,0 38.43,18.44 38.43,50.56 0,32.27 -15.01,50.71 -38.43,50.71z"/>
  <path class="fil4" d="M10131.94 14415.51c18.77,0 30.76,14.86 30.76,38.43 0,23.57 -12.14,38.57 -31,38.57 -18.06,0 -29.11,-14.58 -29.11,-38.57 0,-24.13 10.91,-38.43 29.35,-38.43zm4.84 -77.19c-66.98,0 -113.83,46.15 -113.83,114.92 0,74.13 48.92,115.1 116.18,115.1 17.79,0 34.3,-2.49 46.43,-6.78l0 -17.35c-8.94,4 -27.7,6.58 -46.14,6.58 -55.41,0 -97.04,-34.29 -97.04,-96.71 0,-57.62 38.99,-98.4 92.62,-98.4 54.84,0 92.9,33.77 92.9,83.77 0,35.71 -12.14,55.84 -28.56,55.84 -10.58,0 -15.57,-6.35 -15.57,-15.29l0 -80.91 -20.79 0 0 16.8 -1.13 0c-5.22,-11.72 -18.58,-19.43 -33.35,-19.43 -28.22,0 -47.93,23.43 -47.93,56.92 0,34.99 19.29,58.56 47.93,58.56 16.28,0 29.07,-8 35,-21.92l1.13 0c1.65,13.78 15.15,23.19 30.86,23.19 32.26,0 51.83,-29.35 51.83,-73.47 0,-60.78 -46.47,-101.42 -110.54,-101.42z"/>
  <path id="1" class="fil4" d="M10281.15 14536.07l23.99 0 0 -143.33 -23.99 0 0 143.33zm12 -167.46c8.28,0 15.05,-6.72 15.05,-14.86 0,-8.28 -6.77,-14.86 -15.05,-14.86 -8.14,0 -14.87,6.58 -14.87,14.86 0,8.14 6.73,14.86 14.87,14.86z"/>
  <path id="2" class="fil4" d="M10345.65 14536.07l23.99 0 0 -89.84c0,-19.85 13.78,-34.72 32.78,-34.72 17.79,0 29.36,11.29 29.36,28.51l0 96.05 23.99 0 0 -91.11c0,-19.43 13.36,-33.45 32.36,-33.45 18.91,0 29.77,11.57 29.77,31.14l0 93.42 23.99 0 0 -98.97c0,-28.36 -18.34,-46.85 -46.71,-46.85 -20.13,0 -36.92,10.21 -44.92,27.28l-0.56 0c-6.21,-17.35 -20.65,-27.28 -40.22,-27.28 -19.33,0 -33.91,10.21 -40.69,25.35l-0.51 0 0 -22.86 -22.63 0 0 143.33z"/>
  <path id="3" class="fil4" d="M10627.7 14518.15c-17.21,0 -28.64,-8.94 -28.64,-22.58 0,-13.5 11,-22.06 30.29,-23.28l38.34 -2.36 0 11.72c0,20.65 -17.41,36.5 -39.99,36.5zm-5.36 20.41c19.29,0 37.49,-10.77 46,-27.14l0.57 0 0 24.65 22.72 0 0 -99.06c0,-28.55 -21.22,-46.76 -54.85,-46.76 -33.87,0 -55.13,19.05 -56.77,43.84l23.14 0c3.06,-14.06 14.63,-22.72 33.11,-22.72 19.81,0 31.43,10.44 31.43,27.94l0 12 -41.07 2.35c-33.11,1.93 -51.98,17.36 -51.98,41.91 0,25.78 19.15,42.99 47.7,42.99z"/>
  <path id="4" class="fil4" d="M10730.21 14536.07l23.99 0 0 -84.34c0,-24.27 14.72,-40.22 37.35,-40.22 22.06,0 32.92,12.66 32.92,35.8l0 88.76 23.99 0 0 -93.04c0,-32.51 -18.2,-52.78 -49.62,-52.78 -22.2,0 -37.49,9.93 -45.49,25.35l-0.51 0 0 -22.86 -22.63 0 0 143.33z"/>
  <path id="5" class="fil4" d="M10894.71 14358.17l0 34.57 -21.35 0 0 19.71 21.35 0 0 86.41c0,27.57 10.21,38.29 36.51,38.29 5.69,0 12.27,-0.37 15.19,-1.08l0 -20.13c-1.65,0.28 -7.2,0.7 -9.93,0.7 -12.27,0 -17.78,-5.92 -17.78,-19l0 -85.19 27.85 0 0 -19.71 -27.85 0 0 -34.57 -23.99 0z"/>
  <path id="6" class="fil4" d="M11024.64 14518.15c-17.21,0 -28.64,-8.94 -28.64,-22.58 0,-13.5 11,-22.06 30.29,-23.28l38.34 -2.36 0 11.72c0,20.65 -17.41,36.5 -39.99,36.5zm-5.36 20.41c19.29,0 37.49,-10.77 46,-27.14l0.57 0 0 24.65 22.72 0 0 -99.06c0,-28.55 -21.22,-46.76 -54.85,-46.76 -33.87,0 -55.13,19.05 -56.77,43.84l23.14 0c3.06,-14.06 14.63,-22.72 33.11,-22.72 19.81,0 31.43,10.44 31.43,27.94l0 12 -41.07 2.35c-33.11,1.93 -51.98,17.36 -51.98,41.91 0,25.78 19.15,42.99 47.7,42.99z"/>
  <path id="7" class="fil4" d="M11181.43 14538.56c20.7,0 37.07,-10.2 46.33,-26.76l0.43 0 0 24.27 22.86 0 0 -198.88 -23.99 0 0 78.84 -0.57 0c-8.51,-15.71 -25.07,-25.78 -45.58,-25.78 -36.12,0 -60.77,29.21 -60.77,74.18 0,44.92 24.79,74.13 61.29,74.13zm4.56 -127.19c24.65,0 41.21,21.07 41.21,53.06 0,32.08 -16.56,53.01 -41.21,53.01 -25.35,0 -41.34,-20.51 -41.34,-53.01 0,-32.41 15.99,-53.06 41.34,-53.06z"/>
  <path id="8" class="fil4" d="M11350.92 14538.56c39.56,0 66.28,-28.55 66.28,-74.13 0,-45.77 -26.72,-74.18 -66.28,-74.18 -39.7,0 -66.42,28.41 -66.42,74.18 0,45.58 26.72,74.13 66.42,74.13zm0 -21.12c-25.35,0 -42.05,-19.28 -42.05,-53.01 0,-33.77 16.7,-53.06 42.05,-53.06 25.35,0 41.86,19.29 41.86,53.06 0,33.73 -16.51,53.01 -41.86,53.01z"/>
  <path id="9" class="fil4" d="M11446.94 14432.3c0,19.57 12.41,32.51 37.63,39l25.21 6.49c16.13,4.28 22.06,9.78 22.06,19.99 0,12.94 -11.99,21.22 -31.42,21.22 -19.43,0 -30.72,-8 -33.35,-22.91l-23.99 0c2.49,25.35 24.41,42.47 55.83,42.47 33.5,0 57.06,-17.64 57.06,-42.61 0,-21.08 -10.49,-31.52 -39.42,-38.86l-22.2 -5.36c-16.27,-4.14 -23.85,-10.72 -23.85,-20.65 0,-12.56 11.57,-21.26 29.07,-21.26 17.64,0 28.84,8.56 30.48,22.34l22.86 0c-1.08,-24.27 -22.86,-41.91 -52.49,-41.91 -31.56,0 -53.48,17.5 -53.48,42.05z"/>
  <path id="10" class="fil4" d="M11660.12 14538.56c36.65,0 60.92,-29.07 60.92,-74.13 0,-44.97 -24.42,-74.18 -60.54,-74.18 -20.23,0 -36.93,10.07 -45.86,26.48l-0.57 0 0 -79.54 -23.99 0 0 198.88 22.91 0 0 -24.27 0.52 0c9.26,16.56 25.63,26.76 46.61,26.76zm-4.7 -127.19c25.35,0 41.06,20.51 41.06,53.06 0,32.79 -15.71,53.01 -41.06,53.01 -24.27,0 -41.49,-21.07 -41.49,-53.01 0,-31.84 17.22,-53.06 41.49,-53.06z"/>
  <path id="11" class="fil4" d="M11753.36 14536.07l23.99 0 0 -89.28c0,-20.27 12.14,-33.63 30.72,-33.63 5.78,0 10.91,0.66 12.84,1.36l0 -23.28c-1.93,-0.28 -5.55,-0.99 -9.65,-0.99 -16.84,0 -30.05,10.07 -34.76,25.92l-0.51 0 0 -23.43 -22.63 0 0 143.33z"/>
  <path id="12" class="fil4" d="M11892.93 14518.15c-17.21,0 -28.64,-8.94 -28.64,-22.58 0,-13.5 11,-22.06 30.29,-23.28l38.34 -2.36 0 11.72c0,20.65 -17.41,36.5 -39.99,36.5zm-5.36 20.41c19.29,0 37.49,-10.77 46,-27.14l0.57 0 0 24.65 22.72 0 0 -99.06c0,-28.55 -21.22,-46.76 -54.85,-46.76 -33.87,0 -55.13,19.05 -56.77,43.84l23.14 0c3.06,-14.06 14.63,-22.72 33.11,-22.72 19.81,0 31.43,10.44 31.43,27.94l0 12 -41.07 2.35c-33.11,1.93 -51.98,17.36 -51.98,41.91 0,25.78 19.15,42.99 47.7,42.99z"/>
  <path id="13" class="fil4" d="M11992.95 14432.3c0,19.57 12.41,32.51 37.63,39l25.21 6.49c16.13,4.28 22.06,9.78 22.06,19.99 0,12.94 -11.99,21.22 -31.42,21.22 -19.43,0 -30.72,-8 -33.35,-22.91l-23.99 0c2.49,25.35 24.41,42.47 55.83,42.47 33.5,0 57.06,-17.64 57.06,-42.61 0,-21.08 -10.49,-31.52 -39.42,-38.86l-22.2 -5.36c-16.27,-4.14 -23.85,-10.72 -23.85,-20.65 0,-12.56 11.57,-21.26 29.07,-21.26 17.64,0 28.84,8.56 30.48,22.34l22.86 0c-1.08,-24.27 -22.86,-41.91 -52.49,-41.91 -31.56,0 -53.48,17.5 -53.48,42.05z"/>
  <path id="14" class="fil4" d="M12136.09 14536.07l23.99 0 0 -143.33 -23.99 0 0 143.33zm12 -167.46c8.28,0 15.05,-6.72 15.05,-14.86 0,-8.28 -6.77,-14.86 -15.05,-14.86 -8.14,0 -14.87,6.58 -14.87,14.86 0,8.14 6.73,14.86 14.87,14.86z"/>
  <polygon id="15" class="fil4" points="12201.81,14536.07 12225.8,14536.07 12225.8,14337.19 12201.81,14337.19 "/>
  <polygon class="fil4" points="12482.5,14536.07 12506.49,14536.07 12506.49,14337.19 12482.22,14337.19 12429.3,14375.25 12429.3,14401.45 12481.94,14363.53 12482.5,14363.53 "/>
  <path id="1" class="fil4" d="M12605.51 14444.3l24.93 0c28.42,0 46.05,14.44 46.05,37.86 0,20.84 -18.86,35.71 -45.2,35.71 -26.72,0 -43.7,-14.07 -45.91,-34.44l-23.8 0c1.79,32.93 28.36,55.93 69.99,55.93 39,0 70.14,-23.85 70.14,-58 0,-27.98 -19.29,-46.56 -49.35,-48.35l0 -0.57c24.84,-4.42 40.79,-22.34 40.79,-47.27 0,-29.92 -26.86,-51.27 -62.42,-51.27 -37.35,0 -62.42,21.64 -65.2,55.41l23.85 0c2.21,-20.84 17.36,-33.91 40.26,-33.91 25.22,0 38.58,13.35 38.58,33.06 0,20.14 -16,34.91 -38.86,34.91l-23.85 0 0 20.93z"/>
  <polygon id="2" class="fil4" points="12744.57,14578.36 12814.98,14337.19 12794.43,14337.19 12724.01,14578.36 "/>
  <polygon id="3" class="fil4" points="12889.92,14536.07 12913.91,14536.07 12913.91,14337.19 12889.64,14337.19 12836.72,14375.25 12836.72,14401.45 12889.36,14363.53 12889.92,14363.53 "/>
  <polygon id="4" class="fil4" points="13023.14,14536.07 13047.14,14536.07 13047.14,14337.19 13022.86,14337.19 12969.94,14375.25 12969.94,14401.45 13022.58,14363.53 13023.14,14363.53 "/>
  <polygon id="5" class="fil4" points="13110.09,14578.36 13180.5,14337.19 13159.95,14337.19 13089.53,14578.36 "/>
  <path id="6" class="fil4" d="M13203.46 14394.53l0 0.14 23.99 0 0 -0.14c0,-22.15 17.64,-38.99 40.93,-38.99 21.92,0 39.42,15.28 39.42,34.48 0,16.51 -6.36,27.14 -33.07,55.22l-70 73.76 0 17.07 131.19 0 0 -22.06 -96.89 0 0 -0.52 50.33 -51.98c33.21,-34.29 43.27,-50.84 43.27,-73.05 0,-30.43 -27.99,-54.56 -63.55,-54.56 -37.49,0 -65.62,25.92 -65.62,60.63z"/>
  <path id="7" class="fil4" d="M13442.14 14539.36c46.34,0 73.05,-40.07 73.05,-102.92 0,-62.42 -26.85,-102.54 -73.05,-102.54 -46.14,0 -73.28,40.41 -73.28,102.68 0,62.85 26.86,102.78 73.28,102.78zm0 -21.63c-31.14,0 -48.35,-31.66 -48.35,-81.29 0,-48.49 17.64,-80.76 48.35,-80.76 30.77,0 48.12,31.98 48.12,80.9 0,49.58 -17.12,81.15 -48.12,81.15z"/>
  <path id="8" class="fil4" d="M13547.8 14394.53l0 0.14 23.99 0 0 -0.14c0,-22.15 17.64,-38.99 40.93,-38.99 21.92,0 39.42,15.28 39.42,34.48 0,16.51 -6.36,27.14 -33.07,55.22l-70 73.76 0 17.07 131.19 0 0 -22.06 -96.89 0 0 -0.52 50.33 -51.98c33.21,-34.29 43.27,-50.84 43.27,-73.05 0,-30.43 -27.99,-54.56 -63.55,-54.56 -37.49,0 -65.62,25.92 -65.62,60.63z"/>
  <path id="9" class="fil4" d="M13785.26 14539.36c41.49,0 70.84,-27.94 70.84,-67.92 0,-38.57 -27.56,-66.56 -65.76,-66.56 -19,0 -35.56,7.15 -44.5,19.14l-0.56 0 6.07 -64.77 93.46 0 0 -22.06 -113.83 0 -10.91 111.39 23.28 0c8.14,-13.92 23.99,-22.34 42.62,-22.34 26.43,0 45.29,19.14 45.29,45.9 0,26.72 -18.72,45.44 -45.72,45.44 -23.85,0 -41.91,-14.58 -44.12,-35.79l-24.36 0c2.06,33.87 30.15,57.57 68.2,57.57z"/>
  <path class="fil7" d="M7559.51 14941.99c43.98,0 73.48,-21.92 82.55,-61.15l-25.07 0c-7.15,24.23 -28.13,38.29 -57.34,38.29 -39.27,0 -64.2,-31.14 -64.2,-79.92 0,-48.4 25.21,-79.82 64.06,-79.82 28.41,0 51.13,17.12 57.48,43.13l25.07 0c-6.3,-39.65 -39.27,-65.99 -82.55,-65.99 -54.42,0 -89.56,40.26 -89.56,102.68 0,62.99 34.72,102.78 89.56,102.78z"/>
  <polygon id="1" class="fil7" points="7671.67,14938.7 7695.66,14938.7 7695.66,14739.82 7671.67,14739.82 "/>
  <path id="2" class="fil7" d="M7732.18 14938.7l23.99 0 0 -143.33 -23.99 0 0 143.33zm12 -167.46c8.28,0 15.05,-6.72 15.05,-14.86 0,-8.28 -6.77,-14.86 -15.05,-14.86 -8.14,0 -14.87,6.58 -14.87,14.86 0,8.14 6.73,14.86 14.87,14.86z"/>
  <path id="3" class="fil7" d="M7848.95 14813.72c22.58,0 37.63,17.07 38.15,41.06l-77.85 0c1.51,-23.84 17.22,-41.06 39.7,-41.06zm37.63 83.92c-4,13.5 -17.4,22.72 -35.56,22.72 -25.78,0 -41.91,-18.02 -41.91,-45.44l0 -1.42 102.82 0 0 -9.07c0,-43.42 -23.84,-71.55 -62.56,-71.55 -39.56,0 -64.91,30.2 -64.91,74.7 0,45.06 24.93,73.61 66,73.61 31.28,0 55.55,-18.48 59.69,-43.55l-23.57 0z"/>
  <path id="4" class="fil7" d="M7938.91 14938.7l23.99 0 0 -84.34c0,-24.27 14.72,-40.22 37.35,-40.22 22.06,0 32.92,12.66 32.92,35.8l0 88.76 23.99 0 0 -93.04c0,-32.51 -18.2,-52.78 -49.62,-52.78 -22.2,0 -37.49,9.93 -45.49,25.35l-0.51 0 0 -22.86 -22.63 0 0 143.33z"/>
  <path id="5" class="fil7" d="M8098.2 14760.8l0 34.57 -21.35 0 0 19.71 21.35 0 0 86.41c0,27.57 10.21,38.29 36.51,38.29 5.69,0 12.27,-0.37 15.19,-1.08l0 -20.13c-1.65,0.28 -7.2,0.7 -9.93,0.7 -12.27,0 -17.78,-5.92 -17.78,-19l0 -85.19 27.85 0 0 -19.71 -27.85 0 0 -34.57 -23.99 0z"/>
  <path id="6" class="fil7" d="M8231.77 14813.72c22.58,0 37.63,17.07 38.15,41.06l-77.85 0c1.51,-23.84 17.22,-41.06 39.7,-41.06zm37.63 83.92c-4,13.5 -17.4,22.72 -35.56,22.72 -25.78,0 -41.91,-18.02 -41.91,-45.44l0 -1.42 102.82 0 0 -9.07c0,-43.42 -23.84,-71.55 -62.56,-71.55 -39.56,0 -64.91,30.2 -64.91,74.7 0,45.06 24.93,73.61 66,73.61 31.28,0 55.55,-18.48 59.69,-43.55l-23.57 0z"/>
  <path id="7" class="fil7" d="M8446.32 14792.88c-20.84,0 -37.49,10.63 -46.34,26.77l-0.56 0 0 -24.28 -22.72 0 0 191.17 23.99 0 0 -71.12 0.56 0c8.52,15.71 25.08,25.77 45.58,25.77 36.13,0 60.78,-29.21 60.78,-74.13 0,-44.97 -24.79,-74.18 -61.29,-74.18zm-4.71 127.19c-24.55,0 -41.06,-21.07 -41.06,-53.01 0,-31.84 16.51,-53.06 41.06,-53.06 25.5,0 41.49,20.65 41.49,53.06 0,32.5 -15.99,53.01 -41.49,53.01z"/>
  <path id="8" class="fil7" d="M8594.04 14941.19c39.56,0 66.28,-28.55 66.28,-74.13 0,-45.77 -26.72,-74.18 -66.28,-74.18 -39.7,0 -66.42,28.41 -66.42,74.18 0,45.58 26.72,74.13 66.42,74.13zm0 -21.12c-25.35,0 -42.05,-19.28 -42.05,-53.01 0,-33.77 16.7,-53.06 42.05,-53.06 25.35,0 41.86,19.29 41.86,53.06 0,33.73 -16.51,53.01 -41.86,53.01z"/>
  <path id="9" class="fil7" d="M8741.62 14941.19c20.7,0 37.07,-10.2 46.33,-26.76l0.43 0 0 24.27 22.86 0 0 -198.88 -23.99 0 0 78.84 -0.57 0c-8.51,-15.71 -25.07,-25.78 -45.58,-25.78 -36.12,0 -60.77,29.21 -60.77,74.18 0,44.92 24.79,74.13 61.29,74.13zm4.56 -127.19c24.65,0 41.21,21.07 41.21,53.06 0,32.08 -16.56,53.01 -41.21,53.01 -25.35,0 -41.34,-20.51 -41.34,-53.01 0,-32.41 15.99,-53.06 41.34,-53.06z"/>
  <path id="10" class="fil7" d="M8903.97 14813.72c22.58,0 37.63,17.07 38.15,41.06l-77.85 0c1.51,-23.84 17.22,-41.06 39.7,-41.06zm37.63 83.92c-4,13.5 -17.4,22.72 -35.56,22.72 -25.78,0 -41.91,-18.02 -41.91,-45.44l0 -1.42 102.82 0 0 -9.07c0,-43.42 -23.84,-71.55 -62.56,-71.55 -39.56,0 -64.91,30.2 -64.91,74.7 0,45.06 24.93,73.61 66,73.61 31.28,0 55.55,-18.48 59.69,-43.55l-23.57 0z"/>
  <path id="11" class="fil7" d="M9096.17 14920.78c-17.21,0 -28.64,-8.94 -28.64,-22.58 0,-13.5 11,-22.06 30.29,-23.28l38.34 -2.36 0 11.72c0,20.65 -17.41,36.5 -39.99,36.5zm-5.36 20.41c19.29,0 37.49,-10.77 46,-27.14l0.57 0 0 24.65 22.72 0 0 -99.06c0,-28.55 -21.22,-46.76 -54.85,-46.76 -33.87,0 -55.13,19.05 -56.77,43.84l23.14 0c3.06,-14.06 14.63,-22.72 33.11,-22.72 19.81,0 31.43,10.44 31.43,27.94l0 12 -41.07 2.35c-33.11,1.93 -51.98,17.36 -51.98,41.91 0,25.78 19.15,42.99 47.7,42.99z"/>
  <polygon id="12" class="fil7" points="9194.69,14938.7 9218.68,14938.7 9218.68,14739.82 9194.69,14739.82 "/>
  <path id="13" class="fil7" d="M9261.69 14760.8l0 34.57 -21.35 0 0 19.71 21.35 0 0 86.41c0,27.57 10.21,38.29 36.51,38.29 5.69,0 12.27,-0.37 15.19,-1.08l0 -20.13c-1.65,0.28 -7.2,0.7 -9.93,0.7 -12.27,0 -17.78,-5.92 -17.78,-19l0 -85.19 27.85 0 0 -19.71 -27.85 0 0 -34.57 -23.99 0z"/>
  <path id="14" class="fil7" d="M9395.26 14813.72c22.58,0 37.63,17.07 38.15,41.06l-77.85 0c1.51,-23.84 17.22,-41.06 39.7,-41.06zm37.63 83.92c-4,13.5 -17.4,22.72 -35.56,22.72 -25.78,0 -41.91,-18.02 -41.91,-45.44l0 -1.42 102.82 0 0 -9.07c0,-43.42 -23.84,-71.55 -62.56,-71.55 -39.56,0 -64.91,30.2 -64.91,74.7 0,45.06 24.93,73.61 66,73.61 31.28,0 55.55,-18.48 59.69,-43.55l-23.57 0z"/>
  <path id="15" class="fil7" d="M9485.22 14938.7l23.99 0 0 -89.28c0,-20.27 12.14,-33.63 30.72,-33.63 5.78,0 10.91,0.66 12.84,1.36l0 -23.28c-1.93,-0.28 -5.55,-0.99 -9.65,-0.99 -16.84,0 -30.05,10.07 -34.76,25.92l-0.51 0 0 -23.43 -22.63 0 0 143.33z"/>
  <path id="16" class="fil7" d="M9619.58 14920.78c-17.21,0 -28.64,-8.94 -28.64,-22.58 0,-13.5 11,-22.06 30.29,-23.28l38.34 -2.36 0 11.72c0,20.65 -17.41,36.5 -39.99,36.5zm-5.36 20.41c19.29,0 37.49,-10.77 46,-27.14l0.57 0 0 24.65 22.72 0 0 -99.06c0,-28.55 -21.22,-46.76 -54.85,-46.76 -33.87,0 -55.13,19.05 -56.77,43.84l23.14 0c3.06,-14.06 14.63,-22.72 33.11,-22.72 19.81,0 31.43,10.44 31.43,27.94l0 12 -41.07 2.35c-33.11,1.93 -51.98,17.36 -51.98,41.91 0,25.78 19.15,42.99 47.7,42.99z"/>
  <path id="17" class="fil7" d="M9716.88 14938.7l23.99 0 0 -89.28c0,-20.27 12.14,-33.63 30.72,-33.63 5.78,0 10.91,0.66 12.84,1.36l0 -23.28c-1.93,-0.28 -5.55,-0.99 -9.65,-0.99 -16.84,0 -30.05,10.07 -34.76,25.92l-0.51 0 0 -23.43 -22.63 0 0 143.33z"/>
  <path id="18" class="fil7" d="M9919.19 14813.72c22.58,0 37.63,17.07 38.15,41.06l-77.85 0c1.51,-23.84 17.22,-41.06 39.7,-41.06zm37.63 83.92c-4,13.5 -17.4,22.72 -35.56,22.72 -25.78,0 -41.91,-18.02 -41.91,-45.44l0 -1.42 102.82 0 0 -9.07c0,-43.42 -23.84,-71.55 -62.56,-71.55 -39.56,0 -64.91,30.2 -64.91,74.7 0,45.06 24.93,73.61 66,73.61 31.28,0 55.55,-18.48 59.69,-43.55l-23.57 0z"/>
  <path id="19" class="fil7" d="M10006.66 14834.93c0,19.57 12.41,32.51 37.63,39l25.21 6.49c16.13,4.28 22.06,9.78 22.06,19.99 0,12.94 -11.99,21.22 -31.42,21.22 -19.43,0 -30.72,-8 -33.35,-22.91l-23.99 0c2.49,25.35 24.41,42.47 55.83,42.47 33.5,0 57.06,-17.64 57.06,-42.61 0,-21.08 -10.49,-31.52 -39.42,-38.86l-22.2 -5.36c-16.27,-4.14 -23.85,-10.72 -23.85,-20.65 0,-12.56 11.57,-21.26 29.07,-21.26 17.64,0 28.84,8.56 30.48,22.34l22.86 0c-1.08,-24.27 -22.86,-41.91 -52.49,-41.91 -31.56,0 -53.48,17.5 -53.48,42.05z"/>
  <path id="20" class="fil7" d="M10151.08 14760.8l0 34.57 -21.35 0 0 19.71 21.35 0 0 86.41c0,27.57 10.21,38.29 36.51,38.29 5.69,0 12.27,-0.37 15.19,-1.08l0 -20.13c-1.65,0.28 -7.2,0.7 -9.93,0.7 -12.27,0 -17.78,-5.92 -17.78,-19l0 -85.19 27.85 0 0 -19.71 -27.85 0 0 -34.57 -23.99 0z"/>
  <path id="21" class="fil7" d="M10275.8 14920.78c-17.21,0 -28.64,-8.94 -28.64,-22.58 0,-13.5 11,-22.06 30.29,-23.28l38.34 -2.36 0 11.72c0,20.65 -17.41,36.5 -39.99,36.5zm-5.36 20.41c19.29,0 37.49,-10.77 46,-27.14l0.57 0 0 24.65 22.72 0 0 -99.06c0,-28.55 -21.22,-46.76 -54.85,-46.76 -33.87,0 -55.13,19.05 -56.77,43.84l23.14 0c3.06,-14.06 14.63,-22.72 33.11,-22.72 19.81,0 31.43,10.44 31.43,27.94l0 12 -41.07 2.35c-33.11,1.93 -51.98,17.36 -51.98,41.91 0,25.78 19.15,42.99 47.7,42.99z"/>
  <path id="22" class="fil7" d="M10428.07 14938.7l23.99 0 0 -89.84c0,-19.85 13.78,-34.72 32.78,-34.72 17.79,0 29.36,11.29 29.36,28.51l0 96.05 23.99 0 0 -91.11c0,-19.43 13.36,-33.45 32.36,-33.45 18.91,0 29.77,11.57 29.77,31.14l0 93.42 23.99 0 0 -98.97c0,-28.36 -18.34,-46.85 -46.71,-46.85 -20.13,0 -36.92,10.21 -44.92,27.28l-0.56 0c-6.21,-17.35 -20.65,-27.28 -40.22,-27.28 -19.33,0 -33.91,10.21 -40.69,25.35l-0.51 0 0 -22.86 -22.63 0 0 143.33z"/>
  <path id="23" class="fil7" d="M10715.12 14813.72c22.58,0 37.63,17.07 38.15,41.06l-77.85 0c1.51,-23.84 17.22,-41.06 39.7,-41.06zm37.63 83.92c-4,13.5 -17.4,22.72 -35.56,22.72 -25.78,0 -41.91,-18.02 -41.91,-45.44l0 -1.42 102.82 0 0 -9.07c0,-43.42 -23.84,-71.55 -62.56,-71.55 -39.56,0 -64.91,30.2 -64.91,74.7 0,45.06 24.93,73.61 66,73.61 31.28,0 55.55,-18.48 59.69,-43.55l-23.57 0z"/>
  <path id="24" class="fil7" d="M10805.08 14938.7l23.99 0 0 -84.34c0,-24.27 14.72,-40.22 37.35,-40.22 22.06,0 32.92,12.66 32.92,35.8l0 88.76 23.99 0 0 -93.04c0,-32.51 -18.2,-52.78 -49.62,-52.78 -22.2,0 -37.49,9.93 -45.49,25.35l-0.51 0 0 -22.86 -22.63 0 0 143.33z"/>
  <path id="25" class="fil7" d="M10954.17 14834.93c0,19.57 12.41,32.51 37.63,39l25.21 6.49c16.13,4.28 22.06,9.78 22.06,19.99 0,12.94 -11.99,21.22 -31.42,21.22 -19.43,0 -30.72,-8 -33.35,-22.91l-23.99 0c2.49,25.35 24.41,42.47 55.83,42.47 33.5,0 57.06,-17.64 57.06,-42.61 0,-21.08 -10.49,-31.52 -39.42,-38.86l-22.2 -5.36c-16.27,-4.14 -23.85,-10.72 -23.85,-20.65 0,-12.56 11.57,-21.26 29.07,-21.26 17.64,0 28.84,8.56 30.48,22.34l22.86 0c-1.08,-24.27 -22.86,-41.91 -52.49,-41.91 -31.56,0 -53.48,17.5 -53.48,42.05z"/>
  <path id="26" class="fil7" d="M11138.15 14920.78c-17.21,0 -28.64,-8.94 -28.64,-22.58 0,-13.5 11,-22.06 30.29,-23.28l38.34 -2.36 0 11.72c0,20.65 -17.41,36.5 -39.99,36.5zm-5.36 20.41c19.29,0 37.49,-10.77 46,-27.14l0.57 0 0 24.65 22.72 0 0 -99.06c0,-28.55 -21.22,-46.76 -54.85,-46.76 -33.87,0 -55.13,19.05 -56.77,43.84l23.14 0c3.06,-14.06 14.63,-22.72 33.11,-22.72 19.81,0 31.43,10.44 31.43,27.94l0 12 -41.07 2.35c-33.11,1.93 -51.98,17.36 -51.98,41.91 0,25.78 19.15,42.99 47.7,42.99z"/>
  <path id="27" class="fil7" d="M11293.73 14918.71c-24.65,0 -40.78,-20.13 -40.78,-52.21 0,-32.13 16.13,-52.5 40.78,-52.5 24.98,0 41.63,20.93 41.63,52.5 0,31.56 -16.65,52.21 -41.63,52.21zm0.85 73.99c39.56,0 64.77,-22.72 64.77,-56.92l0 -140.41 -22.86 0 0 24.13 -0.43 0c-9.5,-16.69 -26.34,-26.62 -46.61,-26.62 -37.07,0 -61.01,28.69 -61.01,73.62 0,44.49 23.94,73.28 60.49,73.28 20.13,0 37.07,-10.16 45.86,-25.73l0.57 0 0 22.58c0,21.36 -15.01,35.7 -39.84,35.7 -17.88,0 -32.08,-8.7 -36.79,-21.78l-24.64 0c3.99,24.42 28.92,42.15 60.49,42.15z"/>
  <path id="28" class="fil7" d="M11450.86 14813.72c22.58,0 37.63,17.07 38.15,41.06l-77.85 0c1.51,-23.84 17.22,-41.06 39.7,-41.06zm37.63 83.92c-4,13.5 -17.4,22.72 -35.56,22.72 -25.78,0 -41.91,-18.02 -41.91,-45.44l0 -1.42 102.82 0 0 -9.07c0,-43.42 -23.84,-71.55 -62.56,-71.55 -39.56,0 -64.91,30.2 -64.91,74.7 0,45.06 24.93,73.61 66,73.61 31.28,0 55.55,-18.48 59.69,-43.55l-23.57 0z"/>
  <path id="29" class="fil7" d="M11540.82 14938.7l23.99 0 0 -89.84c0,-19.85 13.78,-34.72 32.78,-34.72 17.79,0 29.36,11.29 29.36,28.51l0 96.05 23.99 0 0 -91.11c0,-19.43 13.36,-33.45 32.36,-33.45 18.91,0 29.77,11.57 29.77,31.14l0 93.42 23.99 0 0 -98.97c0,-28.36 -18.34,-46.85 -46.71,-46.85 -20.13,0 -36.92,10.21 -44.92,27.28l-0.56 0c-6.21,-17.35 -20.65,-27.28 -40.22,-27.28 -19.33,0 -33.91,10.21 -40.69,25.35l-0.51 0 0 -22.86 -22.63 0 0 143.33z"/>
  <path class="fil4" d="M7898.89 15333.91l21.12 -2.88c2.44,12.01 6.52,20.65 12.33,25.93 5.8,5.28 12.92,7.92 21.36,7.92 10,0 18.44,-3.44 25.24,-10.32 6.8,-6.88 10.2,-15.41 10.2,-25.57 0,-9.68 -3.16,-17.68 -9.52,-24 -6.32,-6.28 -14.36,-9.44 -24.16,-9.44 -4,0 -8.96,0.8 -14.92,2.36l2.36 -18.48c1.4,0.16 2.56,0.24 3.4,0.24 9.04,0 17.12,-2.36 24.36,-7.04 7.2,-4.68 10.8,-11.88 10.8,-21.61 0,-7.72 -2.64,-14.12 -7.88,-19.2 -5.24,-5.08 -12,-7.6 -20.28,-7.6 -8.24,0 -15.08,2.6 -20.56,7.8 -5.49,5.2 -9.01,13 -10.57,23.4l-21.12 -3.84c2.6,-14.16 8.44,-25.16 17.6,-32.96 9.12,-7.8 20.53,-11.68 34.13,-11.68 9.36,0 18,2 25.88,6.04 7.92,4 13.96,9.48 18.12,16.4 4.2,6.96 6.28,14.32 6.28,22.12 0,7.4 -2,14.13 -5.96,20.21 -4,6.08 -9.92,10.92 -17.72,14.52 10.16,2.32 18.04,7.2 23.68,14.6 5.6,7.36 8.41,16.64 8.41,27.72 0,15.01 -5.49,27.77 -16.41,38.21 -10.96,10.44 -24.8,15.64 -41.52,15.64 -15.08,0 -27.61,-4.52 -37.57,-13.52 -10,-9 -15.68,-20.64 -17.08,-34.97z"/>
  <path id="1" class="fil4" d="M8099.84 15379.52l0 -41.05 -74.65 0 0 -19.44 78.49 -111.37 17.28 0 0 111.37 23.29 0 0 19.44 -23.29 0 0 41.05 -21.12 0zm0 -60.49l0 -77.29 -53.89 77.29 53.89 0z"/>
  <path id="2" class="fil4" d="M8276.55 15359.36l0 20.16 -113.78 0c-0.16,-5.08 0.68,-9.96 2.48,-14.68 2.92,-7.72 7.6,-15.36 14.04,-22.84 6.44,-7.49 15.64,-16.13 27.61,-25.93 18.6,-15.32 31.24,-27.44 37.84,-36.4 6.64,-8.96 9.96,-17.44 9.96,-25.45 0,-8.36 -3,-15.4 -9,-21.16 -6,-5.72 -13.84,-8.6 -23.48,-8.6 -10.2,0 -18.36,3.04 -24.48,9.12 -6.13,6.04 -9.21,14.44 -9.29,25.2l-21.6 -2.16c1.48,-16.16 7.08,-28.48 16.76,-36.96 9.72,-8.48 22.73,-12.72 39.09,-12.72 16.48,0 29.56,4.56 39.16,13.72 9.64,9.16 14.45,20.52 14.45,34.04 0,6.89 -1.41,13.65 -4.25,20.29 -2.8,6.68 -7.48,13.68 -14,21.04 -6.56,7.32 -17.4,17.44 -32.52,30.24 -12.68,10.64 -20.84,17.85 -24.44,21.65 -3.6,3.8 -6.57,7.6 -8.93,11.44l84.38 0z"/>
  <path class="fil4" d="M9386.51 15334.39l22.08 -1.68c1.64,10.77 5.44,18.85 11.37,24.29 5.92,5.4 13.16,8.12 21.68,8.12 10.28,0 18.88,-3.84 25.88,-11.48 6.96,-7.68 10.44,-17.85 10.44,-30.49 0,-12.04 -3.32,-21.52 -10,-28.48 -6.68,-6.96 -15.52,-10.44 -26.52,-10.44 -6.84,0 -12.96,1.56 -18.4,4.68 -5.4,3.12 -9.65,7.16 -12.77,12.12l-19.92 -2.88 16.56 -88.33 85.21 0 0 20.16 -68.36 0 -9.17 46.37c10.29,-7.24 21.09,-10.84 32.37,-10.84 14.96,0 27.6,5.2 37.88,15.6 10.28,10.4 15.45,23.76 15.45,40.08 0,15.56 -4.53,29.01 -13.57,40.33 -11,13.92 -26.04,20.88 -45.08,20.88 -15.6,0 -28.33,-4.4 -38.21,-13.16 -9.88,-8.76 -15.52,-20.36 -16.92,-34.85z"/>
  <path id="1" class="fil4" d="M9629.7 15249.66l-20.88 1.68c-1.88,-8.28 -4.56,-14.32 -8.04,-18.08 -5.72,-6.04 -12.8,-9.04 -21.2,-9.04 -6.76,0 -12.76,1.88 -17.92,5.64 -6.64,4.84 -11.85,11.88 -15.73,21.16 -3.84,9.33 -5.84,22.57 -6,39.73 5.08,-7.72 11.33,-13.48 18.69,-17.2 7.36,-3.76 15.04,-5.64 23.12,-5.64 14.08,0 26.08,5.2 36,15.56 9.88,10.36 14.85,23.72 14.85,40.16 0,10.8 -2.32,20.81 -6.97,30.09 -4.68,9.28 -11.04,16.36 -19.2,21.28 -8.12,4.92 -17.36,7.4 -27.68,7.4 -17.56,0 -31.93,-6.48 -43.05,-19.4 -11.08,-12.92 -16.64,-34.25 -16.64,-63.93 0,-33.2 6.16,-57.37 18.44,-72.45 10.72,-13.12 25.17,-19.68 43.37,-19.68 13.52,0 24.64,3.8 33.28,11.36 8.64,7.56 13.84,18 15.56,31.36zm-86.41 74.17c0,7.28 1.56,14.24 4.64,20.89 3.09,6.64 7.41,11.68 12.89,15.16 5.52,3.48 11.36,5.24 17.56,5.24 9,0 16.68,-3.6 23.04,-10.8 6.36,-7.2 9.56,-16.97 9.56,-29.33 0,-11.88 -3.16,-21.24 -9.44,-28.08 -6.28,-6.84 -14.28,-10.28 -24,-10.28 -9.52,0 -17.64,3.44 -24.28,10.28 -6.65,6.84 -9.97,15.8 -9.97,26.92z"/>
  <path id="2" class="fil4" d="M9686.04 15286.35c-8.77,-3.2 -15.25,-7.8 -19.49,-13.72 -4.2,-5.96 -6.32,-13.08 -6.32,-21.37 0,-12.52 4.48,-23 13.44,-31.52 9,-8.52 20.93,-12.8 35.85,-12.8 14.96,0 27.04,4.36 36.16,13.08 9.12,8.72 13.68,19.32 13.68,31.84 0,7.97 -2.08,14.93 -6.24,20.81 -4.16,5.92 -10.48,10.48 -19,13.68 10.52,3.44 18.48,8.96 23.96,16.64 5.49,7.64 8.25,16.76 8.25,27.4 0,14.69 -5.21,27.01 -15.57,37.01 -10.4,10 -24.04,15 -40.96,15 -16.92,0 -30.57,-5 -40.97,-15.04 -10.36,-10.04 -15.56,-22.56 -15.56,-37.57 0,-11.16 2.84,-20.52 8.52,-28.04 5.68,-7.56 13.76,-12.68 24.25,-15.4zm-4.21 -35.85c0,8.16 2.61,14.81 7.77,19.97 5.2,5.16 12,7.76 20.44,7.76 8.2,0 14.84,-2.56 20,-7.68 5.16,-5.12 7.72,-11.41 7.72,-18.85 0,-7.76 -2.64,-14.28 -7.96,-19.56 -5.28,-5.28 -11.96,-7.92 -20,-7.92 -8.12,0 -14.8,2.6 -20.08,7.76 -5.24,5.16 -7.89,11.32 -7.89,18.52zm-6.96 79.45c0,6.04 1.4,11.85 4.2,17.49 2.8,5.6 7.05,9.96 12.73,13.04 5.64,3.08 11.72,4.64 18.16,4.64 10.16,0 18.48,-3.24 25,-9.72 6.52,-6.48 9.76,-14.72 9.76,-24.73 0,-10.16 -3.36,-18.56 -10.04,-25.2 -6.72,-6.64 -15.2,-9.96 -25.4,-9.96 -10,0 -18.2,3.28 -24.68,9.84 -6.49,6.56 -9.73,14.76 -9.73,24.6z"/>
  <path class="fil4" d="M10959.48 15359.36l0 20.16 -113.78 0c-0.16,-5.08 0.68,-9.96 2.48,-14.68 2.92,-7.72 7.6,-15.36 14.04,-22.84 6.44,-7.49 15.64,-16.13 27.61,-25.93 18.6,-15.32 31.24,-27.44 37.84,-36.4 6.64,-8.96 9.96,-17.44 9.96,-25.45 0,-8.36 -3,-15.4 -9,-21.16 -6,-5.72 -13.84,-8.6 -23.48,-8.6 -10.2,0 -18.36,3.04 -24.48,9.12 -6.13,6.04 -9.21,14.44 -9.29,25.2l-21.6 -2.16c1.48,-16.16 7.08,-28.48 16.76,-36.96 9.72,-8.48 22.73,-12.72 39.09,-12.72 16.48,0 29.56,4.56 39.16,13.72 9.64,9.16 14.45,20.52 14.45,34.04 0,6.89 -1.41,13.65 -4.25,20.29 -2.8,6.68 -7.48,13.68 -14,21.04 -6.56,7.32 -17.4,17.44 -32.52,30.24 -12.68,10.64 -20.84,17.85 -24.44,21.65 -3.6,3.8 -6.57,7.6 -8.93,11.44l84.38 0z"/>
  <path id="1" class="fil4" d="M10982.32 15294.71c0,-20.28 2.08,-36.69 6.24,-49.09 4.2,-12.44 10.4,-22 18.64,-28.68 8.21,-6.68 18.57,-10 31.05,-10 9.2,0 17.28,1.84 24.28,5.56 6.96,3.72 12.72,9.08 17.2,16.08 4.48,6.96 8,15.48 10.56,25.52 2.61,10.05 3.89,23.61 3.89,40.61 0,20.16 -2.09,36.48 -6.21,48.89 -4.12,12.44 -10.32,22 -18.56,28.72 -8.2,6.72 -18.6,10.08 -31.16,10.08 -16.52,0 -29.53,-5.88 -38.97,-17.68 -11.32,-14.4 -16.96,-37.73 -16.96,-70.01zm21.6 0.08c0,28.28 3.28,47.09 9.89,56.37 6.6,9.32 14.76,13.96 24.44,13.96 9.68,0 17.84,-4.68 24.44,-14 6.6,-9.36 9.88,-28.13 9.88,-56.33 0,-28.28 -3.28,-47.09 -9.88,-56.37 -6.56,-9.32 -14.8,-13.96 -24.68,-13.96 -9.68,0 -17.44,4.12 -23.24,12.32 -7.25,10.44 -10.85,29.81 -10.85,58.01z"/>
  <polygon id="2" class="fil4" points="11121.66,15379.52 11121.66,15207.66 11142.78,15207.66 11142.78,15305.55 11192.71,15254.94 11219.99,15254.94 11172.47,15301.23 11224.79,15379.52 11198.79,15379.52 11157.43,15315.87 11142.78,15330.11 11142.78,15379.52 "/>
 </g>
</svg>
